<svg width="786" height="145" viewBox="0 0 786 145" fill="none" xmlns="http://www.w3.org/2000/svg">
<path d="M770.863 52.7766C762.436 44.8849 753.082 38.321 743.062 33.2679C738.231 30.7118 733.335 28.4449 728.482 25.8646C724.794 23.9837 719.294 22.0062 715.433 18.8713C715.586 18.2255 715.616 17.5517 715.523 16.892C715.43 16.2323 715.216 15.6012 714.894 15.0389C714.571 14.4767 714.148 13.9957 713.65 13.626C713.153 13.2562 712.592 13.0058 712.004 12.8909L708.898 12.1194C707.957 11.8622 706.969 11.9161 706.055 12.2745C705.14 12.633 704.339 13.2805 703.747 14.1385C703.156 14.9965 702.8 16.0282 702.722 17.1081C702.645 18.188 702.85 19.2696 703.312 20.2219C708.273 30.2294 720.566 33.919 729.345 38.3319C741.552 44.4812 753.652 50.7268 763.853 60.5897C768.663 65.2197 775.673 57.4548 770.863 52.7766Z" fill="#191B19"/>
<path d="M784.43 73.3226C759.885 48.3882 729 29.7717 698.589 15.4476C692.788 12.6986 687.805 22.2238 693.586 25.0935C723.155 39.104 753.588 57.0934 777.442 81.3285C782.143 85.9103 789.153 78.1214 784.43 73.3226Z" fill="#191B19"/>
<path d="M713.277 149.814C713.32 150.911 713.629 151.974 714.173 152.889C714.716 153.803 715.472 154.535 716.36 155.004C717.248 155.473 718.234 155.662 719.211 155.551C720.188 155.439 721.119 155.031 721.904 154.372C725.808 150.899 745.413 134.501 731.825 129.244C727.231 127.484 720.545 132.476 716.857 134.791C712.242 137.684 707.971 141.012 703.14 142.58C707.842 135.345 718.13 128.424 722.551 124.807C729.796 118.815 737.327 113.268 745.111 108.192C745.904 107.657 746.544 106.881 746.958 105.955C747.372 105.029 747.542 103.99 747.45 102.96C747.357 101.93 747.005 100.951 746.435 100.135C745.864 99.3199 745.099 98.7021 744.227 98.3535C746.709 95.7629 748.996 92.9481 751.064 89.9375C754.925 84.2947 746.362 78.7965 742.437 84.3669C727.339 106.408 700.681 112.967 683.017 131.945C678.423 136.888 685.433 144.702 690.005 139.758C693.37 136.234 696.976 133.009 700.789 130.112C695.613 135.176 691.127 140.988 690.803 148.97C690.831 150.425 691.36 151.812 692.28 152.841C693.201 153.87 694.441 154.461 695.742 154.492C701.165 155.017 706.608 153.787 711.422 150.947C712.091 150.537 712.673 150.176 713.277 149.814Z" fill="#191B19"/>
<path d="M650.449 45.446C651.487 45.4179 652.525 45.4745 653.555 45.6149L653.684 45.6149C654.116 45.6149 654.547 45.6148 655 45.8319C660.5 46.5312 661.751 36.186 656.316 34.9803C638.932 31.0737 621.462 27.8906 603.884 25.3345C597.586 24.394 597.651 35.4625 603.884 36.3789C610.117 37.2952 616.825 38.3805 623.144 39.5139C612.962 38.9038 602.75 39.6078 592.712 41.6118C586.457 42.8658 589.11 53.5245 595.322 52.2706C611.897 48.9429 628.918 49.6419 645.23 54.3203C650.234 55.7671 652.908 48.9667 650.449 45.446Z" fill="#191B19"/>
<path d="M631.685 181.934C637.573 179.523 635.028 168.744 629.054 171.276C628.003 171.732 626.921 172.094 625.819 172.361C633.389 160.617 645.058 152.346 650.665 138.794C652.585 134.115 648.508 128.063 643.893 131.222C643.009 131.849 642.124 132.524 641.262 133.199C640.593 129.775 637.466 127.026 634.252 129.606C619.931 141.012 605.61 153.407 600.39 173.012C600.16 174.064 600.209 175.169 600.529 176.191C600.85 177.214 601.429 178.11 602.196 178.771C602.964 179.432 603.886 179.831 604.852 179.917C605.818 180.003 606.786 179.774 607.637 179.258C609.426 178.209 611.162 177.05 612.835 175.785C612.634 176.48 612.561 177.213 612.621 177.94C612.68 178.667 612.871 179.373 613.181 180.016C613.492 180.658 613.916 181.223 614.427 181.678C614.938 182.132 615.527 182.465 616.157 182.658C621.259 184.373 626.729 184.118 631.685 181.934Z" fill="#191B19"/>
<path d="M505.837 99.3179L539.461 85.0661C540.338 84.7575 541.12 84.1817 541.719 83.4035C542.319 82.6253 542.713 81.6753 542.856 80.6606C543 79.6459 542.887 78.6069 542.531 77.6598C542.175 76.7127 541.59 75.8952 540.842 75.2996C541.434 74.602 541.858 73.7475 542.073 72.8163C542.288 71.885 542.288 70.9076 542.072 69.9765C541.857 69.0454 541.432 68.191 540.84 67.4938C540.247 66.7966 539.506 66.2796 538.685 65.9914C533.46 64.7804 528.104 64.439 522.789 64.9785C530.079 62.2294 537.455 59.6735 544.896 57.3826C551.022 55.5017 548.412 44.8429 542.265 46.748C525.239 51.9606 508.52 58.3552 492.206 65.8948C488.324 67.7034 486.749 75.5408 492.206 76.5536C498.572 77.4458 505.013 77.4458 511.38 76.5536C505.447 78.4227 499.419 79.8882 493.328 80.9423C488.302 81.8104 489.014 90.2748 493.328 91.6011C493.972 91.7999 494.628 91.9531 495.29 92.0594C493.867 92.6864 492.443 93.2893 490.977 93.8921C490.063 94.2132 489.25 94.8194 488.635 95.6395C488.019 96.4596 487.625 97.4594 487.501 98.521C487.376 99.5827 487.525 100.662 487.931 101.632C488.337 102.602 488.982 103.422 489.79 103.996C493.239 107.037 497.545 108.601 501.933 108.409C502.879 108.418 503.808 108.126 504.611 107.566C505.414 107.007 506.058 106.203 506.468 105.25C506.877 104.296 507.035 103.232 506.924 102.181C506.812 101.131 506.435 100.138 505.837 99.3179Z" fill="#191B19"/>
<path d="M446.352 40.4783C447.068 40.1441 447.677 39.5765 448.1 38.8496C448.523 38.1226 448.741 37.2699 448.724 36.4028C449.452 36.0095 450.083 35.4236 450.561 34.6957C451.04 33.9678 451.353 33.12 451.472 32.2263C451.591 31.3325 451.513 30.4199 451.245 29.5676C450.976 28.7152 450.526 27.9489 449.932 27.3357C455.065 26.9016 456.575 17.6899 450.989 16.5324L414.323 9.00865C409.104 7.94761 406.408 15.2544 409.363 18.3893C409.265 19.5195 409.528 20.6518 410.104 21.587C410.68 22.5221 411.533 23.2002 412.512 23.5015C411.786 24.0303 411.202 24.7692 410.822 25.6398C410.442 26.5104 410.281 27.4801 410.355 28.4451C409.505 28.8309 408.768 29.4724 408.225 30.2985C407.681 31.1245 407.353 32.1026 407.277 33.1244C407.201 34.1462 407.38 35.1716 407.794 36.0866C408.208 37.0016 408.841 37.7706 409.622 38.3079C415.153 41.896 421.367 43.9637 427.753 44.341C434.139 44.7183 440.513 43.3945 446.352 40.4783Z" fill="#191B19"/>
<path d="M452.909 114.896C457.007 112.484 455.497 106.89 452.197 105.25C453.628 103.98 454.742 102.319 455.432 100.427C458.193 92.5896 448.811 83.5467 443.311 90.781C442.504 91.8576 442.077 93.2278 442.113 94.6322C442.149 96.0367 442.644 97.3779 443.505 98.4013C442.125 99.3177 440.723 100.21 439.343 101.102L429.659 107.396C428.907 107.89 428.284 108.595 427.851 109.441C427.418 110.287 427.191 111.244 427.191 112.219C427.191 113.194 427.418 114.151 427.851 114.997C428.284 115.843 428.907 116.548 429.659 117.042C436.884 122.757 445.835 119.019 452.909 114.896Z" fill="#191B19"/>
<path d="M567.693 134.55C575.846 131.222 584.085 128.191 592.41 125.458C593.446 125.088 594.346 124.351 594.974 123.357C595.602 122.364 595.923 121.169 595.889 119.953C595.855 118.738 595.467 117.568 594.785 116.62C594.103 115.673 593.163 115 592.108 114.703C592.238 114.416 592.346 114.118 592.431 113.811C593.749 113.535 595.109 113.643 596.378 114.124C602.417 116.391 605.005 105.733 599.01 103.49C595.926 102.401 592.631 102.304 589.5 103.207C586.369 104.111 583.529 105.981 581.302 108.602C576.064 110.723 570.924 113.137 565.903 115.837C565.267 116.227 564.72 116.775 564.303 117.438C563.886 118.102 563.611 118.864 563.498 119.665C563.386 120.466 563.439 121.285 563.654 122.059C563.869 122.834 564.24 123.543 564.738 124.132C559.389 126.785 561.934 136.961 567.693 134.55Z" fill="#191B19"/>
<path d="M562.279 16.7494C562.84 16.7494 563.422 16.7494 563.983 16.7494C564.593 16.7936 565.205 16.7013 565.783 16.4777C566.361 16.2541 566.893 15.9038 567.348 15.4474L571.23 15.785C577.571 16.3155 577.549 5.27087 571.23 4.74035L518.302 0.303348C512.328 -0.203058 512.112 9.22565 517.159 11.0584C516.888 12.4042 517.102 13.8155 517.757 14.9852C518.411 16.1549 519.452 16.9884 520.653 17.3042L556.175 23.8392C557.026 23.9724 557.892 23.8784 558.704 23.5649C559.516 23.2513 560.249 22.7271 560.845 22.0353C561.441 21.3436 561.881 20.5038 562.13 19.585C562.38 18.6662 562.431 17.6945 562.279 16.7494Z" fill="#191B19"/>
<path d="M59.7684 114.92C52.5896 119.468 44.8601 122.831 36.8201 124.903C31.5144 126.302 32.6791 134.236 37.0358 135.514C30.6992 138.605 24.7474 142.602 19.3285 147.402C14.3895 151.888 21.4853 159.652 26.3165 155.215C42.3846 140.602 64.0172 137.443 82.0696 126.832C82.8862 126.265 83.5393 125.446 83.9507 124.475C84.362 123.503 84.5142 122.419 84.3891 121.353C84.2639 120.287 83.8667 119.284 83.245 118.464C82.6233 117.644 81.8034 117.041 80.8834 116.729C75.9385 115.396 70.8054 115.183 65.7858 116.102C65.0812 115.123 64.0825 114.463 62.9757 114.246C61.8689 114.029 60.7291 114.268 59.7684 114.92Z" fill="#191B19"/>
<path d="M150.203 113.208C148.957 113.629 147.903 114.57 147.261 115.836C146.618 117.102 146.436 118.596 146.752 120.008L147.184 123.457C146.621 122.787 145.911 122.294 145.126 122.025C144.34 121.756 143.505 121.721 142.704 121.923C141.902 122.126 141.162 122.558 140.556 123.178C139.949 123.798 139.498 124.584 139.247 125.458C138.888 124.806 138.406 124.251 137.834 123.831C137.262 123.411 136.614 123.138 135.937 123.029C135.259 122.921 134.569 122.981 133.914 123.205C133.26 123.429 132.658 123.811 132.151 124.325L131.417 121.6C129.649 114.776 120.116 117.669 121.884 124.542C123.585 131.108 125.645 137.55 128.053 143.834C129.714 148.198 131.396 153.479 134.372 157.193L136.162 168.671C137.241 175.665 146.752 172.699 145.674 165.729L144.94 160.907C146.323 160.487 147.615 159.757 148.736 158.76C153.05 154.878 153.762 148.729 153.87 142.893C153.867 142.39 153.816 141.889 153.719 141.398C154.466 141.349 155.195 141.121 155.856 140.73C156.517 140.339 157.096 139.793 157.552 139.13C158.008 138.466 158.331 137.701 158.5 136.886C158.668 136.071 158.678 135.224 158.528 134.405L156.372 116.922C155.988 115.519 155.124 114.343 153.97 113.648C152.815 112.953 151.461 112.794 150.203 113.208ZM143.603 148.198C143.409 148.332 143.207 148.453 142.999 148.56L140.346 131.414C142.431 133.884 144.745 136.099 147.248 138.022C146.287 138.343 145.446 139.007 144.854 139.913C144.262 140.819 143.952 141.916 143.97 143.038C144.01 144.767 143.887 146.497 143.603 148.198Z" fill="#191B19"/>
<path d="M232.118 83.7877C221.472 98.339 209.534 111.646 196.487 123.504C191.548 127.99 198.644 135.755 203.475 131.317C207.789 127.411 211.908 123.336 215.942 119.26L215.165 120.08C214.587 120.694 214.15 121.455 213.893 122.299C209.73 127.966 205.265 133.44 201.146 138.962C197.026 144.484 204.014 152.201 208.134 146.775C213.138 140.192 218.336 133.681 223.231 126.88C232.268 117.596 246.956 106.19 246.094 91.1186C246.039 90.309 245.833 89.5212 245.488 88.807C245.142 88.0927 244.666 87.468 244.09 86.974C243.513 86.4799 242.85 86.1277 242.144 85.9401C241.437 85.7526 240.703 85.7339 239.99 85.8857C238.653 82.2926 234.77 80.1946 232.118 83.7877Z" fill="#191B19"/>
<path d="M320.827 112.412C317.721 112.918 314.615 113.473 311.51 114.1C306.42 115.137 307.196 123.215 311.51 124.759C316.691 126.517 322.028 127.641 327.427 128.111C322.207 128.496 316.966 128.713 311.682 128.713C305.341 128.713 305.212 139.758 311.682 139.758C330.559 139.719 349.37 137.292 367.759 132.523C372.633 131.269 372.266 123.36 367.759 121.889C364.567 120.818 361.308 120.012 358.01 119.478C358.797 118.753 359.37 117.78 359.654 116.685C359.939 115.591 359.922 114.426 359.605 113.343C359.288 112.259 358.687 111.308 357.879 110.613C357.071 109.918 356.094 109.511 355.077 109.446L325.529 107.975C324.958 107.915 324.383 107.983 323.837 108.175C323.29 108.367 322.784 108.678 322.346 109.091C321.908 109.505 321.548 110.011 321.288 110.581C321.027 111.151 320.87 111.773 320.827 112.412Z" fill="#191B19"/>
<path d="M29.8969 22.9469C30.7596 25.3584 31.687 27.5527 32.6576 29.7954L29.293 27.3839C24.5481 23.9355 19.3286 31.7004 23.3187 36.0651C32.6685 46.2562 41.3606 57.1754 49.3296 68.7405C49.9548 69.625 50.7884 70.2968 51.7367 70.6801C52.6849 71.0633 53.7101 71.1428 54.6966 70.9097C55.6831 70.6765 56.5918 70.1399 57.3203 69.3604C58.0487 68.5809 58.568 67.5894 58.8195 66.4977C60.7391 68.2339 62.7449 69.9221 64.837 71.5137C69.5388 75.1068 74.672 67.1973 70.8113 62.8325C65.7144 57.1348 60.2815 51.8255 54.549 46.9408C48.1779 39.0098 43.0713 29.9152 39.4515 20.053C37.1221 13.5179 27.4813 16.3636 29.8969 22.9469Z" fill="#191B19"/>
<path d="M155.94 14.5794C152.445 14.9794 148.996 15.7877 145.652 16.9909C144.96 16.1376 144.003 15.6122 142.977 15.5226C141.95 15.4329 140.932 15.7855 140.13 16.5084C135.407 20.2071 130.346 23.3354 125.033 25.8407C124.976 25.829 124.917 25.829 124.86 25.8407C119.869 26.1684 115.049 27.9928 110.906 31.122C109.805 31.7701 108.963 32.8569 108.545 34.1669C108.127 35.477 108.165 36.9146 108.651 38.195C109.136 39.4754 110.035 40.5051 111.167 41.0798C112.3 41.6546 113.585 41.7326 114.766 41.2983C120.113 39.8804 125.333 37.9188 130.36 35.4383C128.203 36.9093 125.917 38.3321 123.609 39.6825C122.974 40.0581 122.433 40.6053 122.035 41.2741L107.822 49.3042C102.883 52.0774 106.333 61.5545 111.618 59.3842C114.27 58.2991 116.859 57.1417 119.404 55.9118C120.223 59.1673 123.2 61.6027 126.241 59.0224C132.105 54.0875 137.562 48.5755 142.546 42.5523C147.097 40.1408 151.561 37.4159 155.94 34.474C156.553 34.1001 157.083 33.5767 157.491 32.9429C157.898 32.3092 158.174 31.5813 158.296 30.8126C158.418 30.0439 158.384 29.2542 158.196 28.5021C158.009 27.7501 157.672 27.0549 157.212 26.4677C157.967 25.672 158.722 24.8762 159.369 24.0563C162.216 20.9214 160.34 14.0248 155.94 14.5794Z" fill="#191B19"/>
<path d="M215.791 28.6377C213.502 35.3555 209.111 40.9164 203.432 44.288C197.846 47.6882 202.828 57.2376 208.415 53.9339C208.587 53.9339 208.76 53.6927 208.932 53.5962C209.189 54.6445 209.712 55.5869 210.438 56.3094C211.165 57.0319 212.063 57.5034 213.024 57.6667C213.985 57.8301 214.968 57.6785 215.853 57.2299C216.738 56.7813 217.488 56.0552 218.012 55.1396L225.043 41.9731C225.665 40.9052 225.904 39.6145 225.712 38.3586C225.52 37.1026 224.912 35.9735 224.008 35.1968C224.483 34.0634 224.914 32.7855 225.324 31.7003C227.524 24.9 217.991 22.0062 215.791 28.6377Z" fill="#191B19"/>
<path d="M258.581 6.30779C257.761 6.58496 257.018 7.09292 256.424 7.78316C255.83 8.4734 255.404 9.32296 255.188 10.25C254.971 11.177 254.971 12.1504 255.188 13.0774C255.404 14.0043 255.83 14.8534 256.425 15.5436C271.949 33.9742 292.1 46.719 314.227 52.1014C315.029 52.2848 315.859 52.2518 316.648 52.0051C317.437 51.7584 318.161 51.3051 318.762 50.6828C319.363 50.0605 319.823 49.2872 320.103 48.4268C320.383 47.5663 320.476 46.6436 320.374 45.7351C320.797 45.119 321.099 44.4105 321.262 43.6554C321.424 42.9002 321.443 42.1152 321.317 41.3514C321.191 40.5875 320.923 39.8619 320.53 39.2213C320.137 38.5807 319.628 38.0393 319.036 37.6326L297.469 24.2492C294.306 21.4647 291.329 18.4262 288.561 15.1579C288.169 14.6626 287.693 14.2595 287.16 13.9725C286.628 13.6856 286.049 13.5205 285.458 13.4868C284.868 13.4531 284.277 13.5516 283.721 13.7765C283.165 14.0013 282.655 14.3479 282.22 14.7962C274.822 9.94914 267.209 3.99279 258.581 6.30779Z" fill="#191B19"/>
<path d="M352.143 8.35731C354.086 13.2792 357.042 17.6174 360.771 21.0175L379.556 48.6771C381.26 51.0886 385.121 52.8971 387.321 49.8104C387.988 49.0825 388.519 48.2123 388.882 47.2515C389.244 46.2907 389.431 45.2584 389.431 44.2157C389.431 43.1729 389.244 42.1407 388.882 41.1799C388.519 40.219 387.988 39.3491 387.321 38.6212C386.908 38.0597 386.387 37.6096 385.797 37.3048C385.207 37 384.563 36.8483 383.913 36.8609L381.497 33.2679C382.268 33.3327 383.042 33.1896 383.753 32.851C384.464 32.5125 385.092 31.988 385.584 31.3218C386.077 30.6556 386.419 29.8672 386.582 29.0225C386.745 28.1778 386.725 27.3015 386.523 26.4674L385.617 22.0545C385.415 21.1141 384.99 20.2521 384.386 19.5603C383.781 18.8685 383.021 18.3726 382.185 18.1253C381.349 17.878 380.468 17.8887 379.637 18.1559C378.806 18.4231 378.055 18.937 377.464 19.6431C373.994 17.8647 370.734 15.6129 367.759 12.9391L360.641 2.71458C359.972 1.45465 358.882 0.543628 357.612 0.18184C356.342 -0.179949 354.996 0.0370093 353.869 0.785293C352.742 1.53358 351.927 2.75197 351.603 4.17199C351.28 5.59201 351.474 7.09738 352.143 8.35731Z" fill="#191B19"/>
</svg>
