<svg width="22" height="24" viewBox="0 0 22 24" fill="none" xmlns="http://www.w3.org/2000/svg">
<path d="M20.2646 13.5C21.0931 13.5 21.7646 12.8284 21.7646 12C21.7646 11.1716 21.0931 10.5 20.2646 10.5V13.5ZM0.675003 10.9393C0.0892162 11.5251 0.0892162 12.4749 0.675003 13.0607L10.2209 22.6066C10.8067 23.1924 11.7565 23.1924 12.3423 22.6066C12.9281 22.0208 12.9281 21.0711 12.3423 20.4853L3.85698 12L12.3423 3.51472C12.9281 2.92893 12.9281 1.97919 12.3423 1.3934C11.7565 0.807611 10.8067 0.807611 10.2209 1.3934L0.675003 10.9393ZM20.2646 10.5L1.73566 10.5V13.5L20.2646 13.5V10.5Z" fill="#00E55D"/>
</svg>
