<svg width="16" height="15" viewBox="0 0 16 15" fill="none" xmlns="http://www.w3.org/2000/svg">
<path d="M14.4102 8.5C14.9624 8.5 15.4102 8.05228 15.4102 7.5C15.4102 6.94772 14.9624 6.5 14.4102 6.5V8.5ZM0.881976 6.79289C0.491451 7.18342 0.491451 7.81658 0.881976 8.20711L7.24594 14.5711C7.63646 14.9616 8.26963 14.9616 8.66015 14.5711C9.05067 14.1805 9.05067 13.5474 8.66015 13.1569L3.0033 7.5L8.66015 1.84315C9.05067 1.45262 9.05067 0.819457 8.66015 0.428932C8.26963 0.0384078 7.63646 0.0384078 7.24594 0.428932L0.881976 6.79289ZM14.4102 6.5L1.58908 6.5V8.5L14.4102 8.5V6.5Z" fill="#E5E5E5"/>
</svg>
