<svg width="25" height="18" viewBox="0 0 25 18" fill="none" xmlns="http://www.w3.org/2000/svg">
<path d="M20.5152 1.49291C18.9852 0.802928 17.3452 0.292942 15.6303 0.00295008C15.615 1.80814e-05 15.5992 0.00190757 15.5851 0.00835727C15.5709 0.014807 15.5591 0.0254978 15.5513 0.0389491C15.3413 0.407939 15.1073 0.888925 14.9433 1.26891C13.1245 0.997159 11.2753 0.997159 9.45646 1.26891C9.2738 0.847787 9.06782 0.437162 8.83948 0.0389491C8.83174 0.0253322 8.82003 0.0143995 8.80592 0.00761008C8.7918 0.000820642 8.77595 -0.00150277 8.76048 0.000950047C7.04653 0.290942 5.40658 0.800928 3.87562 1.49191C3.86245 1.49743 3.85128 1.50685 3.84362 1.51891C0.731708 6.09378 -0.121268 10.5557 0.29772 14.9615C0.298886 14.9723 0.302235 14.9828 0.307565 14.9922C0.312894 15.0017 0.320091 15.0099 0.328719 15.0165C2.14506 16.3389 4.17095 17.3463 6.32155 17.9964C6.33654 18.0011 6.35258 18.001 6.36756 17.9964C6.38255 17.9918 6.39579 17.9827 6.40555 17.9704C6.86754 17.3505 7.27952 16.6955 7.63151 16.0075C7.65251 15.9675 7.63251 15.9195 7.59052 15.9035C6.94454 15.6602 6.31864 15.3667 5.71857 15.0255C5.70779 15.0194 5.6987 15.0106 5.69213 15.0001C5.68555 14.9896 5.6817 14.9776 5.6809 14.9652C5.68011 14.9528 5.6824 14.9404 5.68758 14.9291C5.69276 14.9178 5.70066 14.908 5.71057 14.9005C5.83656 14.8075 5.96256 14.7105 6.08256 14.6135C6.09336 14.6048 6.10637 14.5993 6.12014 14.5975C6.13391 14.5957 6.1479 14.5978 6.16056 14.6035C10.0874 16.3675 14.3403 16.3675 18.2212 14.6035C18.2339 14.5975 18.248 14.5951 18.262 14.5967C18.276 14.5983 18.2892 14.6038 18.3002 14.6125C18.4202 14.7105 18.5452 14.8075 18.6722 14.9005C18.6822 14.9079 18.6902 14.9175 18.6956 14.9287C18.7009 14.9399 18.7034 14.9523 18.7028 14.9646C18.7022 14.977 18.6986 14.9891 18.6922 14.9997C18.6858 15.0103 18.6769 15.0192 18.6662 15.0255C18.0682 15.3695 17.4462 15.6605 16.7933 15.9025C16.7832 15.9061 16.7741 15.9119 16.7665 15.9193C16.7588 15.9268 16.7529 15.9358 16.749 15.9457C16.7451 15.9557 16.7434 15.9663 16.744 15.977C16.7445 15.9876 16.7474 15.998 16.7523 16.0075C17.1122 16.6945 17.5242 17.3485 17.9772 17.9694C17.9866 17.9822 17.9998 17.9917 18.0148 17.9967C18.0298 18.0017 18.046 18.002 18.0612 17.9974C20.2155 17.3491 22.2447 16.3413 24.0631 15.0165C24.0719 15.0103 24.0794 15.0023 24.0849 14.993C24.0904 14.9837 24.0939 14.9733 24.0951 14.9625C24.595 9.86867 23.2571 5.4428 20.5462 1.52091C20.5395 1.50816 20.5285 1.49823 20.5152 1.49291ZM8.2185 12.2786C7.03653 12.2786 6.06156 11.2096 6.06156 9.89867C6.06156 8.58671 7.01753 7.51874 8.2185 7.51874C9.42846 7.51874 10.3944 8.59571 10.3754 9.89867C10.3754 11.2106 9.41946 12.2786 8.2185 12.2786V12.2786ZM16.1933 12.2786C15.0103 12.2786 14.0363 11.2096 14.0363 9.89867C14.0363 8.58671 14.9913 7.51874 16.1933 7.51874C17.4032 7.51874 18.3692 8.59571 18.3502 9.89867C18.3502 11.2106 17.4042 12.2786 16.1933 12.2786V12.2786Z" fill="white"/>
</svg>
