<svg width="250" height="251" viewBox="0 0 250 251" fill="none" xmlns="http://www.w3.org/2000/svg">
<circle cx="125" cy="125.011" r="123" fill="#141514" stroke="#00C555" stroke-width="4"/>
<g clip-path="url(#clip0_1056_2)">
<path d="M160.028 177.831C163.917 187.477 168.326 189.935 173.792 177.831H160.028Z" fill="#818082"/>
<path d="M177.458 67.6016H80.0903C76.5388 67.6016 73.6598 70.4806 73.6598 74.0321V171.4C73.6598 174.952 76.5388 177.831 80.0903 177.831H177.458C181.01 177.831 183.889 174.952 183.889 171.4V74.0321C183.889 70.4806 181.01 67.6016 177.458 67.6016Z" fill="#88957E"/>
<g opacity="0.55">
<path opacity="0.55" d="M182.945 70.671C181.932 70.0529 180.769 69.7261 179.583 69.7266H82.2153C81.3706 69.7256 80.534 69.8914 79.7534 70.2142C78.9728 70.537 78.2635 71.0107 77.6662 71.608C77.0689 72.2053 76.5953 72.9146 76.2724 73.6952C75.9496 74.4758 75.7839 75.3124 75.7848 76.1571V173.525C75.7843 174.711 76.1112 175.874 76.7292 176.886C75.7913 176.31 75.0167 175.504 74.4793 174.543C73.942 173.583 73.6598 172.501 73.6598 171.4V74.0321C73.6598 72.3266 74.3373 70.691 75.5433 69.485C76.7492 68.2791 78.3849 67.6016 80.0903 67.6016H177.458C178.559 67.6016 179.641 67.8837 180.602 68.4211C181.562 68.9585 182.369 69.7331 182.945 70.671Z" fill="white"/>
</g>
<path d="M169.292 76.8447H88.25C85.293 76.8447 82.8959 79.2419 82.8959 82.1989V163.241C82.8959 166.198 85.293 168.595 88.25 168.595H169.292C172.249 168.595 174.646 166.198 174.646 163.241V82.1989C174.646 79.2419 172.249 76.8447 169.292 76.8447Z" fill="#C5C6C5"/>
<path d="M169.292 76.8447H88.25C85.293 76.8447 82.8959 79.2419 82.8959 82.1989V163.241C82.8959 166.198 85.293 168.595 88.25 168.595H169.292C172.249 168.595 174.646 166.198 174.646 163.241V82.1989C174.646 79.2419 172.249 76.8447 169.292 76.8447Z" fill="#141514"/>
<path d="M83.7084 177.831C87.5973 187.477 92.0417 189.935 97.4792 177.831H83.7084Z" fill="#818082"/>
<path d="M83.0417 120.928V134.761C83.0417 135.567 83.6947 136.22 84.5001 136.22H87.2987C88.1041 136.22 88.757 135.567 88.757 134.761V120.928C88.757 120.123 88.1041 119.47 87.2987 119.47H84.5001C83.6947 119.47 83.0417 120.123 83.0417 120.928Z" fill="#57BE6E"/>
<g opacity="0.55">
<path opacity="0.55" d="M82.7085 122.967L82.7194 125.37L88.1985 125.345L88.1876 122.942L82.7085 122.967Z" fill="white"/>
</g>
<path d="M82.7383 131.051L82.7584 135.488L88.2375 135.463L88.2174 131.026L82.7383 131.051Z" fill="#5F8049"/>
<g opacity="0.55">
<path opacity="0.55" d="M82.8145 120.564L82.8208 121.959L88.2999 121.935L88.2936 120.539L82.8145 120.564Z" fill="white"/>
</g>
<path d="M82.6334 135.496L82.6961 149.329C82.6998 150.135 83.3557 150.785 84.1611 150.781L86.9597 150.768C87.7651 150.765 88.415 150.109 88.4114 149.303L88.3486 135.47C88.3449 134.665 87.6891 134.015 86.8837 134.018L84.0851 134.031C83.2797 134.035 82.6297 134.691 82.6334 135.496Z" fill="#57BE6E"/>
<g opacity="0.55">
<path opacity="0.55" d="M82.7083 138.093L82.7192 140.496L88.1983 140.471L88.1874 138.068L82.7083 138.093Z" fill="white"/>
</g>
<path d="M82.7451 146.176L82.7653 150.614L88.2444 150.589L88.2242 146.151L82.7451 146.176Z" fill="#5F8049"/>
<g filter="url(#filter0_f_1056_2)">
<ellipse cx="121.621" cy="122.283" rx="33.1686" ry="30.7923" fill="#00C555"/>
</g>
<g opacity="0.55">
<path opacity="0.55" d="M82.8143 135.69L82.8207 137.085L88.2998 137.061L88.2935 135.665L82.8143 135.69Z" fill="white"/>
</g>
<path d="M82.6334 144.192L82.6961 158.026C82.6998 158.831 83.3557 159.481 84.1611 159.477L86.9597 159.465C87.7651 159.461 88.415 158.805 88.4114 158L88.3486 144.166C88.3449 143.361 87.6891 142.711 86.8836 142.715L84.0851 142.727C83.2797 142.731 82.6297 143.387 82.6334 144.192Z" fill="#57BE6E"/>
<g opacity="0.55">
<path opacity="0.55" d="M82.7082 146.783L82.7191 149.186L88.1982 149.161L88.1873 146.758L82.7082 146.783Z" fill="white"/>
</g>
<path d="M82.745 154.866L82.7651 159.304L88.2442 159.279L88.2241 154.841L82.745 154.866Z" fill="#5F8049"/>
<g opacity="0.55">
<path opacity="0.55" d="M82.8073 144.379L82.8136 145.775L88.2927 145.75L88.2864 144.354L82.8073 144.379Z" fill="white"/>
</g>
<path d="M105.965 127.282C111.204 127.282 115.451 123.035 115.451 117.796C115.451 112.557 111.204 108.31 105.965 108.31C100.726 108.31 96.4792 112.557 96.4792 117.796C96.4792 123.035 100.726 127.282 105.965 127.282Z" fill="#57BE6E"/>
<g opacity="0.55">
<path opacity="0.55" d="M112.639 124.373C113.586 122.813 114.062 121.014 114.01 119.191C113.959 117.367 113.381 115.598 112.347 114.095C112.003 114.313 111.596 114.407 111.191 114.362C110.787 114.317 110.41 114.136 110.122 113.848C109.834 113.56 109.653 113.183 109.608 112.779C109.563 112.374 109.657 111.966 109.875 111.623C108.061 110.377 105.868 109.804 103.676 110.001C101.484 110.199 99.4302 111.156 97.868 112.706C98.5672 111.562 99.501 110.58 100.608 109.824C101.715 109.068 102.969 108.555 104.289 108.319C105.608 108.083 106.963 108.13 108.263 108.456C109.563 108.783 110.779 109.381 111.831 110.212C112.883 111.043 113.746 112.087 114.365 113.276C114.983 114.465 115.343 115.772 115.419 117.11C115.496 118.449 115.287 119.788 114.808 121.04C114.329 122.292 113.589 123.427 112.639 124.373Z" fill="white"/>
</g>
<path d="M105.965 122.768C108.711 122.768 110.937 120.542 110.937 117.796C110.937 115.05 108.711 112.824 105.965 112.824C103.219 112.824 100.993 115.05 100.993 117.796C100.993 120.542 103.219 122.768 105.965 122.768Z" fill="#5F8049"/>
<g opacity="0.55">
<path opacity="0.55" d="M109.431 121.359C108.624 122.375 107.45 123.035 106.162 123.196C104.874 123.357 103.574 123.007 102.542 122.22C102.319 122.347 102.058 122.392 101.805 122.347C101.552 122.302 101.323 122.169 101.158 121.973C100.993 121.776 100.902 121.528 100.901 121.271C100.9 121.014 100.989 120.765 101.153 120.567C100.653 119.616 100.475 118.528 100.647 117.467C100.818 116.406 101.33 115.43 102.104 114.685C101.324 115.673 100.947 116.92 101.051 118.175C101.154 119.43 101.73 120.599 102.661 121.446C103.593 122.293 104.811 122.755 106.07 122.739C107.329 122.722 108.535 122.229 109.445 121.359H109.431Z" fill="white"/>
</g>
<path d="M105.674 137.907C110.913 137.907 115.16 133.66 115.16 128.421C115.16 123.182 110.913 118.935 105.674 118.935C100.435 118.935 96.1875 123.182 96.1875 128.421C96.1875 133.66 100.435 137.907 105.674 137.907Z" fill="#57BE6E"/>
<g opacity="0.55">
<path opacity="0.55" d="M112.347 134.998C113.294 133.438 113.77 131.639 113.719 129.816C113.667 127.992 113.089 126.223 112.056 124.72C111.712 124.942 111.303 125.04 110.897 124.996C110.49 124.953 110.111 124.771 109.822 124.482C109.533 124.192 109.353 123.812 109.311 123.406C109.268 122.999 109.367 122.59 109.59 122.248C107.775 121.001 105.581 120.428 103.388 120.626C101.195 120.823 99.1397 121.78 97.5764 123.331C98.2756 122.187 99.2094 121.205 100.316 120.449C101.423 119.693 102.677 119.18 103.997 118.944C105.316 118.708 106.671 118.755 107.971 119.081C109.271 119.408 110.487 120.006 111.539 120.837C112.591 121.668 113.455 122.712 114.073 123.901C114.692 125.09 115.051 126.397 115.128 127.735C115.204 129.074 114.996 130.413 114.516 131.665C114.037 132.917 113.298 134.052 112.347 134.998Z" fill="white"/>
</g>
<path d="M105.674 133.393C108.42 133.393 110.646 131.167 110.646 128.421C110.646 125.675 108.42 123.449 105.674 123.449C102.928 123.449 100.701 125.675 100.701 128.421C100.701 131.167 102.928 133.393 105.674 133.393Z" fill="#5F8049"/>
<g opacity="0.55">
<path opacity="0.55" d="M109.139 131.956C108.332 132.973 107.158 133.632 105.87 133.793C104.582 133.954 103.282 133.604 102.25 132.817C102.027 132.944 101.766 132.989 101.513 132.944C101.26 132.899 101.031 132.766 100.866 132.57C100.701 132.373 100.61 132.125 100.609 131.868C100.608 131.611 100.697 131.362 100.861 131.164C100.361 130.213 100.183 129.125 100.355 128.064C100.526 127.004 101.038 126.027 101.813 125.282C101.052 126.271 100.69 127.509 100.8 128.752C100.91 129.994 101.483 131.15 102.405 131.99C103.327 132.83 104.531 133.293 105.779 133.287C107.026 133.28 108.225 132.805 109.139 131.956Z" fill="white"/>
</g>
<path d="M92.5 143.317C97.7391 143.317 101.986 139.07 101.986 133.831C101.986 128.592 97.7391 124.345 92.5 124.345C87.261 124.345 83.0139 128.592 83.0139 133.831C83.0139 139.07 87.261 143.317 92.5 143.317Z" fill="#57BE6E"/>
<g opacity="0.55">
<path opacity="0.55" d="M99.1806 140.407C100.123 138.847 100.597 137.048 100.545 135.225C100.494 133.403 99.9186 131.634 98.8889 130.129C98.5451 130.347 98.1374 130.441 97.7329 130.396C97.3285 130.352 96.9513 130.17 96.6635 129.883C96.3758 129.595 96.1945 129.218 96.1497 128.813C96.1048 128.409 96.199 128.001 96.4167 127.657C94.6012 126.411 92.4078 125.837 90.2147 126.035C88.0215 126.233 85.9661 127.19 84.4028 128.74C85.0996 127.591 86.0328 126.602 87.1405 125.841C88.2482 125.079 89.5052 124.562 90.828 124.323C92.1509 124.084 93.5094 124.128 94.8137 124.454C96.1179 124.78 97.338 125.379 98.3931 126.212C99.4482 127.045 100.314 128.093 100.934 129.286C101.553 130.479 101.912 131.79 101.987 133.132C102.061 134.474 101.849 135.817 101.366 137.071C100.882 138.325 100.137 139.463 99.1806 140.407Z" fill="white"/>
</g>
<path d="M92.5001 138.803C95.2461 138.803 97.4723 136.577 97.4723 133.831C97.4723 131.085 95.2461 128.858 92.5001 128.858C89.754 128.858 87.5278 131.085 87.5278 133.831C87.5278 136.577 89.754 138.803 92.5001 138.803Z" fill="#5F8049"/>
<g opacity="0.55">
<path opacity="0.55" d="M95.9723 137.393C95.1652 138.41 93.9917 139.07 92.7037 139.231C91.4156 139.392 90.1158 139.041 89.0834 138.254C88.8603 138.382 88.5996 138.427 88.3467 138.382C88.0939 138.336 87.8648 138.204 87.6996 138.007C87.5343 137.811 87.4433 137.562 87.4424 137.305C87.4415 137.049 87.5307 136.8 87.6945 136.602C87.317 135.892 87.1213 135.1 87.1251 134.296C87.1238 133.628 87.258 132.967 87.5194 132.352C87.7807 131.738 88.164 131.182 88.6459 130.72C87.8655 131.708 87.4891 132.955 87.5925 134.21C87.6959 135.465 88.2715 136.634 89.203 137.48C90.1346 138.327 91.3528 138.789 92.6118 138.773C93.8707 138.757 95.0766 138.264 95.9862 137.393H95.9723Z" fill="white"/>
</g>
<path d="M93.1945 156.866C98.4335 156.866 102.681 152.619 102.681 147.38C102.681 142.141 98.4335 137.894 93.1945 137.894C87.9555 137.894 83.7084 142.141 83.7084 147.38C83.7084 152.619 87.9555 156.866 93.1945 156.866Z" fill="#57BE6E"/>
<g opacity="0.55">
<path opacity="0.55" d="M99.8751 153.956C100.818 152.395 101.292 150.597 101.24 148.774C101.188 146.952 100.613 145.183 99.5834 143.678C99.2396 143.896 98.8319 143.99 98.4274 143.945C98.0229 143.9 97.6458 143.719 97.358 143.431C97.0702 143.144 96.889 142.766 96.8441 142.362C96.7993 141.957 96.8935 141.55 97.1112 141.206C95.2957 139.96 93.1023 139.386 90.9091 139.584C88.716 139.782 86.6606 140.738 85.0973 142.289C85.7941 141.14 86.7273 140.151 87.835 139.39C88.9427 138.628 90.1996 138.111 91.5225 137.871C92.8453 137.632 94.2039 137.677 95.5081 138.003C96.8124 138.329 98.0325 138.928 99.0876 139.761C100.143 140.594 101.009 141.642 101.628 142.835C102.248 144.028 102.607 145.339 102.681 146.681C102.756 148.023 102.544 149.366 102.06 150.62C101.576 151.874 100.832 153.011 99.8751 153.956Z" fill="white"/>
</g>
<path d="M93.1945 152.352C95.9406 152.352 98.1667 150.126 98.1667 147.379C98.1667 144.633 95.9406 142.407 93.1945 142.407C90.4484 142.407 88.2223 144.633 88.2223 147.379C88.2223 150.126 90.4484 152.352 93.1945 152.352Z" fill="#5F8049"/>
<g opacity="0.55">
<path opacity="0.55" d="M96.6667 150.942C95.8585 151.959 94.6838 152.619 93.3946 152.78C92.1054 152.941 90.8045 152.59 89.7709 151.803C89.5478 151.931 89.2871 151.976 89.0343 151.93C88.7814 151.885 88.5524 151.753 88.3871 151.556C88.2219 151.36 88.1308 151.111 88.1299 150.854C88.129 150.597 88.2182 150.348 88.382 150.15C87.8815 149.199 87.7043 148.11 87.8772 147.049C88.0501 145.988 88.5637 145.012 89.3404 144.269C88.56 145.257 88.1835 146.504 88.2869 147.759C88.3904 149.013 88.9659 150.182 89.8975 151.029C90.8291 151.876 92.0473 152.338 93.3062 152.322C94.5652 152.306 95.7711 151.813 96.6806 150.942H96.6667Z" fill="white"/>
</g>
<path d="M97.3238 167.124C101.897 164.11 103.444 158.391 100.781 154.35C98.1169 150.308 92.2505 149.476 87.6777 152.49C83.1048 155.504 81.5572 161.223 84.2209 165.265C86.8846 169.306 92.751 170.139 97.3238 167.124Z" fill="#57BE6E"/>
<g opacity="0.55">
<path opacity="0.55" d="M94.8473 150.879C92.9752 151.064 91.1815 151.724 89.6366 152.797C88.0917 153.871 86.847 155.321 86.0209 157.011C87.7987 157.616 86.9862 160.296 85.1181 160.345C84.9644 162.132 85.4143 163.919 86.3959 165.421C87.0485 166.393 87.9019 167.214 88.8986 167.829C89.8952 168.443 91.012 168.837 92.1737 168.984C90.6235 169.169 89.0521 168.929 87.628 168.289C86.2039 167.65 84.981 166.634 84.0904 165.352C81.4237 161.317 82.9723 155.595 87.5626 152.581C89.6996 151.139 92.2925 150.533 94.8473 150.879Z" fill="white"/>
</g>
<path d="M95.0307 163.645C97.4292 162.064 98.2408 159.064 96.8436 156.944C95.4463 154.825 92.3692 154.388 89.9707 155.969C87.5722 157.549 86.7605 160.55 88.1578 162.669C89.5551 164.789 92.6322 165.226 95.0307 163.645Z" fill="#5F8049"/>
<g opacity="0.55">
<path opacity="0.55" d="M93.8472 155.088C94.5595 155.09 95.2604 155.266 95.8896 155.6C96.5187 155.934 97.0571 156.416 97.4583 157.005C98.0157 157.86 98.245 158.889 98.1042 159.9C99.2222 160.324 98.5764 162.06 97.3681 161.942C96.9295 162.649 96.3417 163.251 95.6458 163.706C94.5034 164.477 93.1132 164.792 91.75 164.588C92.9165 164.623 94.0649 164.293 95.0347 163.643C97.4306 162.067 98.2431 159.067 96.8403 156.949C96.5012 156.445 96.0592 156.018 95.5433 155.698C95.0273 155.377 94.4493 155.169 93.8472 155.088Z" fill="white"/>
</g>
<path d="M99.5695 157.414C104.809 157.414 109.056 153.167 109.056 147.928C109.056 142.689 104.809 138.442 99.5695 138.442C94.3305 138.442 90.0834 142.689 90.0834 147.928C90.0834 153.167 94.3305 157.414 99.5695 157.414Z" fill="#57BE6E"/>
<g opacity="0.55">
<path opacity="0.55" d="M106.25 154.504C107.197 152.945 107.673 151.146 107.621 149.322C107.57 147.499 106.992 145.73 105.958 144.227C105.615 144.449 105.206 144.546 104.8 144.503C104.393 144.46 104.014 144.278 103.725 143.989C103.436 143.699 103.256 143.319 103.213 142.913C103.171 142.506 103.27 142.097 103.493 141.754C101.678 140.508 99.4842 139.935 97.2911 140.132C95.0979 140.33 93.0425 141.287 91.4792 142.838C92.1785 141.694 93.1122 140.712 94.219 139.956C95.3257 139.199 96.5803 138.687 97.8998 138.451C99.2193 138.215 100.574 138.262 101.874 138.588C103.174 138.915 104.39 139.513 105.442 140.344C106.494 141.175 107.358 142.219 107.976 143.408C108.595 144.597 108.954 145.904 109.03 147.242C109.107 148.581 108.898 149.92 108.419 151.172C107.94 152.423 107.201 153.559 106.25 154.504Z" fill="white"/>
</g>
<path d="M99.5695 152.9C102.316 152.9 104.542 150.674 104.542 147.928C104.542 145.182 102.316 142.956 99.5695 142.956C96.8234 142.956 94.5973 145.182 94.5973 147.928C94.5973 150.674 96.8234 152.9 99.5695 152.9Z" fill="#5F8049"/>
<g opacity="0.55">
<path opacity="0.55" d="M103.035 151.49C102.228 152.507 101.054 153.167 99.7662 153.328C98.4781 153.489 97.1783 153.138 96.1459 152.352C95.9228 152.479 95.6621 152.524 95.4092 152.479C95.1564 152.434 94.9273 152.301 94.7621 152.105C94.5968 151.908 94.5058 151.659 94.5049 151.403C94.504 151.146 94.5932 150.897 94.757 150.699C94.2567 149.748 94.079 148.66 94.2506 147.599C94.4222 146.538 94.9338 145.562 95.7084 144.817C94.928 145.805 94.5516 147.052 94.655 148.307C94.7584 149.562 95.334 150.731 96.2655 151.578C97.1971 152.425 98.4153 152.887 99.6743 152.87C100.933 152.854 102.139 152.361 103.049 151.49H103.035Z" fill="white"/>
</g>
<path d="M125.181 149.115L109.681 154.636L105.569 138.706L111.278 136.983L123.403 143.421L125.181 149.115Z" fill="#706E71"/>
<g opacity="0.55">
<path opacity="0.55" d="M109.681 154.637L119.646 146.178L119.653 141.428L123.403 143.421L125.181 149.116L109.681 154.637Z" fill="white"/>
</g>
<g opacity="0.55">
<path opacity="0.55" d="M125.181 149.115L123.674 149.657L121.993 144.254L109.868 137.824L105.667 139.088L105.569 138.706L111.278 136.983L123.403 143.421L125.181 149.115Z" fill="white"/>
</g>
<g opacity="0.3">
<path opacity="0.3" d="M109.681 154.636L105.569 138.706L111.278 136.983L115.028 138.976L111.097 141.643L109.681 154.636Z" fill="#303529"/>
</g>
<path d="M116.068 151.497L113.478 152.558C112.733 152.863 112.376 153.715 112.682 154.46L117.926 167.261C118.232 168.006 119.084 168.363 119.829 168.057L122.419 166.996C123.164 166.691 123.52 165.839 123.215 165.094L117.97 152.293C117.665 151.548 116.813 151.192 116.068 151.497Z" fill="#57BE6E"/>
<g opacity="0.55">
<path opacity="0.55" d="M113.734 156.83L114.645 159.053L119.715 156.976L118.804 154.753L113.734 156.83Z" fill="white"/>
</g>
<path d="M116.805 164.315L118.487 168.421L123.557 166.344L121.875 162.237L116.805 164.315Z" fill="#5F8049"/>
<g opacity="0.55">
<path opacity="0.55" d="M112.934 154.566L113.463 155.857L118.533 153.78L118.004 152.488L112.934 154.566Z" fill="white"/>
</g>
<path d="M112.839 160.266C113.323 155.474 109.32 151.146 103.898 150.598C98.476 150.05 93.6882 153.491 93.2041 158.283C92.7201 163.074 96.7232 167.403 102.145 167.951C107.567 168.498 112.355 165.058 112.839 160.266Z" fill="#57BE6E"/>
<g opacity="0.55">
<path opacity="0.55" d="M111.618 154.025C110.128 153.028 108.416 152.411 106.632 152.227C104.671 152.014 102.69 152.343 100.903 153.178C101.896 154.768 99.5765 156.324 98.1251 155.178C96.8703 156.462 96.0829 158.13 95.889 159.914C95.7797 161.079 95.9201 162.254 96.3009 163.361C96.6817 164.467 97.2941 165.48 98.0973 166.331C96.7808 165.492 95.7174 164.311 95.0213 162.914C94.3251 161.517 94.0225 159.957 94.1459 158.4C94.6529 153.588 99.4792 150.143 104.924 150.713C107.485 150.962 109.867 152.14 111.618 154.025Z" fill="white"/>
</g>
<path d="M109.318 159.979C109.582 157.454 107.48 155.165 104.623 154.866C101.766 154.567 99.2357 156.372 98.9717 158.897C98.7076 161.423 100.81 163.712 103.667 164.011C106.524 164.309 109.054 162.505 109.318 159.979Z" fill="#5F8049"/>
<g opacity="0.55">
<path opacity="0.55" d="M108.181 156.65C108.724 157.109 109.148 157.692 109.416 158.35C109.685 159.008 109.79 159.721 109.722 160.428C109.611 161.444 109.138 162.386 108.389 163.081C108.986 164.109 107.382 165.046 106.528 164.185C105.741 164.458 104.904 164.553 104.076 164.463C102.704 164.333 101.431 163.694 100.507 162.671C101.383 163.44 102.479 163.914 103.639 164.025C106.493 164.324 109.021 162.518 109.285 159.991C109.347 159.388 109.28 158.778 109.09 158.202C108.9 157.627 108.59 157.098 108.181 156.65Z" fill="white"/>
</g>
<path d="M174.507 83.0531V162.581C174.507 164.002 174.053 165.386 173.211 166.53C172.369 167.675 171.183 168.52 169.826 168.942L130.014 181.366C129.648 181.48 129.266 181.539 128.882 181.539C127.89 181.534 126.94 181.137 126.239 180.434C125.538 179.732 125.143 178.781 125.139 177.789V67.6017C125.139 66.6089 125.532 65.6564 126.232 64.9525C126.932 64.2485 127.882 63.8502 128.875 63.8447H128.924C129.301 63.8476 129.676 63.9085 130.035 64.0253L169.861 76.7058C171.209 77.1344 172.385 77.9803 173.22 79.1213C174.055 80.2622 174.506 81.6391 174.507 83.0531Z" fill="#727C6A"/>
<g opacity="0.55">
<path opacity="0.55" d="M174.507 83.06V85.9906C174.506 84.5766 174.055 83.1997 173.22 82.0588C172.385 80.9178 171.209 80.0719 169.861 79.6433L130.035 66.9558C129.676 66.8412 129.301 66.7826 128.924 66.7822H128.875C127.882 66.7877 126.932 67.186 126.232 67.8899C125.532 68.5939 125.139 69.5464 125.139 70.5392V67.6017C125.141 66.6094 125.534 65.658 126.234 64.9545C126.934 64.2509 127.883 63.852 128.875 63.8447H128.924C129.301 63.851 129.675 63.9118 130.035 64.0253L169.861 76.7058C171.209 77.1357 172.386 77.9829 173.221 79.1251C174.056 80.2672 174.506 81.6452 174.507 83.06Z" fill="white"/>
</g>
<path d="M128.882 181.539L123.597 181.477H122.139C121.296 181.297 120.54 180.832 119.999 180.16C119.457 179.489 119.164 178.652 119.167 177.789V67.5046C119.195 66.6231 119.531 65.7794 120.117 65.1207C120.704 64.462 121.503 64.0301 122.375 63.9004H123.41H128.875C127.9 63.9073 126.966 64.2929 126.27 64.9758C125.574 65.6587 125.171 66.5854 125.146 67.5601C125.142 67.5924 125.142 67.625 125.146 67.6573V177.789C125.15 178.78 125.544 179.73 126.243 180.432C126.943 181.134 127.891 181.532 128.882 181.539Z" fill="#646D5C"/>
<path d="M114.076 75.6504H119.167V171.13H114.076C113.43 171.131 112.809 170.878 112.348 170.424C111.888 169.97 111.625 169.352 111.618 168.706V78.1226C111.615 77.7984 111.677 77.4768 111.799 77.1765C111.922 76.8762 112.103 76.6032 112.331 76.3733C112.56 76.1433 112.832 75.9611 113.131 75.837C113.431 75.7129 113.752 75.6495 114.076 75.6504Z" fill="#3F413C"/>
<g opacity="0.55">
<path opacity="0.55" d="M119.167 75.7061V80.7269H114.076C113.424 80.7269 112.799 80.9859 112.338 81.4469C111.877 81.908 111.618 82.5332 111.618 83.1852V78.1575C111.618 77.8349 111.682 77.5156 111.805 77.2177C111.929 76.9199 112.11 76.6493 112.338 76.4216C112.567 76.1939 112.838 76.0135 113.136 75.8907C113.434 75.7679 113.754 75.7052 114.076 75.7061H119.167Z" fill="white"/>
</g>
<path d="M169.056 88.9002V156.629C169.09 157.743 168.778 158.839 168.164 159.768C167.55 160.697 166.663 161.413 165.625 161.817L136.458 170.977C136.19 171.069 135.909 171.116 135.625 171.115C134.857 171.071 134.138 170.724 133.625 170.152C133.111 169.58 132.844 168.828 132.882 168.06V77.3099C132.842 76.5426 133.107 75.7906 133.62 75.2181C134.133 74.6457 134.851 74.2992 135.618 74.2544H135.653C135.932 74.2561 136.209 74.3054 136.472 74.4002L165.639 83.7683C166.665 84.1715 167.543 84.8797 168.154 85.7974C168.765 86.7151 169.079 87.798 169.056 88.9002Z" fill="#88957E"/>
<g opacity="0.55">
<path opacity="0.55" d="M169.056 88.9002V91.4905C169.087 90.3851 168.778 89.2967 168.169 88.3735C167.56 87.4503 166.681 86.737 165.653 86.3308L136.486 76.9627C136.223 76.869 135.946 76.8175 135.667 76.8099H135.632C134.865 76.8583 134.148 77.2068 133.636 77.7799C133.124 78.3531 132.858 79.1048 132.896 79.8724V77.303C132.858 76.5368 133.124 75.7866 133.637 75.2156C134.149 74.6447 134.866 74.2992 135.632 74.2544H135.667C135.946 74.2561 136.223 74.3054 136.486 74.4002L165.653 83.7683C166.677 84.1729 167.552 84.8819 168.161 85.7995C168.769 86.7172 169.082 87.7995 169.056 88.9002Z" fill="white"/>
</g>
<path d="M153.938 135.977C158.475 135.977 162.153 129.678 162.153 121.907C162.153 114.137 158.475 107.838 153.938 107.838C149.4 107.838 145.722 114.137 145.722 121.907C145.722 129.678 149.4 135.977 153.938 135.977Z" fill="white"/>
<g opacity="0.3">
<path opacity="0.3" d="M162.153 121.907C162.153 129.678 158.479 135.977 153.938 135.977C149.396 135.977 145.729 129.678 145.729 121.907C145.728 120.855 145.796 119.804 145.931 118.761C146.764 125.011 150.035 129.685 153.938 129.685C157.84 129.685 161.111 125.011 161.945 118.761C162.085 119.804 162.155 120.855 162.153 121.907Z" fill="#19191A"/>
</g>
<g opacity="0.55">
<path opacity="0.55" d="M160.549 130.262C161.155 128.187 161.457 126.034 161.444 123.873C161.444 116.102 157.764 109.796 153.229 109.796C150.521 109.796 148.118 112.046 146.625 115.512C148.014 110.956 150.743 107.831 153.938 107.831C158.479 107.831 162.153 114.137 162.153 121.907C162.187 124.772 161.642 127.614 160.549 130.262Z" fill="white"/>
</g>
<path d="M165.972 121.907C165.972 126.22 163.938 129.713 161.417 129.713C160.063 129.713 158.847 128.706 158.014 127.109C157.248 125.479 156.851 123.701 156.851 121.901C156.851 120.1 157.248 118.322 158.014 116.692C158.847 115.088 160.063 114.081 161.417 114.081C163.965 114.095 165.972 117.595 165.972 121.907Z" fill="#57BE6E"/>
<path d="M161.444 129.873C160.056 129.873 158.792 128.893 157.903 127.178C157.13 125.527 156.729 123.727 156.729 121.904C156.729 120.081 157.13 118.28 157.903 116.629C158.792 114.921 160.083 113.935 161.444 113.935C164.042 113.935 166.16 117.511 166.16 121.907C166.16 126.303 164.042 129.873 161.444 129.873ZM161.444 114.254C160.208 114.254 159.014 115.171 158.188 116.775C157.433 118.38 157.042 120.131 157.042 121.904C157.042 123.677 157.433 125.428 158.188 127.032C159.014 128.636 160.208 129.56 161.444 129.56C163.868 129.56 165.847 126.088 165.847 121.921C165.847 117.755 163.889 114.254 161.444 114.254Z" fill="#57BE6E"/>
<g opacity="0.55">
<path opacity="0.55" d="M165.021 126.754C165.248 125.782 165.362 124.787 165.361 123.789C165.361 119.477 163.32 115.977 160.799 115.977C159.41 115.977 158.236 116.991 157.403 118.588C157.34 118.706 157.278 118.831 157.222 118.956C157.402 118.175 157.677 117.419 158.042 116.706C158.875 115.109 160.09 114.095 161.445 114.095C163.965 114.095 166 117.567 166 121.907C166.02 123.574 165.686 125.226 165.021 126.754Z" fill="white"/>
</g>
<path d="M161.444 129.72H154.646C152.563 129.72 150.84 127.365 150.278 124.164C150.148 123.423 150.083 122.673 150.083 121.921C150.065 120.279 150.392 118.651 151.042 117.143C151.875 115.296 153.181 114.108 154.646 114.108H161.444C160.09 114.108 158.875 115.122 158.042 116.72C157.972 116.858 157.91 116.997 157.84 117.143C157.19 118.651 156.864 120.279 156.882 121.921C156.882 122.673 156.947 123.423 157.076 124.164C157.247 125.193 157.573 126.19 158.042 127.122C158.875 128.706 160.09 129.72 161.444 129.72Z" fill="#57BE6E"/>
<path d="M161.444 129.873H154.646C152.563 129.873 150.715 127.581 150.118 124.178C149.989 123.428 149.924 122.668 149.924 121.907C149.903 120.237 150.234 118.581 150.896 117.046C151.792 115.067 153.16 113.928 154.646 113.928H161.444V114.241C160.208 114.241 159.014 115.157 158.188 116.762C158.111 116.9 158.049 117.039 157.986 117.178C157.341 118.665 157.019 120.273 157.042 121.893C157.04 122.636 157.103 123.377 157.229 124.109C157.398 125.122 157.721 126.103 158.188 127.018C159.014 128.623 160.208 129.546 161.444 129.546V129.873ZM154.646 114.255C153.257 114.255 152.028 115.324 151.174 117.192C150.536 118.681 150.216 120.287 150.236 121.907C150.235 122.65 150.297 123.391 150.424 124.123C150.986 127.324 152.715 129.56 154.639 129.56H160.118C159.144 129.022 158.366 128.187 157.896 127.178C157.429 126.232 157.108 125.221 156.944 124.178C156.812 123.429 156.747 122.669 156.75 121.907C156.724 120.237 157.053 118.58 157.715 117.046L157.924 116.616C158.395 115.61 159.173 114.778 160.146 114.241L154.646 114.255Z" fill="#57BE6E"/>
<g opacity="0.55">
<path opacity="0.55" d="M161.445 114.095C160.09 114.095 158.875 115.109 158.042 116.706C157.972 116.845 157.91 116.984 157.84 117.129H151.042C151.875 115.282 153.181 114.095 154.646 114.095H161.445Z" fill="white"/>
</g>
<path d="M176.618 105.602C176.066 105.602 175.536 105.382 175.145 104.991C174.754 104.601 174.535 104.071 174.535 103.518V90.2196C174.53 89.9431 174.581 89.6685 174.683 89.4117C174.786 89.1549 174.939 88.9211 175.132 88.724C175.326 88.5268 175.558 88.3703 175.813 88.2634C176.068 88.1565 176.342 88.1015 176.618 88.1016C176.895 88.1015 177.168 88.1565 177.423 88.2634C177.678 88.3703 177.91 88.5268 178.104 88.724C178.298 88.9211 178.45 89.1549 178.553 89.4117C178.655 89.6685 178.706 89.9431 178.701 90.2196V103.484C178.706 103.76 178.655 104.035 178.553 104.291C178.45 104.548 178.298 104.782 178.104 104.979C177.91 105.176 177.678 105.333 177.423 105.44C177.168 105.547 176.895 105.602 176.618 105.602Z" fill="white"/>
<g opacity="0.55">
<path opacity="0.55" d="M178.736 90.2196V93.6362C178.736 93.0754 178.513 92.5376 178.117 92.141C177.72 91.7444 177.182 91.5216 176.622 91.5216C176.061 91.5216 175.523 91.7444 175.126 92.141C174.73 92.5376 174.507 93.0754 174.507 93.6362V90.2196C174.507 89.6587 174.73 89.1209 175.126 88.7243C175.523 88.3278 176.061 88.105 176.622 88.105C177.182 88.105 177.72 88.3278 178.117 88.7243C178.513 89.1209 178.736 89.6587 178.736 90.2196Z" fill="white"/>
</g>
<path d="M176.618 158.407C176.342 158.407 176.068 158.352 175.813 158.245C175.558 158.139 175.326 157.982 175.132 157.785C174.939 157.588 174.786 157.354 174.683 157.097C174.581 156.84 174.53 156.566 174.535 156.289V143.018C174.535 142.466 174.754 141.936 175.145 141.545C175.536 141.155 176.066 140.935 176.618 140.935C177.171 140.935 177.7 141.155 178.091 141.545C178.482 141.936 178.701 142.466 178.701 143.018V156.261C178.71 156.54 178.662 156.818 178.561 157.078C178.46 157.338 178.308 157.575 178.114 157.775C177.919 157.975 177.687 158.134 177.43 158.243C177.173 158.352 176.897 158.407 176.618 158.407Z" fill="white"/>
<g opacity="0.55">
<path opacity="0.55" d="M178.736 143.018V147.817C178.736 147.256 178.513 146.718 178.117 146.322C177.72 145.925 177.182 145.702 176.622 145.702C176.061 145.702 175.523 145.925 175.126 146.322C174.73 146.718 174.507 147.256 174.507 147.817V143.018C174.507 142.458 174.73 141.92 175.126 141.523C175.523 141.127 176.061 140.904 176.622 140.904C177.182 140.904 177.72 141.127 178.117 141.523C178.513 141.92 178.736 142.458 178.736 143.018Z" fill="white"/>
</g>
<path d="M181.028 186.178C186.267 186.178 190.514 181.931 190.514 176.692C190.514 171.453 186.267 167.206 181.028 167.206C175.789 167.206 171.542 171.453 171.542 176.692C171.542 181.931 175.789 186.178 181.028 186.178Z" fill="#57BE6E"/>
<g opacity="0.55">
<path opacity="0.55" d="M187.708 183.268C188.651 181.706 189.125 179.907 189.073 178.083C189.021 176.26 188.446 174.489 187.417 172.984C187.073 173.201 186.665 173.295 186.261 173.251C185.856 173.206 185.479 173.024 185.191 172.737C184.904 172.449 184.722 172.072 184.678 171.667C184.633 171.263 184.727 170.855 184.945 170.511C183.127 169.27 180.935 168.7 178.743 168.897C176.552 169.095 174.497 170.049 172.931 171.595C173.629 170.448 174.563 169.462 175.671 168.703C176.779 167.944 178.035 167.429 179.357 167.192C180.678 166.955 182.035 167.001 183.338 167.327C184.64 167.654 185.859 168.253 186.913 169.085C187.966 169.918 188.831 170.964 189.45 172.156C190.069 173.347 190.428 174.657 190.504 175.998C190.579 177.338 190.369 178.68 189.887 179.933C189.405 181.186 188.662 182.323 187.708 183.268Z" fill="white"/>
</g>
<path d="M181.028 181.664C183.774 181.664 186 179.438 186 176.692C186 173.946 183.774 171.72 181.028 171.72C178.282 171.72 176.056 173.946 176.056 176.692C176.056 179.438 178.282 181.664 181.028 181.664Z" fill="#5F8049"/>
<g opacity="0.55">
<path opacity="0.55" d="M184.5 180.254C183.689 181.267 182.515 181.923 181.227 182.084C179.939 182.245 178.64 181.897 177.604 181.115C177.38 181.237 177.121 181.277 176.871 181.229C176.621 181.181 176.395 181.049 176.232 180.853C176.068 180.658 175.977 180.412 175.974 180.157C175.971 179.903 176.056 179.655 176.215 179.456C175.719 178.503 175.545 177.416 175.717 176.356C175.89 175.295 176.401 174.32 177.174 173.574C176.382 174.561 175.996 175.812 176.095 177.073C176.194 178.335 176.77 179.511 177.705 180.363C178.641 181.214 179.866 181.677 181.131 181.657C182.396 181.637 183.606 181.135 184.514 180.254H184.5Z" fill="white"/>
</g>
<path d="M203.479 179.657H188.09C187.197 179.657 186.472 180.382 186.472 181.275V184.393C186.472 185.287 187.197 186.011 188.09 186.011H203.479C204.373 186.011 205.097 185.287 205.097 184.393V181.275C205.097 180.382 204.373 179.657 203.479 179.657Z" fill="#57BE6E"/>
<g opacity="0.55">
<path opacity="0.55" d="M200.597 179.727H197.931V185.817H200.597V179.727Z" fill="white"/>
</g>
<path d="M191.611 179.727H186.674V185.817H191.611V179.727Z" fill="#5F8049"/>
<g opacity="0.55">
<path opacity="0.55" d="M203.271 179.858H201.715V185.949H203.271V179.858Z" fill="white"/>
</g>
<path d="M75.1667 179.657H59.7778C58.8842 179.657 58.1598 180.382 58.1598 181.275V184.393C58.1598 185.287 58.8842 186.011 59.7778 186.011H75.1667C76.0604 186.011 76.7848 185.287 76.7848 184.393V181.275C76.7848 180.382 76.0604 179.657 75.1667 179.657Z" fill="#57BE6E"/>
<g opacity="0.55">
<path opacity="0.55" d="M72.2847 179.727H69.618V185.817H72.2847V179.727Z" fill="white"/>
</g>
<path d="M63.2987 179.727H58.3612V185.817H63.2987V179.727Z" fill="#5F8049"/>
<g opacity="0.55">
<path opacity="0.55" d="M74.9584 179.858H73.4028V185.949H74.9584V179.858Z" fill="white"/>
</g>
<path d="M59.7752 172.737L46.1189 179.831C45.3258 180.243 45.0169 181.22 45.4289 182.013L46.8662 184.78C47.2782 185.573 48.255 185.882 49.048 185.47L62.7043 178.376C63.4973 177.964 63.8062 176.987 63.3943 176.194L61.9569 173.427C61.545 172.634 60.5682 172.325 59.7752 172.737Z" fill="#57BE6E"/>
<g opacity="0.55">
<path opacity="0.55" d="M57.2485 174.128L54.8821 175.357L57.6895 180.762L60.056 179.532L57.2485 174.128Z" fill="white"/>
</g>
<path d="M49.2764 178.268L44.8948 180.544L47.7022 185.949L52.0838 183.673L49.2764 178.268Z" fill="#5F8049"/>
<g opacity="0.55">
<path opacity="0.55" d="M59.6877 173.007L58.3073 173.724L61.1147 179.129L62.4951 178.412L59.6877 173.007Z" fill="white"/>
</g>
<path d="M198.674 173.303H183.285C182.391 173.303 181.667 174.028 181.667 174.921V178.039C181.667 178.933 182.391 179.657 183.285 179.657H198.674C199.567 179.657 200.292 178.933 200.292 178.039V174.921C200.292 174.028 199.567 173.303 198.674 173.303Z" fill="#57BE6E"/>
<g opacity="0.55">
<path opacity="0.55" d="M195.792 173.373H193.125V179.463H195.792V173.373Z" fill="white"/>
</g>
<path d="M186.799 173.373H181.861V179.463H186.799V173.373Z" fill="#5F8049"/>
<g opacity="0.55">
<path opacity="0.55" d="M198.465 173.504H196.91V179.595H198.465V173.504Z" fill="white"/>
</g>
<path d="M203.479 166.852H188.09C187.197 166.852 186.472 167.576 186.472 168.47V171.588C186.472 172.481 187.197 173.206 188.09 173.206H203.479C204.373 173.206 205.097 172.481 205.097 171.588V168.47C205.097 167.576 204.373 166.852 203.479 166.852Z" fill="#57BE6E"/>
<g opacity="0.55">
<path opacity="0.55" d="M200.597 166.921H197.931V173.011H200.597V166.921Z" fill="white"/>
</g>
<path d="M191.611 166.921H186.674V173.011H191.611V166.921Z" fill="#5F8049"/>
<g opacity="0.55">
<path opacity="0.55" d="M203.271 167.053H201.715V173.144H203.271V167.053Z" fill="white"/>
</g>
</g>
<defs>
<filter id="filter0_f_1056_2" x="38.452" y="41.4907" width="166.337" height="161.584" filterUnits="userSpaceOnUse" color-interpolation-filters="sRGB">
<feFlood flood-opacity="0" result="BackgroundImageFix"/>
<feBlend mode="normal" in="SourceGraphic" in2="BackgroundImageFix" result="shape"/>
<feGaussianBlur stdDeviation="25" result="effect1_foregroundBlur_1056_2"/>
</filter>
<clipPath id="clip0_1056_2">
<rect width="160.208" height="122.333" fill="white" transform="translate(44.8959 63.8447)"/>
</clipPath>
</defs>
</svg>
