<svg width="21" height="20" viewBox="0 0 21 20" fill="none" xmlns="http://www.w3.org/2000/svg">
<path d="M20.1007 5.90309C20.0895 5.06334 19.9323 4.23193 19.6361 3.44606C19.3793 2.78318 18.987 2.18117 18.4843 1.67849C17.9816 1.17581 17.3796 0.783514 16.7167 0.526666C15.9409 0.235455 15.1214 0.0779923 14.2929 0.0609825C13.2263 0.0133053 12.8881 0 10.1805 0C7.47289 0 7.12584 7.43489e-08 6.06697 0.0609825C5.23889 0.0781174 4.41972 0.235578 3.6443 0.526666C2.98132 0.783335 2.37922 1.17557 1.87651 1.67827C1.37381 2.18097 0.981577 2.78308 0.724908 3.44606C0.433114 4.22124 0.275993 5.04059 0.260333 5.86872C0.212656 6.93647 0.198242 7.27464 0.198242 9.98226C0.198242 12.6899 0.198242 13.0358 0.260333 14.0958C0.276965 14.9252 0.433301 15.7434 0.724908 16.5207C0.982007 17.1835 1.37453 17.7853 1.8774 18.2878C2.38028 18.7903 2.98244 19.1824 3.64541 19.439C4.4187 19.7419 5.23802 19.9106 6.06807 19.9379C7.13582 19.9856 7.474 20 10.1816 20C12.8892 20 13.2363 20 14.2952 19.9379C15.1236 19.9216 15.9432 19.7645 16.7189 19.4733C17.3816 19.2162 17.9835 18.8238 18.4861 18.3211C18.9888 17.8185 19.3812 17.2166 19.6383 16.5539C19.9299 15.7778 20.0863 14.9595 20.1029 14.1291C20.1506 13.0624 20.165 12.7242 20.165 10.0155C20.1628 7.30791 20.1628 6.96419 20.1007 5.90309ZM10.1739 15.1026C7.34205 15.1026 5.048 12.8085 5.048 9.97672C5.048 7.14492 7.34205 4.85087 10.1739 4.85087C11.5333 4.85087 12.8371 5.39091 13.7984 6.3522C14.7597 7.31348 15.2997 8.61726 15.2997 9.97672C15.2997 11.3362 14.7597 12.64 13.7984 13.6012C12.8371 14.5625 11.5333 15.1026 10.1739 15.1026ZM15.5037 5.85653C15.3467 5.85667 15.1912 5.82586 15.0461 5.76584C14.9011 5.70582 14.7692 5.61779 14.6582 5.50677C14.5472 5.39575 14.4592 5.26393 14.3991 5.11885C14.3391 4.97377 14.3083 4.81828 14.3085 4.66127C14.3085 4.50438 14.3394 4.34903 14.3994 4.20408C14.4594 4.05913 14.5474 3.92743 14.6584 3.81649C14.7693 3.70555 14.901 3.61755 15.046 3.55751C15.1909 3.49747 15.3463 3.46657 15.5032 3.46657C15.66 3.46657 15.8154 3.49747 15.9603 3.55751C16.1053 3.61755 16.237 3.70555 16.3479 3.81649C16.4589 3.92743 16.5469 4.05913 16.6069 4.20408C16.667 4.34903 16.6979 4.50438 16.6979 4.66127C16.6979 5.3221 16.1634 5.85653 15.5037 5.85653Z" fill="white"/>
<path d="M10.1739 13.3061C12.0128 13.3061 13.5035 11.8154 13.5035 9.97649C13.5035 8.13758 12.0128 6.64685 10.1739 6.64685C8.33497 6.64685 6.84424 8.13758 6.84424 9.97649C6.84424 11.8154 8.33497 13.3061 10.1739 13.3061Z" fill="white"/>
</svg>
