<svg width="250" height="251" viewBox="0 0 250 251" fill="none" xmlns="http://www.w3.org/2000/svg">
<circle cx="125" cy="125.011" r="123" fill="#141514" stroke="#00C555" stroke-width="4"/>
<mask id="mask0_1056_5" style="mask-type:alpha" maskUnits="userSpaceOnUse" x="2" y="2" width="246" height="246">
<circle cx="125" cy="125.011" r="120.222" fill="#141514" stroke="#00C555" stroke-width="4"/>
</mask>
<g mask="url(#mask0_1056_5)">
<g clip-path="url(#clip0_1056_5)">
<path d="M125.752 247.814C194.117 247.814 249.537 192.535 249.537 124.344C249.537 56.1534 194.117 0.874023 125.752 0.874023C57.3881 0.874023 1.96783 56.1534 1.96783 124.344C1.96783 192.535 57.3881 247.814 125.752 247.814Z" fill="#141514"/>
<path d="M125.752 2.29298C158.205 2.29298 189.328 15.1519 212.275 38.0408C235.223 60.9298 248.114 91.9739 248.114 124.344C248.113 156.713 235.221 187.757 212.274 210.645C200.982 222.049 187.55 231.123 172.743 237.349C157.936 243.575 142.045 246.831 125.976 246.931C109.908 247.032 93.977 243.974 79.0933 237.933C64.2095 231.892 50.6644 222.986 39.2313 211.724C27.7982 200.461 18.701 187.063 12.459 172.294C6.21714 157.524 2.95279 141.673 2.85238 125.646C2.75197 109.618 5.81746 93.7277 11.8738 78.8818C17.9302 64.0358 26.8588 50.5252 38.1499 39.1211C38.5056 38.7592 38.8614 38.4115 39.2313 38.0425C50.5663 26.6726 64.0499 17.6585 78.9014 11.5221C93.7529 5.38559 109.677 2.24869 125.752 2.29298V2.29298ZM125.752 -0.54541C92.5454 -0.54541 60.6984 12.6125 37.2174 36.0338C13.7365 59.455 0.545044 91.2211 0.545044 124.344C0.545044 157.466 13.7365 189.232 37.2174 212.654C60.6984 236.075 92.5454 249.233 125.752 249.233C158.96 249.233 190.807 236.075 214.287 212.654C237.768 189.232 250.96 157.466 250.96 124.344C250.96 107.943 247.721 91.703 241.429 76.5507C235.137 61.3985 225.914 47.6308 214.287 36.0338C202.661 24.4367 188.858 15.2375 173.667 8.96121C158.476 2.68494 142.195 -0.54541 125.752 -0.54541V-0.54541Z" fill="#00C555"/>
<path d="M151.142 85.6851C141.581 85.6851 134.069 92.8733 127.339 102.006L127.047 101.644L126.72 101.239C126.428 100.87 126.137 100.53 125.845 100.161C125.779 100.088 125.718 100.013 125.66 99.9338C125.311 99.5222 124.949 99.1177 124.628 98.7275L124.344 98.401L123.568 97.5282C123.462 97.4218 123.362 97.3083 123.262 97.1947L122.245 96.1161C121.918 95.7755 121.584 95.4065 121.256 95.1156L120.958 94.8247C120.701 94.5763 120.452 94.335 120.196 94.1151L119.926 93.8667C119.599 93.5616 119.272 93.2636 118.944 92.9797L118.759 92.8307C118.489 92.5965 118.219 92.3695 117.941 92.1211L117.642 91.8728L116.86 91.2696C116.789 91.2112 116.716 91.1568 116.639 91.1064L115.672 90.3968L115.423 90.2336C115.174 90.0633 114.918 89.893 114.669 89.7369L114.37 89.5737C114.078 89.3892 113.787 89.2118 113.495 89.0485L113.388 88.9847C113.061 88.8002 112.734 88.6228 112.414 88.4596L112.129 88.3177C111.887 88.1899 111.638 88.0764 111.418 87.9558L111.14 87.828C110.813 87.6861 110.486 87.5442 110.151 87.4165L110.045 87.3739C109.746 87.2604 109.454 87.1468 109.155 87.0475L108.864 86.9481C108.6 86.863 108.344 86.7778 108.088 86.7069L107.839 86.6288C107.512 86.5366 107.178 86.4514 106.843 86.3734L106.623 86.3237L105.812 86.1534L105.506 86.0966L104.645 85.9618H104.474C104.133 85.9121 103.763 85.8766 103.443 85.8483H103.165L102.361 85.7915H100.996C81.9725 85.6851 67.4171 110.322 67.4171 136.407C67.4171 152.728 75.328 163.017 88.5886 163.017C98.1285 163.017 104.951 158.532 117.187 137.259L125.724 122.123L125.795 122.229L126.009 122.584L126.898 124.003L127.261 124.599C127.531 125.039 127.794 125.479 128.064 125.933L128.427 126.529L129.601 128.481L135.292 138.082C146.433 156.68 152.636 162.982 163.891 162.982C176.803 162.982 183.988 152.55 183.988 135.896C184.088 108.612 169.205 85.6851 151.142 85.6851ZM107.896 131.49C98.0076 146.952 94.5857 150.422 89.0795 150.422C83.3882 150.422 80.0446 145.454 80.0446 136.606C80.0446 117.681 89.5063 98.323 100.789 98.323H101.7C101.876 98.3154 102.053 98.3297 102.226 98.3656H102.411L103.123 98.4578H103.222L103.798 98.5713L104.005 98.6139L104.531 98.7487L104.688 98.7913L105.349 99.0042L105.506 99.061L106.032 99.2668L106.231 99.3519L106.808 99.6145L106.907 99.6641C107.128 99.7706 107.355 99.8912 107.576 100.012L107.761 100.125C107.932 100.218 108.102 100.324 108.273 100.43L108.472 100.551L109.184 101.005L109.838 101.488L110.045 101.651L110.578 102.077C110.636 102.133 110.698 102.185 110.763 102.233L111.474 102.85L111.61 102.978L112.2 103.531L112.421 103.751L113.004 104.333C113.054 104.397 113.111 104.447 113.168 104.511C113.41 104.759 113.659 105.029 113.879 105.298C113.943 105.369 114.007 105.447 114.078 105.518L114.662 106.178L114.896 106.455C115.124 106.718 115.345 106.98 115.608 107.257L115.722 107.392C115.985 107.711 116.248 108.037 116.511 108.378C116.597 108.477 116.675 108.584 116.753 108.683L117.365 109.471L117.614 109.804C117.891 110.166 118.169 110.514 118.446 110.918C118.446 110.968 118.525 111.018 118.553 111.067L119.321 112.132L119.606 112.529L119.876 112.919C112.392 124.344 107.896 131.49 107.896 131.49V131.49ZM164.239 150.422C158.612 150.422 155.916 146.71 145.224 129.545L138.38 118.192C137.128 116.155 135.911 114.239 134.716 112.423L134.339 111.841L133.806 111.039C133.557 110.663 133.3 110.273 133.044 109.904C139.212 100.416 144.299 95.7117 150.346 95.7117C162.902 95.7117 172.954 114.161 172.954 136.826C172.954 145.405 170.109 150.422 164.239 150.422V150.422Z" fill="#00C555"/>
<g opacity="0.6">
<path opacity="0.6" d="M246.115 151.557C245.996 151.815 245.78 152.015 245.514 152.116C245.248 152.217 244.953 152.21 244.692 152.096C244.433 151.979 244.23 151.764 244.128 151.499C244.025 151.233 244.031 150.938 244.145 150.677C244.264 150.42 244.48 150.219 244.746 150.118C245.012 150.018 245.307 150.025 245.567 150.138H245.603C245.855 150.263 246.048 150.481 246.142 150.746C246.236 151.011 246.224 151.301 246.108 151.557L249.558 153.218C249.891 152.515 250.057 151.745 250.042 150.968L256.317 150.805C256.246 147.85 255.006 145.044 252.866 142.999L248.527 147.52C247.963 146.98 247.277 146.584 246.528 146.363L248.328 140.367C245.492 139.53 242.44 139.841 239.833 141.233L242.8 146.746C242.113 147.111 241.524 147.637 241.086 148.279L235.914 144.731C234.24 147.159 233.595 150.148 234.121 153.047L240.296 151.926C240.431 152.7 240.751 153.43 241.228 154.055L236.248 157.858C238.054 160.19 240.706 161.719 243.632 162.116L244.479 155.914C245.253 156.014 246.039 155.934 246.777 155.68L248.861 161.584C251.648 160.6 253.933 158.561 255.221 155.907L247.68 152.281L246.115 151.557Z" fill="#5DB169"/>
<path opacity="0.6" d="M192.176 144.681C192.02 145.838 191.942 146.994 191.863 148.158C191.785 149.322 191.771 150.479 191.785 151.642C196.484 152.743 201.248 153.544 206.049 154.041C206.303 157.464 207.004 160.839 208.133 164.082C203.94 166.453 199.9 169.086 196.039 171.965L196.751 173.555L197.519 175.123C198.024 176.159 198.615 177.167 199.184 178.174C203.807 176.79 208.338 175.117 212.75 173.164C214.678 175.998 216.972 178.565 219.573 180.8C217.124 184.946 214.948 189.245 213.056 193.672C213.995 194.381 214.927 195.056 215.902 195.666C216.393 195.978 216.876 196.304 217.374 196.602L218.875 197.433C222.173 193.926 225.247 190.217 228.081 186.327C231.181 187.804 234.456 188.881 237.827 189.535C237.784 194.346 238.048 199.155 238.617 203.933C239.777 204.089 240.936 204.167 242.103 204.245C243.27 204.323 244.429 204.337 245.596 204.323C246.697 199.648 247.5 194.907 248 190.131C251.434 189.888 254.821 189.196 258.074 188.073C260.451 192.256 263.091 196.285 265.978 200.136L267.571 199.427L269.143 198.66C270.182 198.156 271.192 197.575 272.202 197C270.815 192.388 269.137 187.869 267.18 183.468C270.02 181.545 272.594 179.257 274.835 176.663C278.991 179.105 283.302 181.276 287.74 183.163C288.451 182.226 289.12 181.296 289.739 180.324C290.052 179.835 290.379 179.352 290.678 178.855L291.553 177.358C288.038 174.055 284.319 170.974 280.419 168.133V168.133L280.298 168.077L273.511 164.812C269.896 172.327 263.437 178.102 255.554 180.867C247.671 183.632 239.009 183.161 231.474 179.558C223.941 175.952 218.151 169.509 215.379 161.646C212.607 153.783 213.079 145.144 216.691 137.628C216.691 137.585 216.727 137.55 216.748 137.514L209.841 134.193C208.362 137.279 207.286 140.542 206.639 143.901C201.807 143.852 196.976 144.113 192.176 144.681V144.681Z" fill="#5DB169"/>
<path opacity="0.6" d="M298.041 157.631C298.197 156.475 298.275 155.318 298.354 154.154C298.432 152.99 298.446 151.834 298.432 150.677C293.734 149.571 288.97 148.767 284.168 148.272C283.914 144.856 283.213 141.487 282.084 138.252C286.277 135.881 290.317 133.247 294.178 130.368L293.466 128.779L292.698 127.218C292.193 126.175 291.602 125.167 291.033 124.159C286.41 125.543 281.879 127.217 277.467 129.169C275.541 126.337 273.247 123.772 270.644 121.541C273.091 117.392 275.268 113.09 277.161 108.662C276.222 107.952 275.29 107.285 274.315 106.668C273.824 106.356 273.341 106.029 272.843 105.731L271.334 104.858C268.041 108.369 264.967 112.078 262.129 115.964C259.032 114.482 255.756 113.407 252.383 112.763C252.425 107.95 252.162 103.139 251.593 98.3585C250.433 98.2024 249.274 98.1244 248.107 98.0463C246.94 97.9682 245.781 97.9541 244.614 97.9682C243.511 102.643 242.708 107.383 242.21 112.16C238.785 112.414 235.408 113.113 232.164 114.239C229.787 110.056 227.147 106.027 224.261 102.176L222.667 102.886L221.081 103.666C220.042 104.177 219.032 104.759 218.022 105.327C219.409 109.938 221.087 114.458 223.044 118.859C220.204 120.781 217.63 123.07 215.39 125.664C211.233 123.222 206.922 121.051 202.485 119.164C201.773 120.101 201.105 121.03 200.486 122.002C200.173 122.492 199.845 122.974 199.547 123.471L198.672 124.976C202.188 128.264 205.906 131.331 209.805 134.158V134.158L209.926 134.214L216.713 137.479C220.343 129.97 226.815 124.207 234.705 121.458C242.595 118.709 251.257 119.198 258.785 122.818C262.514 124.611 265.853 127.118 268.61 130.198C271.367 133.278 273.489 136.869 274.854 140.766C276.22 144.664 276.802 148.792 276.568 152.914C276.334 157.036 275.288 161.072 273.49 164.791V164.791L280.398 168.112C281.876 165.026 282.952 161.764 283.599 158.405C288.425 158.456 293.248 158.197 298.041 157.631V157.631Z" fill="#5DB169"/>
<path opacity="0.6" d="M282.973 169.368C275.205 185.022 258.337 194.772 240.772 192.891C232.238 191.945 224.192 188.444 217.691 182.848C211.191 177.252 206.542 169.824 204.356 161.541C199.902 144.419 207.201 125.813 221.991 116.127C229.223 111.444 237.715 109.071 246.334 109.324C254.953 109.578 263.289 112.446 270.232 117.546C286.295 129.553 291.446 151.373 282.973 169.397C281.835 171.83 285.598 173.654 286.744 171.206C290.75 162.735 292.109 153.258 290.645 144.006C289.181 134.754 284.961 126.156 278.534 119.327C265.11 105.192 243.326 101.14 225.669 109.393C208.204 117.525 197.284 136.138 199.056 155.346C199.977 164.817 203.784 173.779 209.964 181.028C216.143 188.276 224.4 193.464 233.623 195.893C254.823 201.414 277.111 190.642 286.744 171.241C287.953 168.772 284.182 166.963 282.973 169.368Z" fill="#5DB169"/>
<path opacity="0.6" d="M277.204 144.483L276.99 143.432C276.905 143.092 276.798 142.723 276.698 142.403L276.08 140.36L275.29 138.373C275.148 138.047 275.02 137.713 274.87 137.394L274.386 136.436C271.983 136.861 269.607 137.429 267.272 138.139C264.969 138.853 262.712 139.709 260.514 140.7C260.302 140.354 260.064 140.025 259.803 139.714C259.546 139.402 259.305 139.068 259.034 138.77C258.486 138.168 257.899 137.601 257.277 137.074C256.038 136.011 254.668 135.11 253.201 134.392C253.856 132.087 254.367 129.743 254.73 127.374C254.915 126.182 255.065 124.969 255.178 123.741C255.292 122.513 255.356 121.328 255.392 120.101L253.336 119.476C252.625 119.299 251.913 119.171 251.202 119.029C249.792 118.759 248.366 118.576 246.933 118.483C246.101 120.781 245.41 123.127 244.863 125.508C244.328 127.846 243.947 130.216 243.725 132.604L242.501 132.717C242.103 132.781 241.697 132.874 241.299 132.945L240.694 133.058L240.111 133.228L238.93 133.576L237.799 134.037L237.23 134.264L236.689 134.555C236.326 134.747 235.978 134.917 235.601 135.123L234.576 135.79C232.909 134.059 231.129 132.44 229.248 130.943C227.334 129.415 225.326 128.007 223.236 126.728C222.176 127.69 221.176 128.717 220.241 129.801C219.779 130.354 219.302 130.894 218.875 131.461L217.659 133.228C218.449 134.165 219.245 135.066 220.092 135.953C220.939 136.84 221.821 137.692 222.717 138.515C224.479 140.138 226.34 141.652 228.287 143.049C227.253 145.267 226.633 147.655 226.459 150.095V151.309C226.444 151.716 226.46 152.124 226.509 152.529C224.168 153.12 221.865 153.854 219.615 154.729C217.348 155.617 215.138 156.645 212.999 157.809L213.213 158.859C213.298 159.2 213.405 159.569 213.504 159.888L214.123 161.932L214.913 163.918C215.055 164.245 215.183 164.578 215.333 164.898L215.816 165.856C218.22 165.431 220.595 164.862 222.93 164.153C225.234 163.438 227.491 162.583 229.689 161.591C229.901 161.937 230.139 162.267 230.4 162.577C230.656 162.89 230.898 163.223 231.169 163.521C231.717 164.124 232.304 164.69 232.926 165.217C234.166 166.281 235.535 167.184 237.002 167.906C236.348 170.21 235.837 172.551 235.473 174.917C235.288 176.109 235.138 177.323 235.024 178.55C234.911 179.778 234.846 180.963 234.811 182.191L236.867 182.815C237.578 182.992 238.29 183.12 239.001 183.269C240.411 183.537 241.837 183.717 243.27 183.808C244.101 181.511 244.793 179.165 245.34 176.783C245.875 174.446 246.255 172.075 246.478 169.687L247.702 169.574C248.1 169.517 248.498 169.418 248.904 169.347L249.509 169.233L250.092 169.063L251.273 168.715L252.404 168.254L252.973 168.027L253.514 167.736C253.877 167.544 254.225 167.374 254.602 167.168L255.627 166.501C257.294 168.232 259.074 169.851 260.955 171.348C262.869 172.876 264.877 174.284 266.966 175.563C268.029 174.603 269.029 173.577 269.961 172.49C270.424 171.937 270.901 171.398 271.327 170.83L272.544 169.063C271.754 168.126 270.957 167.225 270.111 166.345C269.264 165.465 268.382 164.6 267.486 163.777C265.723 162.153 263.863 160.639 261.915 159.242V159.242L261.795 159.185L255.008 155.921C253.745 158.544 251.489 160.558 248.736 161.522C245.984 162.485 242.961 162.319 240.331 161.059C237.702 159.797 235.682 157.546 234.716 154.799C233.75 152.053 233.917 149.036 235.181 146.413C236.445 143.791 238.702 141.778 241.454 140.816C244.206 139.854 247.229 140.022 249.857 141.282C251.161 141.906 252.329 142.781 253.294 143.856C254.258 144.931 255 146.186 255.477 147.548C256.437 150.291 256.268 153.302 255.008 155.921L261.915 159.242C262.605 157.768 263.11 156.214 263.417 154.616C263.573 153.819 263.68 153.013 263.737 152.203V150.982C263.752 150.577 263.735 150.172 263.687 149.769C266.028 149.179 268.33 148.444 270.58 147.569C272.851 146.679 275.063 145.648 277.204 144.483V144.483Z" fill="#5DB169"/>
<path opacity="0.6" d="M204.192 188.995L190.291 206.657L187.936 209.645L187.054 210.773L184.835 213.611C184.923 212.952 184.854 212.281 184.635 211.653C184.41 211.022 184.042 210.452 183.561 209.985C183.232 209.66 182.85 209.394 182.43 209.198C182.013 208.997 181.566 208.865 181.107 208.807C180.445 208.715 179.771 208.786 179.143 209.013C178.504 209.234 177.926 209.604 177.457 210.092L178.283 206.593L178.617 205.174L179.492 201.47L184.671 179.636L204.192 188.995Z" fill="#232626"/>
<path opacity="0.6" d="M176.44 246.395L156.919 237.028L170.82 219.388L173.175 216.4L174.064 215.272L176.298 212.434C176.2 213.102 176.268 213.785 176.497 214.42C176.709 215.061 177.081 215.638 177.578 216.095C177.907 216.408 178.281 216.669 178.688 216.869C179.099 217.067 179.538 217.201 179.99 217.266C180.663 217.359 181.348 217.291 181.989 217.067C182.621 216.849 183.191 216.484 183.654 216.003L182.828 219.48L182.494 220.899L181.619 224.596L176.44 246.395Z" fill="#232626"/>
<path opacity="0.6" d="M214.045 217.124L204.633 236.581L186.933 222.723L183.938 220.374L182.807 219.487L179.962 217.273C180.634 217.366 181.32 217.298 181.961 217.074C182.592 216.856 183.163 216.491 183.625 216.01C183.951 215.682 184.218 215.3 184.415 214.882V214.882C184.617 214.469 184.747 214.025 184.799 213.569C184.887 212.91 184.819 212.239 184.6 211.61C184.374 210.98 184.007 210.41 183.526 209.943L187.019 210.766L188.441 211.1L192.148 211.972L214.045 217.124Z" fill="#232626"/>
<path opacity="0.6" d="M177.578 216.102L174.064 215.272L172.641 214.945L168.935 214.073L147.095 208.907L156.499 189.442L174.128 203.301L177.13 205.65L178.254 206.537L181.1 208.751C180.438 208.659 179.764 208.729 179.136 208.956C178.497 209.177 177.919 209.547 177.45 210.035C176.901 210.608 176.521 211.322 176.351 212.096C176.182 212.871 176.23 213.678 176.49 214.427C176.705 215.069 177.079 215.645 177.578 216.102V216.102Z" fill="#232626"/>
<path opacity="0.6" d="M160.789 240.534C160.59 241.648 160.419 242.79 160.291 243.954C160.163 245.118 160.064 246.324 160.049 247.466L163.101 249.127L166.303 250.475C167.214 249.728 168.085 248.935 168.913 248.098C169.746 247.275 170.535 246.43 171.282 245.579C175.076 246.644 179.027 247.04 182.957 246.75C183.516 247.734 184.123 248.713 184.778 249.687C185.42 250.669 186.114 251.616 186.855 252.526C187.993 252.299 189.139 252.114 190.263 251.816L193.599 250.83C193.975 248.532 194.191 246.211 194.247 243.883C197.84 242.258 201.121 240.02 203.943 237.269C205.017 237.674 206.12 238.05 207.251 238.383C208.382 238.717 209.485 238.965 210.644 239.207C211.413 238.342 212.126 237.429 212.779 236.475L213.768 235.055C214.098 234.595 214.402 234.117 214.678 233.622C213.494 231.629 212.172 229.72 210.723 227.91H210.673L208.539 226.867L207.564 228.584L207.073 229.485C206.902 229.776 206.696 230.046 206.504 230.33L205.352 232.011C204.946 232.558 204.477 233.054 204.05 233.579C203.162 234.611 202.211 235.587 201.204 236.503C200.699 236.957 200.137 237.347 199.618 237.78L198.821 238.419C198.558 238.632 198.252 238.795 197.974 238.987L196.26 240.101C195.669 240.434 195.05 240.725 194.453 241.044L193.542 241.52C193.236 241.662 192.916 241.775 192.596 241.903L190.704 242.669L188.74 243.251C188.413 243.344 188.093 243.45 187.766 243.535L186.755 243.727C186.087 243.847 185.425 244.003 184.749 244.11L182.715 244.301C182.378 244.351 182.038 244.38 181.697 244.387H178.638C177.282 244.293 175.933 244.118 174.598 243.862C173.929 243.713 173.253 243.62 172.598 243.443L170.649 242.847C170.322 242.74 169.988 242.662 169.675 242.535L168.728 242.137L166.843 241.35L165.05 240.363L164.147 239.881C163.855 239.71 163.585 239.498 163.3 239.313L161.614 238.163C161.067 237.759 160.569 237.291 160.042 236.865C159.007 235.981 158.028 235.033 157.111 234.027C156.656 233.523 156.265 232.969 155.831 232.444L155.19 231.656C154.97 231.387 154.813 231.089 154.621 230.805L152.615 232.224C154.838 235.445 157.603 238.256 160.789 240.534V240.534Z" fill="#232626"/>
<path opacity="0.6" d="M166.566 182.652C164.791 181.153 162.911 179.785 160.939 178.557C160.421 178.82 159.922 179.116 159.445 179.444L157.979 180.402C157.01 181.04 156.081 181.737 155.198 182.488C155.411 183.652 155.631 184.759 155.909 185.894C156.186 187.03 156.556 188.144 156.933 189.222C154.108 191.969 151.778 195.181 150.047 198.717C147.724 198.715 145.404 198.874 143.104 199.192C142.875 199.724 142.685 200.272 142.534 200.831L142.022 202.492C141.686 203.6 141.419 204.728 141.225 205.87C142.136 206.629 143.04 207.338 143.979 207.998C144.918 208.658 145.935 209.304 146.917 209.886C146.532 213.799 146.833 217.749 147.806 221.559C146.02 223.057 144.335 224.672 142.762 226.391L144.064 229.613C144.541 230.67 145.117 231.678 145.643 232.706C146.796 232.706 147.991 232.657 149.2 232.557C150.41 232.458 151.52 232.323 152.644 232.146H152.686L154.678 230.791L153.561 229.088C153.227 228.491 152.935 227.881 152.615 227.278L152.138 226.377C151.996 226.065 151.882 225.745 151.754 225.433L150.979 223.546L150.403 221.587C150.31 221.261 150.203 220.941 150.118 220.608L149.926 219.607C149.805 218.94 149.649 218.273 149.542 217.606L149.35 215.577C149.307 215.243 149.279 214.903 149.264 214.562V211.511C149.354 210.155 149.53 208.807 149.791 207.473C149.933 206.813 150.033 206.139 150.211 205.486L150.808 203.535C150.915 203.216 150.993 202.882 151.121 202.563L151.52 201.626L152.309 199.746L153.298 197.958L153.782 197.056C153.953 196.758 154.166 196.496 154.351 196.212L155.503 194.53C155.909 193.984 156.378 193.487 156.805 192.962C157.692 191.929 158.642 190.953 159.651 190.038C160.149 189.584 160.711 189.187 161.23 188.754L162.027 188.123C162.304 187.917 162.589 187.732 162.881 187.555L164.588 186.441C165.186 186.107 165.797 185.809 166.402 185.49L167.306 185.022C167.612 184.88 167.939 184.766 168.252 184.631L170.144 183.865L172.108 183.29C172.435 183.198 172.755 183.084 173.089 182.999L174.092 182.808C174.761 182.687 175.43 182.538 176.099 182.432L178.133 182.233L177.948 179.785C174.013 180.055 170.158 181.026 166.566 182.652Z" fill="#232626"/>
<path opacity="0.6" d="M213.924 216.592C215.005 216.216 216.058 215.797 217.175 215.322C218.292 214.846 219.26 214.335 220.305 213.775C220.34 212.617 220.306 211.458 220.206 210.305L220.035 208.573C219.992 207.997 219.914 207.423 219.8 206.856C217.606 206.082 215.36 205.465 213.077 205.011C212.115 201.193 210.476 197.576 208.24 194.332C209.434 192.339 210.46 190.25 211.306 188.087C210.936 187.647 210.595 187.172 210.203 186.753L208.987 185.511L207.77 184.263C207.351 183.872 206.895 183.51 206.454 183.134C204.263 183.923 202.143 184.893 200.116 186.037L198.899 185.199C198.503 184.909 198.087 184.646 197.654 184.412L195.065 182.992L192.34 181.822C191.877 181.629 191.402 181.468 190.917 181.339L189.494 180.906C189.12 178.616 188.561 176.359 187.823 174.158C187.253 174.051 186.684 173.917 186.108 173.831L184.379 173.661L182.644 173.491C182.06 173.441 181.484 173.491 180.901 173.491C179.735 175.502 178.736 177.605 177.913 179.778V179.778V179.835L178.098 182.226C178.439 182.226 178.774 182.141 179.115 182.148H182.174C183.533 182.238 184.885 182.413 186.222 182.673C186.884 182.815 187.559 182.914 188.214 183.085L190.17 183.688C190.49 183.794 190.825 183.872 191.145 183.993L192.084 184.397L193.969 185.185L195.762 186.164L196.665 186.654C196.964 186.824 197.227 187.03 197.512 187.222L199.198 188.371C199.746 188.776 200.244 189.237 200.77 189.67C201.804 190.555 202.783 191.503 203.701 192.508C204.156 193.012 204.555 193.565 204.989 194.09L205.622 194.885C205.842 195.148 205.999 195.453 206.191 195.73L207.308 197.44C207.642 198.029 207.934 198.646 208.261 199.242L208.731 200.143C208.873 200.456 208.987 200.775 209.122 201.094L209.89 202.982L210.467 204.94C210.559 205.267 210.673 205.586 210.751 205.912L210.943 206.92C211.071 207.587 211.221 208.247 211.327 208.921L211.527 210.95C211.527 211.284 211.612 211.66 211.605 211.965V215.016C211.515 216.37 211.339 217.716 211.078 219.047C210.936 219.714 210.837 220.388 210.666 221.041L210.061 222.985C209.954 223.312 209.876 223.645 209.748 223.957L209.35 224.901L208.56 226.782L210.78 227.846C212.461 224.3 213.524 220.494 213.924 216.592Z" fill="#232626"/>
<path opacity="0.6" d="M192.155 211.958L191.579 210.319L190.867 208.282L187.495 198.653L179.492 201.442L175.8 202.733L174.156 203.301L166.16 206.082L168.956 214.072L169.532 215.704L170.244 217.748L170.82 219.387L173.616 227.37L181.619 224.582L186.955 222.722L194.958 219.934L192.155 211.958ZM178.688 216.875C178.281 216.675 177.907 216.415 177.578 216.102C177.081 215.644 176.709 215.068 176.497 214.427C176.23 213.679 176.179 212.87 176.349 212.094C176.518 211.318 176.902 210.605 177.457 210.035C177.926 209.547 178.504 209.177 179.143 208.956C179.771 208.729 180.445 208.658 181.107 208.75C181.566 208.808 182.013 208.94 182.43 209.141C182.85 209.337 183.232 209.603 183.561 209.928C184.042 210.395 184.41 210.965 184.635 211.596C184.854 212.224 184.923 212.895 184.835 213.554C184.782 214.011 184.652 214.454 184.451 214.867V214.867C184.254 215.286 183.987 215.667 183.661 215.995C183.199 216.477 182.628 216.842 181.996 217.06C181.355 217.284 180.67 217.352 179.997 217.258C179.544 217.196 179.103 217.067 178.688 216.875V216.875Z" fill="#232626"/>
<path opacity="0.6" d="M46.886 235.304L32.9851 252.944L30.6233 255.932L29.7127 257.039L27.5002 259.877C27.5881 259.218 27.5199 258.547 27.301 257.919C27.0373 257.159 26.5633 256.489 25.9338 255.987C25.3043 255.484 24.5451 255.17 23.744 255.08C23.0824 254.988 22.4084 255.059 21.7805 255.286C21.1629 255.501 20.6048 255.859 20.1514 256.329L20.9766 252.831L21.3038 251.412L22.1789 247.715L27.365 225.88L46.886 235.304Z" fill="#232626"/>
<path opacity="0.6" d="M20.2652 262.411L16.7509 261.58L15.328 261.247L11.6429 260.374L-10.2399 255.208L-0.835108 235.751L16.8504 249.609L19.8455 251.958L20.9766 252.845L23.8222 255.059C23.1607 254.967 22.4866 255.038 21.8587 255.265C21.2117 255.477 20.6258 255.842 20.1514 256.329C19.8257 256.648 19.5606 257.023 19.3688 257.436C19.1663 257.844 19.0363 258.283 18.9846 258.735C18.8938 259.404 18.9621 260.084 19.1839 260.722C19.3971 261.366 19.7689 261.947 20.2652 262.411Z" fill="#232626"/>
<path opacity="0.6" d="M9.25976 228.96C7.48296 227.462 5.59996 226.093 3.62544 224.866C3.10835 225.128 2.60925 225.424 2.13146 225.753L0.708651 226.696C-0.259737 227.336 -1.1908 228.03 -2.08005 228.776C-1.86663 229.946 -1.64609 231.053 -1.36864 232.189C-1.09119 233.324 -0.714147 234.438 -0.344216 235.517C-3.16293 238.257 -5.49399 241.456 -7.23774 244.976C-9.56057 244.976 -11.8806 245.138 -14.1811 245.458C-14.4036 245.993 -14.5936 246.54 -14.7502 247.097L-15.2624 248.758C-15.6034 249.864 -15.8673 250.993 -16.0521 252.136C-15.1415 252.895 -14.2451 253.604 -13.2989 254.264C-12.3528 254.924 -11.3497 255.57 -10.3608 256.159C-10.7634 260.072 -10.4769 264.025 -9.51424 267.839C-11.3011 269.334 -12.9839 270.948 -14.551 272.671L-13.2491 275.893C-12.7725 276.943 -12.2033 277.958 -11.6769 278.987C-10.5244 278.987 -9.32215 278.937 -8.11987 278.838C-6.9176 278.738 -5.80779 278.596 -4.68377 278.426L-4.64109 278.391L-2.64916 277.042L-3.75895 275.332C-4.09331 274.743 -4.39212 274.133 -4.71226 273.53L-5.18889 272.629C-5.32405 272.316 -5.44498 271.997 -5.57303 271.685L-6.34136 269.797L-6.9176 267.839C-7.01719 267.513 -7.12393 267.186 -7.2093 266.86L-7.40135 265.859C-7.52229 265.192 -7.67882 264.525 -7.78553 263.858L-7.97758 261.829C-7.97758 261.488 -8.06295 261.155 -8.06295 260.814V257.841C-7.97648 256.487 -7.80062 255.141 -7.53652 253.81C-7.39423 253.15 -7.29467 252.476 -7.12393 251.816L-6.51921 249.872C-6.4125 249.553 -6.33425 249.219 -6.21331 248.9L-5.80781 247.963L-5.01816 246.076L-4.02217 244.266L-3.5313 243.372C-3.36768 243.074 -3.15426 242.811 -2.96218 242.528L-1.81683 240.839C-1.40422 240.299 -0.941783 239.803 -0.507825 239.278C0.378433 238.245 1.32884 237.268 2.3378 236.354C2.8429 235.9 3.39778 235.503 3.92422 235.07L4.72099 234.431C4.98421 234.218 5.29011 234.055 5.56756 233.863L7.28203 232.756C7.8725 232.423 8.49145 232.125 9.08903 231.806L9.99253 231.33C10.3055 231.195 10.6256 231.075 10.9387 230.947L12.8382 230.181L14.7945 229.606C15.1218 229.506 15.449 229.4 15.7762 229.315L16.7793 229.123C17.448 229.003 18.1168 228.847 18.7855 228.74L20.8201 228.549L20.6351 226.1C16.7031 226.372 12.8511 227.34 9.25976 228.96V228.96Z" fill="#232626"/>
<path opacity="0.6" d="M56.6109 262.907C57.6923 262.531 58.7452 262.112 59.8621 261.637C60.979 261.161 61.9465 260.65 62.9993 260.09C63.0348 258.932 62.9992 257.773 62.8927 256.62L62.7219 254.91C62.6862 254.332 62.6077 253.758 62.4872 253.193C60.2957 252.418 58.0514 251.802 55.7715 251.348C54.8062 247.529 53.1656 243.912 50.9268 240.668C52.1237 238.676 53.1517 236.587 54.0001 234.424C53.6302 233.977 53.2887 233.508 52.8903 233.09L51.6809 231.841L50.4644 230.592C50.0375 230.202 49.5823 229.84 49.1412 229.456C46.9545 230.249 44.8368 231.22 42.8097 232.359L41.5861 231.493C41.2023 231.21 40.8007 230.952 40.3838 230.72L37.7871 229.3L35.0625 228.158C34.602 227.959 34.1262 227.798 33.6397 227.675L32.2169 227.243C31.8456 224.951 31.2864 222.694 30.545 220.494C29.9759 220.388 29.4068 220.253 28.8377 220.168L27.1018 219.99L25.366 219.827C24.7898 219.778 24.2064 219.827 23.6302 219.827C22.462 221.835 21.4626 223.935 20.6423 226.107V226.107V226.157L20.8201 228.555C21.1616 228.555 21.5315 228.47 21.8374 228.47H24.9036C26.2606 228.556 27.6105 228.732 28.9444 228.995C29.606 229.137 30.2818 229.237 30.9434 229.407L32.8927 230.01C33.2199 230.116 33.5543 230.194 33.8673 230.315L34.8063 230.72L36.6845 231.493L38.4772 232.472L39.3736 232.962C39.6724 233.125 39.9427 233.338 40.2273 233.53L41.9133 234.672C42.454 235.084 42.9519 235.545 43.4784 235.978C44.5174 236.858 45.4965 237.806 46.4094 238.816C46.8718 239.32 47.2631 239.873 47.697 240.398L48.3373 241.193C48.5507 241.456 48.7143 241.761 48.9064 242.038L50.0162 243.748C50.3506 244.337 50.6494 244.954 50.9695 245.55L51.4461 246.451C51.5813 246.764 51.7023 247.083 51.8303 247.395L52.5986 249.29L53.1748 251.241C53.2744 251.568 53.3812 251.894 53.4665 252.22L53.6586 253.221C53.7795 253.888 53.9361 254.555 54.0428 255.222L54.2348 257.251C54.2348 257.592 54.3273 257.926 54.3202 258.266V261.296C54.2267 262.649 54.0509 263.995 53.7938 265.327C53.6444 265.987 53.5448 266.661 53.3741 267.321L52.7693 269.265C52.6697 269.591 52.5915 269.918 52.4634 270.237L52.0366 271.202L51.247 273.09L53.4737 274.154C55.1522 270.61 56.2132 266.806 56.6109 262.907V262.907Z" fill="#232626"/>
<path opacity="0.6" d="M34.849 258.266L34.2727 256.627L33.5613 254.584L30.1893 244.976L22.1788 247.764L18.4938 249.056L16.8504 249.623L8.84711 252.405L11.6429 260.374L12.2263 262.013L12.9377 264.05L13.5139 265.696L16.3097 273.679L24.3202 270.89L29.6486 269.031L37.6448 266.264L34.849 258.266ZM21.3821 263.184C20.9715 262.986 20.5946 262.725 20.2652 262.41C19.7718 261.95 19.4003 261.374 19.1838 260.736C18.9621 260.098 18.8938 259.418 18.9846 258.749C19.0363 258.297 19.1663 257.858 19.3688 257.45C19.5606 257.037 19.8257 256.662 20.1514 256.343C20.6151 255.853 21.1913 255.483 21.8303 255.265C22.4582 255.038 23.1322 254.967 23.7937 255.059C24.5924 255.156 25.3482 255.473 25.9764 255.974C26.6047 256.476 27.0806 257.141 27.3508 257.897C27.5826 258.53 27.6606 259.209 27.5784 259.877C27.5221 260.333 27.3924 260.776 27.1943 261.19V261.19C26.9935 261.61 26.7243 261.993 26.3975 262.325C25.9358 262.804 25.3681 263.169 24.7399 263.39C24.0993 263.616 23.4129 263.681 22.7409 263.581C22.2698 263.521 21.8113 263.387 21.3821 263.184Z" fill="#232626"/>
<path opacity="0.6" d="M81.2398 266.065L80.0375 264.22C79.6747 263.588 79.3261 262.921 79.0131 262.276L78.5009 261.303C78.3515 260.97 78.2234 260.594 78.0811 260.289L77.2559 258.245L76.6299 256.116C76.5303 255.769 76.4093 255.407 76.3169 255.059L76.1105 253.98C75.9825 253.271 75.8118 252.561 75.6979 251.852L75.4916 249.666C75.4916 249.297 75.392 248.956 75.3991 248.573V245.281C75.4935 243.82 75.6812 242.367 75.9612 240.931C76.1177 240.221 76.2244 239.512 76.4165 238.802L77.0638 236.709C77.1777 236.354 77.2559 235.999 77.3982 235.659L77.825 234.644L78.6787 232.614L79.7387 230.684L80.2652 229.719C80.4501 229.4 80.6778 229.109 80.877 228.804L82.1219 226.994C82.563 226.405 83.061 225.873 83.5447 225.306C84.4999 224.179 85.529 223.117 86.6251 222.126C87.1658 221.63 87.7705 221.211 88.3325 220.743L89.1933 220.033C89.4779 219.799 89.8051 219.629 90.111 219.423L91.9535 218.224C92.5938 217.862 93.2554 217.55 93.9028 217.202L94.8774 216.691C95.2118 216.542 95.5888 216.414 95.9018 216.272L97.9436 215.449L100.078 214.825C100.433 214.725 100.789 214.605 101.138 214.52L102.219 214.314C102.931 214.179 103.642 214.016 104.353 213.895L106.544 213.689L106.26 209.879C105.278 209.985 104.289 210.035 103.315 210.191L100.405 210.759L98.9822 204.67C98.0574 204.876 97.1539 205.188 96.2433 205.444L94.8774 205.855C94.4221 205.99 93.9882 206.196 93.5471 206.359L90.8936 207.452C90.0399 207.856 89.2004 208.311 88.3538 208.743L91.3204 214.257C90.8864 214.491 90.4383 214.697 90.0185 214.967L88.7593 215.761C87.9123 216.265 87.1017 216.827 86.3335 217.443L82.5274 212.476L80.3007 214.257C79.5893 214.882 78.9206 215.563 78.2305 216.223L77.2132 217.216C76.8718 217.55 76.5872 217.926 76.2671 218.288L74.4316 220.466L79.4115 224.291C78.8139 225.071 78.2874 225.909 77.7183 226.718C77.1559 227.525 76.6519 228.372 76.2101 229.251L70.7039 226.256C68.8706 229.582 67.472 233.128 66.5422 236.808L72.6389 238.305L72.0556 241.2C71.9562 241.682 71.892 242.171 71.8635 242.662L71.7212 244.131L65.4608 243.627L65.3328 245.047V249.304L65.6031 252.142C65.6529 252.611 65.6884 253.086 65.7596 253.562L66.0228 254.981L72.1978 253.86L72.4824 255.279L72.6247 255.988C72.6816 256.23 72.7598 256.457 72.831 256.698L73.6775 259.536L67.7515 261.609L68.8186 264.248C69.0036 264.681 69.1672 265.128 69.3664 265.561L70.0209 266.824C70.462 267.661 70.8817 268.513 71.3583 269.336L72.9092 271.727L79.8241 267.037L81.2398 266.065Z" fill="#5A6055"/>
<path opacity="0.6" d="M106.544 213.711C106.914 213.711 107.256 213.618 107.647 213.618H110.948C112.41 213.715 113.864 213.905 115.302 214.186C116.013 214.342 116.725 214.441 117.436 214.633L119.57 215.279C119.919 215.392 120.282 215.477 120.616 215.612L121.633 216.045L123.668 216.89L125.603 217.954L126.571 218.472C126.891 218.656 127.182 218.884 127.488 219.089L129.309 220.352C129.893 220.792 130.433 221.296 130.995 221.772C132.114 222.718 133.172 223.735 134.161 224.816C134.652 225.362 135.079 225.958 135.541 226.526L136.253 227.377C136.488 227.661 136.658 227.988 136.865 228.293L138.067 230.131C138.43 230.769 138.778 231.429 139.091 232.075L139.603 233.047C139.76 233.388 139.881 233.757 140.023 234.069L140.856 236.105L141.474 238.234C141.574 238.589 141.695 238.944 141.787 239.292L141.994 240.37C142.122 241.08 142.293 241.789 142.406 242.499L142.613 244.692C142.613 245.054 142.712 245.401 142.705 245.784V249.077C142.604 250.537 142.414 251.99 142.136 253.427C141.98 254.136 141.873 254.846 141.688 255.556L141.033 257.684C140.92 258.032 140.841 258.394 140.706 258.727L140.272 259.742L139.419 261.772L142.826 263.425C143.665 261.636 144.378 259.792 144.96 257.904L150.972 259.707C151.533 257.894 151.968 256.044 152.274 254.172C152.375 253.704 152.442 253.23 152.473 252.753L152.615 251.333C152.738 250.392 152.805 249.444 152.814 248.495L146.54 248.303V245.352L146.255 242.407L152.473 241.605C151.99 237.839 151.007 234.155 149.549 230.649L143.744 233.012L143.189 231.642C142.99 231.195 142.741 230.769 142.52 230.329L141.809 229.017L141.467 228.357C141.339 228.151 141.197 227.945 141.069 227.739L146.426 224.489L144.875 222.105C144.619 221.703 144.337 221.319 144.028 220.956L143.146 219.841C141.958 218.355 140.675 216.947 139.305 215.626L134.958 220.14C134.613 219.787 134.244 219.457 133.855 219.153L132.724 218.195C132.357 217.865 131.972 217.555 131.572 217.266L130.348 216.435L133.905 211.284C130.776 209.127 127.387 207.373 123.817 206.061L121.683 211.951L118.838 211.085L118.126 210.865L117.415 210.723L115.992 210.432L117.159 204.28L115.736 204.01C115.266 203.911 114.79 203.897 114.313 203.84L111.467 203.563C110.521 203.507 109.568 203.563 108.622 203.528H107.199C106.729 203.528 106.253 203.599 105.776 203.634L106.402 211.958L106.544 213.711Z" fill="#5A6055"/>
<path opacity="0.6" d="M128.143 256.329C124.138 264.213 115.714 269.201 106.801 268.186C102.511 267.694 98.4701 265.922 95.2058 263.103C91.9415 260.284 89.6056 256.548 88.5033 252.384C83.5661 233.551 106.068 218.507 121.683 230.116C125.609 233.085 128.393 237.309 129.568 242.081C130.744 246.853 130.241 251.883 128.143 256.329C126.464 259.983 132.105 262.715 133.791 259.047C135.361 255.804 136.275 252.284 136.481 248.689C136.687 245.094 136.181 241.494 134.992 238.093C133.803 234.693 131.954 231.56 129.551 228.873C127.148 226.186 124.237 223.997 120.986 222.431C114.421 219.271 106.866 218.842 99.9836 221.237C93.101 223.632 87.454 228.656 84.2846 235.204C81.1162 241.754 80.6853 249.29 83.0866 256.156C85.488 263.023 90.5249 268.657 97.0899 271.819C98.6565 272.571 100.29 273.175 101.97 273.622C114.676 277.17 127.951 270.563 133.798 259.047C135.62 255.477 129.964 252.781 128.143 256.329Z" fill="#5A6055"/>
<path opacity="0.6" d="M114.221 249.666C110.72 256.18 100.611 251.376 103.848 244.699C107.085 238.022 117.152 242.897 114.221 249.666C111.567 255.811 120.972 260.374 123.64 254.193C127.14 246.104 124.251 236.574 116.077 232.6C114.143 231.709 112.053 231.207 109.924 231.122C107.796 231.037 105.671 231.371 103.672 232.106C101.673 232.84 99.8388 233.959 98.2736 235.4C96.7085 236.842 95.4432 238.576 94.5502 240.505C92.7857 244.317 92.5755 248.663 93.9641 252.626C95.3526 256.589 98.2311 259.858 101.991 261.744C110.18 265.682 119.485 261.935 123.64 254.193C126.82 248.275 117.393 243.755 114.221 249.666Z" fill="#5A6055"/>
<path opacity="0.6" d="M122.98 212.724L111.607 236.253L116.003 238.367L127.376 214.838L122.98 212.724Z" fill="#5A6055"/>
<path opacity="0.6" d="M143.316 232.649L118.595 241.265L120.205 245.86L144.926 237.244L143.316 232.649Z" fill="#5A6055"/>
<path opacity="0.6" d="M76.6125 228.884L74.493 233.269L98.0815 244.612L100.201 240.227L76.6125 228.884Z" fill="#5A6055"/>
<path opacity="0.6" d="M99.0615 211.365L94.4544 212.971L103.092 237.629L107.699 236.023L99.0615 211.365Z" fill="#5A6055"/>
</g>
<g opacity="0.5">
<path opacity="0.5" d="M35.3327 50.6661C35.5455 50.6564 35.7536 50.7306 35.912 50.8727C36.0704 51.0148 36.1664 51.2133 36.1793 51.4254C36.1841 51.5313 36.1677 51.6371 36.1312 51.7366C36.0947 51.8362 36.0388 51.9276 35.9667 52.0054C35.8946 52.0833 35.8077 52.1461 35.7111 52.1903C35.6145 52.2345 35.5101 52.2591 35.4038 52.2627V52.2627C35.1989 52.2766 34.9965 52.2103 34.8398 52.0778C34.6831 51.9453 34.5843 51.7571 34.5644 51.5531V51.5531C34.5546 51.342 34.628 51.1355 34.7689 50.9776C34.9099 50.8198 35.1071 50.7233 35.3185 50.7087L35.1762 47.8703C34.6004 47.9068 34.0407 48.0742 33.54 48.3599L31.1995 44.3578C29.3176 45.4477 27.9404 47.2317 27.365 49.325L31.8468 50.5455C31.7115 51.1052 31.7115 51.6889 31.8468 52.2485L27.308 53.2207C27.7578 55.3515 29.0372 57.2172 30.8651 58.4078L33.3977 54.5263C33.8795 54.8428 34.4313 55.0376 35.0055 55.094L34.5359 59.6993C36.7101 59.9195 38.8834 59.2742 40.5829 57.904L37.659 54.3064C38.1126 53.9505 38.4697 53.487 38.6977 52.9581L42.9661 54.8315C43.847 52.8362 43.9058 50.5754 43.1297 48.5373L38.7973 50.1907C38.584 49.6503 38.2508 49.1651 37.8226 48.7715L40.9244 45.3229C39.2973 43.86 37.1581 43.0952 34.9699 43.1941L35.29 49.3605L35.3327 50.6661Z" fill="#5DB169"/>
<path opacity="0.5" d="M50.0232 88.0193C50.8342 87.7213 51.6168 87.3523 52.3994 86.9975C53.1819 86.6427 53.9431 86.2311 54.6901 85.8054C53.739 82.3727 52.5675 79.0046 51.1828 75.722C53.3171 74.3436 55.2615 72.6928 56.9666 70.8116C59.9988 72.6857 63.1472 74.366 66.3927 75.8426L67.1752 74.8208L67.8866 73.7706C68.3846 73.061 68.8328 72.3514 69.3094 71.6418C66.763 69.1427 64.0614 66.8059 61.2208 64.6452C62.3795 62.4022 63.2359 60.0162 63.7676 57.5492C67.3286 57.6618 70.8931 57.5433 74.4387 57.1944C74.5454 56.3429 74.6663 55.4914 74.7161 54.6328C74.7161 54.207 74.7873 53.7812 74.8015 53.3484V52.064C71.3712 51.1564 67.8882 50.4597 64.3723 49.9778C64.2345 47.4478 63.7707 44.946 62.9922 42.5341C66.141 40.8529 69.1779 38.9709 72.0839 36.8999C71.778 36.0981 71.3725 35.3175 71.0524 34.537C70.7323 33.7564 70.2627 32.9971 69.8644 32.2521C66.4206 33.2007 63.0416 34.3692 59.7481 35.7504C58.3681 33.616 56.7129 31.6716 54.8252 29.9671C56.7041 26.9426 58.3888 23.8022 59.8691 20.565L58.8803 19.7915L57.8274 19.0819C57.116 18.5852 56.4046 18.1382 55.6932 17.6627C53.1534 20.1921 50.7773 22.8798 48.5791 25.7096C46.3323 24.5492 43.9396 23.6948 41.4651 23.1692C41.5779 19.6173 41.4591 16.0618 41.1094 12.5252C40.2557 12.4188 39.402 12.2911 38.5483 12.2485C38.1143 12.213 37.6875 12.1775 37.2606 12.1562H35.9659C35.0766 15.6026 34.4018 19.1005 33.9455 22.6299V22.6299V22.7222L34.2372 28.2783C40.4075 27.9613 46.4519 30.0998 51.0429 34.2241C55.6339 38.3485 58.3964 44.1216 58.7238 50.2758C59.0453 56.4308 56.9025 62.4611 52.7667 67.0402C48.6309 71.6193 42.8408 74.3721 36.6702 74.6931L36.9618 80.3699C39.488 80.2141 41.9839 79.7372 44.3889 78.9507C46.073 82.0893 47.9549 85.1182 50.0232 88.0193Z" fill="#5DB169"/>
<path opacity="0.5" d="M20.8343 14.9023C20.0233 15.2075 19.2407 15.5765 18.4582 15.9313C17.6837 16.2864 16.9286 16.6819 16.1959 17.1163C17.1373 20.5484 18.2993 23.9165 19.6747 27.1997C17.5427 28.5755 15.5985 30.2213 13.891 32.0959C10.8584 30.2287 7.70999 28.5554 4.46485 27.0861L3.68228 28.1009L2.97087 29.1511C2.47289 29.8607 2.0247 30.5703 1.54806 31.2799C4.09442 33.7813 6.79602 36.1205 9.63678 38.2836C8.47799 40.5266 7.62162 42.9126 7.08994 45.3796C3.52897 45.2741 -0.0351242 45.3926 -3.58115 45.7344C-3.68786 46.5859 -3.80881 47.4374 -3.8586 48.296C-3.8586 48.7289 -3.92974 49.1546 -3.94397 49.5804V50.8647C-0.503069 51.7768 2.99216 52.4712 6.52082 52.9439C6.65514 55.4766 7.11907 57.9812 7.90095 60.3946C4.75376 62.0761 1.71701 63.9556 -1.19083 66.0217C-0.88493 66.8662 -0.479436 67.5758 -0.130847 68.3847C0.217045 69.1675 0.604064 69.9325 1.02875 70.6767C4.47249 69.7281 7.85155 68.5595 11.145 67.1784C12.5254 69.3061 14.1806 71.2434 16.0679 72.9403C14.189 75.9649 12.5043 79.1052 11.024 82.3425L12.0413 83.1301L13.0942 83.8397C13.8056 84.3365 14.517 84.7835 15.2284 85.2589C17.7398 82.7249 20.0852 80.0323 22.25 77.1979C24.4993 78.3508 26.8913 79.2025 29.364 79.7312C29.2512 83.2831 29.37 86.8386 29.7197 90.3751C30.5734 90.4816 31.4271 90.6022 32.2879 90.6519C32.7147 90.6519 33.1416 90.7228 33.5755 90.737L34.8632 90.7725C35.7617 87.3431 36.4483 83.8619 36.9192 80.3485V80.3485V80.2492L36.6346 74.6717C30.4637 74.9906 24.4184 72.8528 19.8269 68.7281C15.2354 64.6033 12.4735 58.8291 12.148 52.6742C11.8303 46.5202 13.9744 40.492 18.1094 35.9138C22.2445 31.3356 28.0323 28.5816 34.2016 28.257L33.9099 22.5802C31.3762 22.7158 28.8704 23.1761 26.4544 23.9497C24.7745 20.8185 22.8974 17.7967 20.8343 14.9023V14.9023Z" fill="#5DB169"/>
<path opacity="0.5" d="M33.8175 20.4731C46.7651 19.948 59.1008 27.3988 64.1162 39.4335C66.5339 45.2938 67.1157 51.747 65.7848 57.9434C64.454 64.1399 61.273 69.789 56.6607 74.147C50.6277 79.7637 42.605 82.7598 34.3573 82.4763C26.1097 82.1929 18.3127 78.6531 12.6816 72.6356C9.51814 69.2549 7.15206 65.2118 5.75629 60.8018C4.36051 56.3919 3.9703 51.7265 4.61423 47.1469C5.68155 40.0427 9.15982 33.5187 14.4682 28.6642C19.7766 23.8096 26.5939 20.9184 33.7819 20.4731C35.7667 20.3525 35.6173 17.2657 33.6254 17.3935C24.5757 17.865 16.0837 21.9001 10.0146 28.6124C3.94541 35.3247 0.795412 44.1654 1.25642 53.1926C1.51113 58.2393 2.88725 63.1665 5.28522 67.6176C7.68318 72.0688 11.043 75.9327 15.1217 78.9297C20.8077 83.0626 27.6241 85.3637 34.6578 85.5248C41.6915 85.6858 48.6065 83.6992 54.4767 79.8309C60.3145 75.867 64.7949 70.2143 67.3145 63.6337C69.8341 57.0531 70.2721 49.8605 68.5696 43.0241C64.6284 27.3349 49.7031 16.769 33.6609 17.3935C31.669 17.4715 31.8469 20.5583 33.8175 20.4731Z" fill="#5DB169"/>
<path opacity="0.5" d="M19.6818 33.0612L19.0771 33.5721C18.885 33.7495 18.7001 33.9411 18.508 34.1256L17.3982 35.2538L16.388 36.4673C16.2244 36.673 16.0537 36.8788 15.8972 37.0917L15.4845 37.8013C16.6107 39.2036 17.8224 40.5354 19.1127 41.7892C20.398 43.0291 21.7595 44.1879 23.1891 45.2592C23.0395 45.5206 22.911 45.7935 22.8049 46.0752C22.6911 46.359 22.5559 46.6287 22.4563 46.9125C22.2617 47.4817 22.1026 48.0623 21.9797 48.651C21.7309 49.8309 21.6306 51.037 21.6809 52.2416C19.9516 52.6393 18.2481 53.1417 16.5801 53.746C15.7335 54.0511 14.8869 54.3846 14.0546 54.7465C13.2223 55.1084 12.4184 55.4561 11.6074 55.9031L11.9275 57.4288C12.0556 57.9397 12.2263 58.4435 12.3828 58.9544C12.6995 59.958 13.0772 60.9415 13.5139 61.8992C15.3047 61.6208 17.077 61.2345 18.821 60.7426C20.535 60.2571 22.2152 59.6597 23.8507 58.9544L24.3629 59.7066C24.5407 59.9407 24.747 60.1678 24.9391 60.4162L25.2237 60.7639C25.3233 60.8774 25.4371 60.9767 25.5438 61.0832L26.1841 61.7218L26.8955 62.2966L27.2512 62.5804L27.6282 62.8288C27.8843 62.992 28.1262 63.1694 28.3823 63.3326L29.1791 63.7584C28.6491 65.4541 28.2285 67.182 27.9199 68.9313C27.6084 70.7126 27.4065 72.5113 27.3152 74.3172C28.3176 74.6655 29.3418 74.9475 30.3814 75.1616C30.9007 75.268 31.42 75.3816 31.9465 75.4596L33.5258 75.6228C33.8601 74.7713 34.1589 73.934 34.4293 73.0754C34.6996 72.2168 34.9486 71.3369 35.1407 70.4641C35.575 68.7357 35.9005 66.9819 36.1153 65.213C37.3244 65.1407 38.5195 64.9166 39.6723 64.546C40.245 64.3606 40.8057 64.1402 41.3512 63.8861C41.6287 63.7584 41.8848 63.6023 42.148 63.4603C42.4168 63.3245 42.6759 63.1704 42.9234 62.9991C44.139 64.305 45.4364 65.5327 46.8077 66.6748C48.1928 67.8263 49.6467 68.8926 51.1615 69.868L51.7662 69.3571L52.3353 68.8036L53.4451 67.6753L54.4553 66.4548C54.619 66.2491 54.7897 66.0504 54.9462 65.8375L55.3944 65.1847C54.2702 63.7784 53.0585 62.444 51.7662 61.1896C50.4809 59.9498 49.1195 58.7909 47.6899 57.7197C47.8479 57.4706 47.9814 57.2068 48.0883 56.932C48.2021 56.6553 48.3372 56.3857 48.4368 56.1018C48.6329 55.5229 48.7944 54.9329 48.9206 54.3349C49.1691 53.1526 49.2694 51.9442 49.2194 50.7373C50.9485 50.342 52.652 49.842 54.3202 49.24C55.1668 48.9349 56.0133 48.6014 56.8457 48.2395C57.6808 47.8935 58.4976 47.5051 59.2929 47.0757L58.9656 45.5217C58.8376 45.0108 58.6668 44.507 58.5103 44.0032C58.1882 42.9952 57.8008 42.0092 57.3507 41.0513C55.5587 41.3229 53.786 41.7092 52.0437 42.2079C50.3298 42.691 48.6496 43.286 47.014 43.989L46.5018 43.2794C46.3239 43.0381 46.1176 42.8111 45.9256 42.5698L45.641 42.2221L45.3209 41.9028L44.6806 41.2641L43.9692 40.6965C43.8483 40.5971 43.7344 40.4978 43.6135 40.4126L43.2293 40.1288C42.9804 39.9656 42.7314 39.7882 42.4753 39.6321L41.6856 39.1921C42.2113 37.4952 42.6318 35.7676 42.9448 34.0191C43.2562 32.2378 43.4582 30.4392 43.5495 28.6333C42.5463 28.2859 41.5222 28.0015 40.4833 27.7818C39.964 27.6824 39.4447 27.5618 38.9182 27.4908L37.3389 27.3276C37.0045 28.1721 36.7058 29.0094 36.4354 29.8751C36.1651 30.7408 35.9161 31.6136 35.724 32.4793C35.2914 34.1981 34.9683 35.9425 34.7565 37.702V37.702V37.7729L35.0411 43.3291C36.1066 43.2736 37.1726 43.428 38.1783 43.7834C39.1839 44.1389 40.1096 44.6885 40.9023 45.4008C41.695 46.1131 42.3394 46.9742 42.7984 47.9348C43.2575 48.8955 43.5224 49.937 43.5779 50.9998C43.6336 52.0626 43.4788 53.1259 43.1224 54.129C42.766 55.1322 42.2151 56.0554 41.5009 56.8462C40.7868 57.6369 39.9236 58.2795 38.9604 58.7375C37.9973 59.1954 36.9531 59.4596 35.8876 59.515C34.8221 59.5705 33.7561 59.4161 32.7504 59.0606C31.7448 58.7051 30.8191 58.1556 30.0264 57.4433C29.2337 56.731 28.5893 55.8699 28.1303 54.9092C27.6712 53.9485 27.4063 52.907 27.3508 51.8442C27.2939 50.7812 27.4482 49.7174 27.8046 48.714C28.1611 47.7106 28.7128 46.7873 29.4281 45.9971C30.8737 44.405 32.8908 43.4462 35.0411 43.3291L34.7494 37.6523C32.9396 37.7656 31.1666 38.2131 29.5205 38.9721C29.2502 39.0999 28.9941 39.2631 28.7238 39.3979C28.4548 39.5319 28.1978 39.6886 27.9555 39.8662C26.7183 38.5821 25.4045 37.3736 24.0214 36.2473C22.6412 35.0982 21.192 34.0342 19.6818 33.0612V33.0612Z" fill="#5DB169"/>
<path opacity="0.5" d="M54.0783 8.28223L70.4975 11.0142L73.2791 11.4754L74.3249 11.6457L76.9357 12.0857C76.4727 12.27 76.0605 12.5619 75.7335 12.9372C75.3964 13.3049 75.1525 13.7477 75.0221 14.2287C74.9238 14.5574 74.8853 14.9011 74.9082 15.2434C74.9425 15.9115 75.1882 16.5516 75.61 17.0718C76.0318 17.592 76.608 17.9654 77.2559 18.1385L74.6877 18.8481L73.6633 19.1249L70.9742 19.8345L54.9106 24.2907L54.0783 8.28223Z" fill="#232626"/>
<path opacity="0.5" d="M101.294 5.84082L102.127 21.8139L85.7145 19.0819L82.9329 18.6136L81.8871 18.4433L79.2478 18.0033C79.7129 17.8316 80.1317 17.5547 80.4714 17.1944C80.811 16.8285 81.0553 16.385 81.1828 15.9029C81.2678 15.5765 81.3038 15.2393 81.2895 14.9024C81.2602 14.2351 81.0191 13.5944 80.601 13.0728C80.1828 12.5511 79.6093 12.1755 78.9632 12.0001L81.5172 11.2905L82.5416 11.0138L85.2663 10.2616L101.294 5.84082Z" fill="#232626"/>
<path opacity="0.5" d="M68.8826 -8.08849L84.8821 -8.91162L82.1504 7.45879L81.6879 10.2333L81.5101 11.2764L81.0761 13.9019C80.8989 13.4355 80.6129 13.0178 80.2418 12.6834C79.8706 12.3491 79.4251 12.1076 78.9419 11.9789C78.6108 11.8883 78.2676 11.85 77.9246 11.8654V11.8654C77.5852 11.8845 77.2512 11.9588 76.9357 12.0854C76.4727 12.2697 76.0605 12.5616 75.7335 12.9369C75.3964 13.3046 75.1525 13.7474 75.0221 14.2284L74.3107 11.6738L74.0332 10.652L73.2791 7.9697L68.8826 -8.08849Z" fill="#232626"/>
<path opacity="0.5" d="M81.1757 15.8818L81.8871 18.4506L82.1645 19.4724L82.9186 22.1618L87.3365 38.1845L71.3298 39.0076L74.0617 22.6372L74.524 19.8627L74.7019 18.8196L75.1358 16.2083C75.3169 16.6701 75.6045 17.083 75.9752 17.4134C76.346 17.7438 76.7896 17.9824 77.2701 18.11C77.5931 18.2043 77.93 18.2427 78.266 18.2235C78.6031 18.2094 78.9353 18.1374 79.2478 18.0106C79.7119 17.8337 80.1301 17.5548 80.4714 17.1946C80.812 16.8222 81.0541 16.371 81.1757 15.8818Z" fill="#232626"/>
<path opacity="0.5" d="M103.037 18.06C103.834 17.7975 104.631 17.4994 105.435 17.173C106.239 16.8466 107.057 16.4634 107.811 16.0802V13.5115L107.547 10.9569C106.765 10.6447 105.904 10.368 105.079 10.1196C104.254 9.87126 103.414 9.65838 102.596 9.48099C101.943 6.64563 100.797 3.94626 99.2098 1.50511C99.6509 0.79551 100.071 0.0504335 100.476 -0.715932C100.882 -1.4823 101.266 -2.28414 101.586 -3.0718C101.031 -3.72463 100.505 -4.40584 99.9212 -5.03028L98.0929 -6.83976C96.4636 -6.27131 94.8757 -5.59082 93.3407 -4.80321C91.0057 -6.5506 88.3844 -7.88071 85.5935 -8.73438C85.4726 -9.57171 85.3232 -10.4161 85.1382 -11.2676C84.9532 -12.1192 84.7256 -12.921 84.4695 -13.7583C83.6334 -13.9565 82.7849 -14.0987 81.9298 -14.1841L80.6422 -14.3118C80.2177 -14.3684 79.7899 -14.3969 79.3616 -14.397C78.4851 -12.9097 77.7125 -11.3638 77.0495 -9.7704V-9.7704L77.142 -7.9964H79.4114C79.6675 -7.9964 79.9165 -7.95383 80.1655 -7.93254L81.6737 -7.78352C82.1717 -7.71256 82.6554 -7.59193 83.1534 -7.49968C84.1391 -7.29325 85.1109 -7.02545 86.0631 -6.69784C86.5397 -6.53463 86.995 -6.31466 87.4859 -6.13016L88.1973 -5.83923C88.4259 -5.73467 88.6491 -5.61862 88.866 -5.49152L90.1821 -4.80321C90.6089 -4.54066 91.0145 -4.24263 91.4413 -3.96589L92.0673 -3.55432L92.6578 -3.0718L93.8316 -2.12093L94.8987 -1.05654C95.0766 -0.87914 95.2615 -0.708837 95.4394 -0.524342L95.916 0.0575296C96.2362 0.447808 96.5705 0.823894 96.8764 1.22127L97.7301 2.47016C97.8653 2.68304 98.0289 2.87463 98.1427 3.09461L98.5056 3.76163C98.7403 4.20158 99.0035 4.63443 99.217 5.08858C99.623 6.01104 99.9676 6.95923 100.249 7.92697C100.391 8.40949 100.569 8.87783 100.69 9.34616L100.988 10.8221C101.038 11.0705 101.102 11.3117 101.138 11.5317L101.209 12.2839L101.365 13.7882V16.0519C101.365 16.3073 101.316 16.5557 101.294 16.804L101.145 18.3013C101.074 18.798 100.953 19.2876 100.86 19.7843C100.655 20.7672 100.389 21.7365 100.064 22.6866C99.8928 23.1549 99.6723 23.6091 99.4873 24.1058L99.1956 24.8154C99.0961 25.0447 98.982 25.2675 98.8541 25.4824L100.476 26.3126C101.802 23.7303 102.669 20.938 103.037 18.06V18.06Z" fill="#232626"/>
<path opacity="0.5" d="M63.3266 34.8919C62.9786 36.5713 62.7574 38.2744 62.665 39.9869C63.0165 40.2303 63.385 40.4485 63.7676 40.6397L64.9059 41.2499C65.6621 41.6549 66.444 42.0104 67.2464 42.3143C67.929 41.7825 68.5821 41.214 69.2028 40.6113C69.8288 40.0081 70.4335 39.3908 71.0026 38.7663C73.7908 39.6323 76.7069 40.0163 79.6248 39.9017C80.4543 41.3821 81.3836 42.8046 82.4065 44.1593C82.8328 44.1166 83.2559 44.0455 83.6727 43.9464L84.9319 43.6909C85.7739 43.5076 86.6032 43.2706 87.4147 42.9813C87.5855 42.1227 87.7278 41.2854 87.8274 40.4339C87.927 39.5824 87.9839 38.7096 88.0123 37.8652C90.702 36.7339 93.1723 35.1416 95.3114 33.1605C96.9194 33.789 98.569 34.3059 100.249 34.7074L101.878 32.7206C102.397 32.011 102.852 31.3014 103.3 30.5918C102.895 29.8396 102.433 29.0874 101.949 28.3636C101.465 27.6399 100.967 26.9445 100.455 26.2845L98.8684 25.4756L98.157 26.8025C97.8938 27.2354 97.595 27.6399 97.3175 28.0656L96.9049 28.6901L96.4283 29.279L95.4679 30.4428L94.4007 31.5143C94.2229 31.6917 94.0522 31.8762 93.8672 32.0465L93.2838 32.529C92.8926 32.8483 92.5155 33.1818 92.1171 33.4869L90.8935 34.3526C90.6921 34.5027 90.4832 34.6425 90.2675 34.7713L89.5988 35.1332C89.1577 35.3603 88.7237 35.6299 88.2684 35.8428C87.3439 36.2664 86.3935 36.6314 85.4228 36.9356C84.9391 37.0775 84.4695 37.2478 84 37.3684L82.5203 37.6736C82.2713 37.7232 82.0294 37.7871 81.8089 37.8155L81.0548 37.8935L79.5466 38.0496H77.2772C77.0282 38.0496 76.7721 38.0071 76.5231 37.9858L75.0221 37.8368C74.5241 37.7658 74.0332 37.6381 73.5423 37.5529C72.5566 37.3465 71.5849 37.0787 70.6327 36.7511C70.1561 36.5879 69.7008 36.3679 69.2099 36.1834L68.4985 35.8925C68.2698 35.7879 68.0466 35.6719 67.8298 35.5448L66.4994 34.8352C66.0726 34.5655 65.66 34.2746 65.2402 33.9979L64.6071 33.5792C64.4079 33.4302 64.2158 33.267 64.0237 33.1038L62.8499 32.1529L61.7757 31.0885C61.5978 30.9111 61.4129 30.7408 61.2421 30.5563L60.7584 29.9673C60.4454 29.5771 60.1039 29.201 59.798 28.8036L58.9514 27.5618L57.4575 28.5481C59.0209 30.9934 61.0083 33.1415 63.3266 34.8919V34.8919Z" fill="#232626"/>
<path opacity="0.5" d="M68.5839 -7.82575C67.9507 -8.38634 67.2891 -8.93982 66.599 -9.47202C65.9089 -10.0042 65.2189 -10.4726 64.4648 -10.9551C63.7005 -10.5651 62.9595 -10.1315 62.2452 -9.65651L61.1781 -8.94692C60.8181 -8.7139 60.4735 -8.45791 60.1466 -8.18055C60.4178 -6.48594 60.8149 -4.81378 61.3346 -3.17789C59.1935 -1.1971 57.4229 1.14804 56.1058 3.74778C54.3854 3.68374 52.6626 3.76207 50.9552 3.98195C50.7987 4.37932 50.6066 4.7696 50.4786 5.17407L50.0944 6.40167L49.7174 7.62928C49.6106 8.04794 49.5395 8.4737 49.447 8.89236C50.74 10.0264 52.1248 11.0517 53.5874 11.9578L53.4807 13.0435C53.4287 13.403 53.4049 13.766 53.4096 14.1292V16.3077L53.6372 18.479C53.6705 18.8405 53.7324 19.1988 53.8222 19.5505L54.0356 20.6149C52.676 21.6709 51.4055 22.8361 50.2367 24.099C50.3718 24.5035 50.4928 24.9222 50.6351 25.3195L51.1402 26.5046L51.6453 27.6896C51.816 28.0799 52.0508 28.4418 52.2428 28.8249C53.9691 28.8747 55.6966 28.7822 57.4077 28.5482V28.5482L58.9016 27.5761C58.7665 27.3632 58.6028 27.1716 58.4819 26.9445L58.1262 26.2846C57.8914 25.8446 57.6211 25.4118 57.4148 24.9576C56.9882 24.0371 56.6245 23.0888 56.3263 22.1193C56.184 21.6367 56.0062 21.1684 55.8852 20.7001L55.5793 19.2241C55.5367 18.9757 55.4655 18.7345 55.437 18.5145L55.3588 17.7623L55.2023 16.258V13.966C55.2023 13.7105 55.245 13.4622 55.2663 13.2138L55.4157 11.7166C55.4869 11.2198 55.6149 10.7302 55.7074 10.2335C55.9119 9.25043 56.178 8.28111 56.5042 7.33125C56.6678 6.86291 56.8883 6.40877 57.0733 5.91205L57.365 5.20245C57.4698 4.97438 57.5861 4.75175 57.7136 4.53543L58.425 3.20139C58.6953 2.77563 58.987 2.37116 59.2644 1.9454L59.6842 1.32096C59.8336 1.12227 60.0043 0.930678 60.1608 0.731991L61.1568 -0.389173L62.2239 -1.46067C62.4017 -1.63806 62.5725 -1.82256 62.7574 -1.99286L63.3408 -2.47539C63.7321 -2.79471 64.1091 -3.12822 64.5075 -3.43335L65.7596 -4.27777C65.9634 -4.42789 66.1747 -4.56763 66.3927 -4.69643L67.0543 -5.05832C67.5025 -5.2854 67.9293 -5.55504 68.3846 -5.76792C69.3092 -6.19152 70.2596 -6.5565 71.2303 -6.8607C71.714 -7.00262 72.1907 -7.17292 72.6531 -7.29356L74.1328 -7.59868C74.3818 -7.64835 74.6237 -7.71222 74.8442 -7.7406L75.5556 -7.81866L77.0638 -7.97477V-9.77005C74.1467 -9.60915 71.2786 -8.95157 68.5839 -7.82575V-7.82575Z" fill="#232626"/>
<path opacity="0.5" d="M73.2934 7.91277L72.4397 8.87073L71.3654 10.0558L66.3002 15.6616L70.9742 19.8482L73.1084 21.7783L74.0617 22.6369L78.7143 26.8306L82.9187 22.1615L83.7723 21.2035L84.8537 20.0327L85.7145 19.0747L89.9189 14.4269L85.2592 10.2402L82.1504 7.45153L77.4906 3.25781L73.2934 7.91277ZM81.2824 14.881C81.2967 15.218 81.2608 15.5551 81.1757 15.8815C81.0482 16.3637 80.8039 16.8071 80.4643 17.173C80.1287 17.5449 79.7093 17.8319 79.2407 18.0103C78.9282 18.1371 78.596 18.2091 78.259 18.2232C77.9229 18.2424 77.5861 18.204 77.263 18.1097C76.6151 17.9366 76.0389 17.5631 75.6172 17.0429C75.1954 16.5228 74.9496 15.8827 74.9153 15.2145C74.8924 14.8722 74.931 14.5286 75.0292 14.1998C75.1596 13.7189 75.4036 13.276 75.7406 12.9083C76.0724 12.5452 76.4838 12.2634 76.9429 12.0852C77.2583 11.9587 77.5923 11.8844 77.9317 11.8652V11.8652C78.2747 11.8498 78.618 11.8882 78.949 11.9788C79.5941 12.1561 80.1663 12.5323 80.5841 13.0535C81.0019 13.5747 81.2439 14.2144 81.2753 14.881H81.2824Z" fill="#232626"/>
<path opacity="0.5" d="M131.764 -15.9082H134.211C134.481 -15.9082 134.752 -15.8514 135.022 -15.8301L136.644 -15.674C137.185 -15.596 137.711 -15.4611 138.245 -15.3618C139.315 -15.1455 140.37 -14.8611 141.403 -14.5103C141.916 -14.3329 142.399 -14.0987 142.904 -13.9L143.658 -13.5878C143.907 -13.4814 144.142 -13.3323 144.37 -13.2117L145.793 -12.4453C146.255 -12.1544 146.696 -11.8422 147.151 -11.5442L147.863 -11.09C148.076 -10.9268 148.283 -10.7494 148.496 -10.5791L149.755 -9.55018L150.915 -8.40064C151.107 -8.20904 151.306 -8.02455 151.491 -7.82586L152.01 -7.20141C152.352 -6.78275 152.722 -6.37828 153.049 -5.94543L153.96 -4.60429C154.124 -4.37742 154.274 -4.14041 154.408 -3.89469L154.799 -3.18509C155.048 -2.70257 155.34 -2.24133 155.567 -1.7659C156.025 -0.784163 156.419 0.225488 156.748 1.25699C156.898 1.77499 157.09 2.2859 157.218 2.811L157.517 4.42179C157.566 4.69144 157.645 4.95399 157.673 5.22363L157.766 5.9971L157.936 7.61498V10.056C157.936 10.3327 157.887 10.5953 157.865 10.8649L157.702 12.4828C157.63 13.0221 157.488 13.5472 157.396 14.0794C157.167 15.1337 156.878 16.1739 156.528 17.1945C156.35 17.7055 156.108 18.1951 155.909 18.6989L155.631 19.4582C155.52 19.7019 155.394 19.9389 155.254 20.1678L157.766 21.4521C158.114 20.8129 158.421 20.1515 158.683 19.4724L159.103 18.4647C159.238 18.1241 159.331 17.7551 159.445 17.4216L163.855 18.8408C164.062 18.1312 164.275 17.4926 164.474 16.8185L164.88 14.7819L165.086 13.753L165.193 12.7028L165.399 10.574L160.768 10.3327C160.819 8.88801 160.766 7.4415 160.611 6.00419L165.228 5.51457L165.122 4.47146L165.065 3.94636L164.965 3.43545L164.538 1.37052C164.384 0.684532 164.194 0.00710812 163.969 -0.658927L163.649 -1.65946C163.553 -1.99818 163.434 -2.33007 163.293 -2.6529L158.954 -0.999533L158.093 -3.00769C157.773 -3.66762 157.381 -4.29207 157.054 -4.9378L161.074 -7.25818C160.739 -7.88115 160.366 -8.48307 159.957 -9.06056C159.551 -9.62824 159.181 -10.2314 158.74 -10.7778C157.881 -11.89 156.947 -12.9427 155.944 -13.9284L152.658 -10.6572C151.627 -11.686 150.518 -12.6349 149.343 -13.4955L152.074 -17.228C150.938 -18.049 149.75 -18.7956 148.517 -19.4633L147.585 -19.96C147.279 -20.1321 146.963 -20.2861 146.639 -20.4212L144.697 -21.2373L143.025 -16.9158L142.52 -17.1287L141.994 -17.2848L140.927 -17.5757L139.881 -17.895L138.807 -18.1079L139.767 -22.6352C139.056 -22.77 138.387 -22.9332 137.69 -23.0325L135.591 -23.2454C135.243 -23.2454 134.88 -23.3235 134.538 -23.3306H131.372L131.7 -17.1642L131.764 -15.9082Z" fill="#5A6055"/>
<path opacity="0.5" d="M155.219 20.1821L154.45 21.6013C154.166 22.0555 153.846 22.5025 153.547 22.9567L153.099 23.6663C152.935 23.8791 152.75 24.0849 152.579 24.2978L151.555 25.5609L150.403 26.7104C150.21 26.902 150.026 27.1007 149.826 27.2852L149.229 27.8387C148.809 28.1793 148.403 28.5483 147.977 28.8747L146.625 29.7901C146.397 29.932 146.184 30.1094 145.949 30.2371L145.238 30.6203C144.754 30.8758 144.292 31.1596 143.815 31.3867C142.831 31.8428 141.818 32.2362 140.784 32.5646C140.265 32.7207 139.753 32.9052 139.226 33.04L137.633 33.3665C137.37 33.4161 137.106 33.4871 136.836 33.5226L136.018 33.6006L134.396 33.7709H131.949C131.678 33.7709 131.408 33.7212 131.138 33.7L129.494 33.5509C128.961 33.48 128.427 33.3452 127.901 33.2458C126.838 33.0271 125.79 32.7403 124.763 32.3872C124.251 32.2098 123.76 31.9685 123.255 31.7699L122.501 31.4222C122.252 31.3228 122.025 31.1738 121.79 31.0532L120.367 30.2797C119.905 29.9959 119.464 29.6765 119.008 29.3785L118.297 28.9315C118.083 28.7683 117.877 28.5909 117.671 28.4206L116.404 27.3916L115.245 26.2421C115.053 26.0505 114.854 25.866 114.669 25.6673L114.149 25.0429C113.808 24.6171 113.438 24.2126 113.111 23.7869L112.2 22.4386L109.817 23.9856C110.244 24.5816 110.621 25.2061 111.076 25.7738L112.499 27.4555L109.049 30.5564C109.518 31.0815 110.037 31.557 110.528 32.0608L111.282 32.7704C111.531 33.0187 111.816 33.2245 112.079 33.48L113.715 34.814C114.284 35.2256 114.875 35.6017 115.458 35.992L117.927 32.0963C118.233 32.295 118.532 32.5078 118.845 32.6923L119.812 33.2103C120.44 33.5808 121.094 33.9057 121.768 34.1825L119.883 38.4401L121.847 39.1922C122.508 39.4264 123.184 39.618 123.86 39.8309L124.87 40.136C125.21 40.2293 125.554 40.3051 125.902 40.3631L127.972 40.7817L128.683 36.2119C129.395 36.3184 130.106 36.361 130.86 36.4461C131.588 36.523 132.32 36.5467 133.051 36.5171V41.1507C135.869 41.1595 138.675 40.8089 141.403 40.1076L140.215 35.6443L142.307 34.9914C142.656 34.88 142.998 34.7473 143.331 34.5941L144.341 34.1683L146.227 38.4259L147.201 38.0072L148.126 37.5034L149.976 36.4887L151.726 35.3037C152.01 35.105 152.309 34.9134 152.587 34.7005L153.405 34.0335L150.481 30.4358L151.32 29.7262L151.747 29.3785C151.882 29.2579 152.003 29.1231 152.131 28.9953L153.675 27.4413L157.125 30.5352L158.477 28.8818C158.69 28.6051 158.925 28.3425 159.132 28.0587L159.722 27.1859C160.113 26.604 160.519 26.0292 160.882 25.4332L161.878 23.5811L156.343 20.7427L155.219 20.1821Z" fill="#5A6055"/>
<path opacity="0.5" d="M112.172 22.4028C112.004 22.1785 111.854 21.9413 111.723 21.6932L111.332 20.9836C111.083 20.5082 110.792 20.047 110.564 19.5644C110.109 18.5898 109.717 17.5873 109.39 16.5628C109.241 16.0377 109.049 15.5339 108.921 15.0088L108.593 13.4122C108.543 13.1497 108.465 12.8871 108.437 12.6175L108.359 11.8085L108.188 10.1907V7.74254C108.2 7.47172 108.226 7.20171 108.266 6.9336L108.423 5.31572C108.501 4.78352 108.636 4.25842 108.736 3.72622C108.955 2.66575 109.242 1.62048 109.596 0.596895C109.767 0.0859847 110.009 -0.403637 110.208 -0.907451L110.521 -1.65962C110.621 -1.90798 110.777 -2.13505 110.898 -2.36922L111.667 -3.78842C111.951 -4.24965 112.271 -4.6896 112.57 -5.14375L113.018 -5.85334C113.182 -6.07332 113.367 -6.27201 113.538 -6.48489L114.569 -7.74797L115.714 -8.89752C115.907 -9.08911 116.092 -9.2878 116.291 -9.47939L116.924 -9.99739C117.344 -10.338 117.749 -10.707 118.176 -11.0263L119.528 -11.9417C119.754 -12.1077 119.991 -12.2572 120.239 -12.3887L120.95 -12.7719C121.434 -13.0274 121.897 -13.3112 122.373 -13.5454C123.357 -14.0064 124.369 -14.4046 125.404 -14.7375C125.923 -14.8936 126.435 -15.0852 126.962 -15.2129L128.555 -15.5393C128.826 -15.589 129.089 -15.66 129.352 -15.6955L130.17 -15.7735L131.792 -15.9438L131.643 -18.7822C130.184 -18.6832 128.734 -18.484 127.303 -18.1861L126.343 -22.7134C124.962 -22.4355 123.602 -22.0609 122.274 -21.5922C121.939 -21.4903 121.611 -21.3671 121.292 -21.2232L120.317 -20.8117C119.661 -20.5508 119.02 -20.2547 118.396 -19.9247L120.531 -15.8019L118.638 -14.7375L116.831 -13.5028L114.1 -17.2495C111.81 -15.5932 109.748 -13.6441 107.967 -11.4521L111.524 -8.50724L110.813 -7.64153C110.592 -7.3506 110.407 -7.03837 110.194 -6.74034L109.589 -5.83206L109.283 -5.37791C109.191 -5.2218 109.105 -5.05859 109.02 -4.89539L105.001 -7.21577L103.998 -5.35663C103.827 -5.05016 103.677 -4.73248 103.549 -4.40577L103.144 -3.43362C102.595 -2.13897 102.134 -0.809035 101.764 0.547223L106.253 1.74644C106.139 2.09384 106.053 2.44978 105.997 2.81084L105.833 3.86104C105.769 4.21584 105.662 4.57064 105.634 4.93254L105.527 6.01822L100.853 5.54279C100.562 8.3353 100.625 11.1532 101.038 13.9302L105.627 13.2206L106.068 15.3494L106.182 15.8887L106.345 16.4067L106.672 17.4498L102.255 18.869L102.575 19.8696C102.674 20.2102 102.838 20.5224 102.966 20.8488L103.798 22.786C104.097 23.4176 104.46 24.0278 104.794 24.6452L105.299 25.5676C105.47 25.8728 105.684 26.1566 105.876 26.4475L111.069 23.084L112.172 22.4028Z" fill="#5A6055"/>
<path opacity="0.5" d="M132.24 -6.7331C135.47 -6.87193 138.666 -6.02534 141.401 -4.30621C144.137 -2.58709 146.281 -0.0771102 147.55 2.88905C148.753 5.84079 149.035 9.08573 148.36 12.1999C147.684 15.3141 146.083 18.1528 143.765 20.3451C133.272 30.2369 115.487 21.0122 117.493 6.78474C118.032 3.19285 119.79 -0.105731 122.475 -2.55971C125.159 -5.01368 128.606 -6.47436 132.24 -6.69762C135.214 -6.9105 134.986 -11.53 131.999 -11.3171C127.821 -11.0584 123.822 -9.53858 120.531 -6.95944C117.24 -4.38031 114.813 -0.863822 113.573 3.12321C112.393 7.12956 112.473 11.4007 113.804 15.3599C115.135 19.319 117.652 22.7756 121.014 25.2627C124.396 27.7127 128.448 29.0745 132.626 29.1658C136.805 29.2571 140.912 28.0736 144.398 25.7736C147.829 23.4217 150.465 20.0899 151.962 16.2159C153.459 12.3418 153.746 8.10676 152.786 4.06698C150.566 -5.41325 141.56 -11.6577 131.991 -11.3526C129.011 -11.2603 129.253 -6.63375 132.24 -6.7331Z" fill="#5A6055"/>
<path opacity="0.5" d="M132.866 4.65591C138.351 4.60624 138.814 12.8589 133.308 13.1711C127.801 13.4833 127.41 5.2023 132.866 4.65591C137.846 4.19467 137.434 -3.51865 132.468 -3.05032C125.959 -2.43297 120.787 2.81805 121.086 9.52375C121.163 11.0952 121.551 12.636 122.226 14.0578C122.902 15.4795 123.852 16.7543 125.022 17.8091C126.193 18.8638 127.56 19.6778 129.047 20.2043C130.533 20.7308 132.109 20.9595 133.685 20.8773C135.26 20.7992 136.804 20.4119 138.229 19.7378C139.654 19.0636 140.932 18.1158 141.989 16.9485C143.046 15.7812 143.862 14.4174 144.39 12.9352C144.919 11.4529 145.149 9.88134 145.067 8.31034C144.718 1.61174 138.985 -3.04322 132.468 -3.04322C127.446 -3.00065 127.887 4.70558 132.866 4.65591Z" fill="#5A6055"/>
<path opacity="0.5" d="M124.843 7.52095L105.491 8.52246L105.678 12.1224L125.03 11.1209L124.843 7.52095Z" fill="#5A6055"/>
<path opacity="0.5" d="M113.829 -10.7993L111.414 -8.12695L125.809 4.81448L128.224 2.14216L113.829 -10.7993Z" fill="#5A6055"/>
<path opacity="0.5" d="M150.117 -12.6908L137.142 1.66699L139.822 4.0757L152.796 -10.2821L150.117 -12.6908Z" fill="#5A6055"/>
<path opacity="0.5" d="M160.426 5.67719L141.074 6.67871L141.261 10.2786L160.614 9.27711L160.426 5.67719Z" fill="#5A6055"/>
<path opacity="0.5" d="M140.29 12.9864L137.875 15.6587L152.269 28.6001L154.684 25.9278L140.29 12.9864Z" fill="#5A6055"/>
<path opacity="0.5" d="M135.275 16.9045L131.666 17.0913L132.67 36.3948L136.279 36.208L135.275 16.9045Z" fill="#5A6055"/>
<path opacity="0.5" d="M126.262 13.7169L113.288 28.0747L115.967 30.4834L128.941 16.1256L126.262 13.7169Z" fill="#5A6055"/>
</g>
<path d="M52.8049 230.634L51.7662 232.564L51.2398 233.529C51.0549 233.849 50.8272 234.14 50.628 234.445L49.3831 236.254C48.9491 236.843 48.444 237.375 47.9602 237.943C47.0085 239.057 45.9867 240.109 44.9012 241.094C44.3605 241.59 43.7558 242.016 43.1938 242.513L42.333 243.223C42.0484 243.457 41.7212 243.627 41.4224 243.833L39.5727 244.975C38.9325 245.337 38.2709 245.649 37.6235 245.997L36.6489 246.508C36.3145 246.657 35.9375 246.785 35.6245 246.927L33.5827 247.75L31.4485 248.374C31.0928 248.474 30.7371 248.594 30.3885 248.686L29.3072 248.892C28.5958 249.02 27.8844 249.183 27.173 249.304L24.9818 249.51C24.6119 249.51 24.2704 249.609 23.8863 249.602H20.5782C19.1139 249.505 17.6574 249.316 16.2173 249.034C15.5059 248.885 14.7945 248.779 14.0831 248.587L11.9489 247.941C11.6003 247.828 11.2375 247.743 10.9031 247.608L9.88581 247.175L7.8512 246.331L5.91615 245.266L4.94865 244.748C4.62852 244.564 4.33686 244.337 4.03095 244.131L2.22395 242.846C1.63349 242.407 1.09993 241.903 0.530805 241.427C-0.589076 240.484 -1.64432 239.467 -2.62784 238.383C-3.12582 237.837 -3.55263 237.241 -4.01504 236.68L-4.72645 235.821C-4.96121 235.538 -5.13198 235.211 -5.33829 234.906L-8.51113 237.035C-7.97437 237.863 -7.38258 238.655 -6.73974 239.405L-5.82204 240.562C-5.50902 240.945 -5.11064 241.271 -4.80474 241.633L-9.37195 245.891C-8.70323 246.6 -8.04874 247.26 -7.3729 247.927L-5.1462 249.822L-4.05065 250.737L-2.87681 251.546L-0.522061 253.15L2.77175 247.828C4.46927 248.835 6.23552 249.722 8.05749 250.482L5.61737 256.293L6.92633 256.84L7.58798 257.116L8.29939 257.329L11.024 258.16C11.9371 258.432 12.866 258.647 13.8057 258.805L15.2285 259.082C15.6978 259.186 16.1729 259.262 16.6513 259.309L17.4979 253.107L20.443 253.398C21.4248 253.441 22.4208 253.398 23.4025 253.398L23.5519 259.657C24.5031 259.66 25.4536 259.604 26.3975 259.487C27.3437 259.38 28.297 259.338 29.2432 259.167C31.1208 258.867 32.9768 258.446 34.7992 257.904L33.042 251.894C34.9398 251.349 36.7926 250.658 38.5839 249.829L41.2588 255.506C42.9791 254.69 44.6428 253.761 46.2386 252.724L47.4338 251.951C47.8399 251.701 48.2297 251.426 48.6005 251.127L50.8343 249.361L46.7793 244.578L47.3626 244.117L47.8891 243.606L48.9562 242.57L50.0162 241.541L50.9695 240.413L55.7288 244.486C56.3335 243.776 56.9737 243.066 57.5429 242.286L59.1578 239.944C59.421 239.547 59.7055 239.164 59.9403 238.752L60.6517 237.51L61.9109 235.005L54.3771 231.379L52.8049 230.634Z" fill="#232626"/>
<path d="M-5.31694 234.942L-6.51922 233.104C-6.88203 232.465 -7.23062 231.805 -7.54364 231.159L-8.05588 230.187C-8.20527 229.847 -8.3333 229.478 -8.47558 229.165L-9.30084 227.129L-9.92683 225C-10.0264 224.645 -10.1474 224.291 -10.2399 223.943L-10.4462 222.864C-10.5742 222.155 -10.7379 221.445 -10.8588 220.735L-11.0651 218.543C-11.0651 218.181 -11.1647 217.833 -11.1576 217.45V214.157C-11.0604 212.699 -10.8703 211.249 -10.5885 209.815C-10.432 209.105 -10.3324 208.396 -10.1403 207.686L-9.49289 205.557C-9.37906 205.209 -9.29371 204.848 -9.15855 204.514L-8.7246 203.499L-7.87803 201.47L-6.81092 199.54L-6.29156 198.568C-6.1066 198.255 -5.87895 197.964 -5.67264 197.659L-4.4348 195.843C-3.99373 195.261 -3.48864 194.722 -3.01199 194.154C-2.06266 193.04 -1.04331 191.988 0.0399205 191.003C0.587703 190.514 1.1853 190.088 1.74731 189.62L2.60813 188.91C2.89269 188.676 3.21992 188.506 3.52582 188.3L5.36838 187.093C6.00865 186.739 6.67025 186.384 7.31763 186.072L8.29225 185.561C8.63373 185.412 9.00366 185.291 9.31668 185.149L11.3584 184.319L13.4926 183.702C13.8483 183.602 14.204 183.482 14.5526 183.389L15.6268 183.24C16.3382 183.106 17.0497 182.942 17.7611 182.829L19.9593 182.623L19.6676 178.805C18.6859 178.919 17.697 178.961 16.7224 179.125L13.8128 179.692L12.39 173.604C11.458 173.81 10.5616 174.115 9.64389 174.377L8.27801 174.782C7.82271 174.917 7.38876 175.123 6.94768 175.293L4.30128 176.357C3.44759 176.762 2.60813 177.223 1.76155 177.656L4.7281 183.169C4.29414 183.404 3.84595 183.609 3.42622 183.879L2.18838 184.66C1.34276 185.168 0.532328 185.732 -0.237495 186.348L-4.03642 181.381L-6.27024 183.155C-6.98165 183.787 -7.65035 184.468 -8.34041 185.121L-9.35772 186.114C-9.69919 186.448 -9.98376 186.824 -10.2968 187.186L-12.1393 189.364L-7.1595 193.196C-7.75708 193.977 -8.28352 194.814 -8.85265 195.616C-9.42113 196.42 -9.92992 197.264 -10.375 198.142L-15.8813 195.14C-17.7118 198.47 -19.1102 202.018 -20.043 205.699L-13.9463 207.189L-14.5297 210.091C-14.6221 210.575 -14.6862 211.063 -14.7217 211.553L-14.864 213.022L-21.1173 212.511L-21.2524 213.93V218.188L-20.9821 221.026C-20.9252 221.502 -20.8967 221.97 -20.8256 222.446L-20.5552 223.865L-14.3874 222.751L-14.1028 224.17L-13.9605 224.879C-13.9036 225.121 -13.8253 225.355 -13.7542 225.589L-12.9076 228.427L-18.8336 230.492L-17.7665 233.132C-17.5816 233.572 -17.4179 234.019 -17.2187 234.445L-16.5643 235.708C-16.1232 236.552 -15.7035 237.404 -15.2268 238.227L-13.676 240.611L-6.76111 235.921L-5.31694 234.942Z" fill="#232626"/>
<path d="M19.9877 182.595C20.3505 182.595 20.6991 182.495 21.0833 182.502H24.3842C25.8457 182.603 27.2997 182.792 28.738 183.07C29.4494 183.226 30.1608 183.333 30.8722 183.517L33.0064 184.17C33.355 184.283 33.7178 184.361 34.0522 184.496L35.0695 184.929L37.1042 185.781L39.0392 186.838L40.0138 187.363C40.3268 187.548 40.6185 187.775 40.9244 187.973L42.7456 189.215C43.3289 189.648 43.8696 190.152 44.4387 190.634C45.5536 191.586 46.6085 192.605 47.5974 193.686C48.0883 194.225 48.5151 194.828 49.0202 195.389L49.7316 196.247C49.9664 196.531 50.1371 196.857 50.3434 197.155L51.5457 199C51.9085 199.639 52.2571 200.299 52.5772 200.945L53.0894 201.917C53.2388 202.25 53.3598 202.627 53.502 202.939L54.3344 204.975L54.9533 207.104C55.0529 207.459 55.1738 207.814 55.2663 208.161L55.4727 209.24C55.6078 209.95 55.7714 210.659 55.8852 211.369L56.0916 213.554C56.0916 213.923 56.1912 214.264 56.1841 214.647V217.94C56.0833 219.4 55.8932 220.852 55.6149 222.289C55.4584 222.999 55.3517 223.709 55.1668 224.418L54.5122 226.547C54.3984 226.895 54.3202 227.257 54.185 227.59L53.751 228.605L52.8974 230.634L56.3548 232.295C57.1905 230.505 57.9035 228.66 58.489 226.774L64.5004 228.576C65.0572 226.762 65.4944 224.913 65.8094 223.042C65.9087 222.574 65.9729 222.1 66.0014 221.622L66.1508 220.203C66.2681 219.261 66.3323 218.314 66.3429 217.365L60.0683 217.18V214.221L59.7838 211.284L66.0014 210.482C65.4691 206.724 64.4429 203.052 62.9495 199.561L57.1444 201.931L56.5896 200.562C56.3904 200.107 56.1414 199.682 55.9208 199.242L55.2094 197.929L54.8679 197.276C54.7399 197.063 54.5976 196.865 54.4695 196.652L59.8336 193.402L58.2756 191.017C58.0283 190.608 57.755 190.214 57.4575 189.84L56.5753 188.718C55.3931 187.23 54.1095 185.824 52.7337 184.51L48.4013 189.031C48.0525 188.681 47.6844 188.352 47.2986 188.044L46.1675 187.093C45.8036 186.759 45.4187 186.449 45.015 186.164L43.7913 185.327L47.3484 180.175C44.214 178.022 40.8229 176.268 37.2535 174.952L35.1193 180.842L32.2737 179.976L31.5623 179.763L30.8509 179.614L29.4281 179.33L30.5948 173.178L29.172 172.901C28.7095 172.802 28.2258 172.788 27.7491 172.731L24.9035 172.454C23.9574 172.398 23.0041 172.454 22.0579 172.454H20.6351C20.1584 172.454 19.6818 172.532 19.2123 172.568L19.8383 180.884L19.9877 182.595Z" fill="#232626"/>
<path d="M41.586 225.241C37.5808 233.125 29.1578 238.106 20.2438 237.099C15.9489 236.612 11.9016 234.841 8.63275 232.02C5.36385 229.199 3.02582 225.458 1.92515 221.289C-3.012 202.463 19.4826 187.413 35.098 199.029C39.0284 201.994 41.8179 206.216 42.9991 210.988C44.1802 215.76 43.6813 220.792 41.586 225.241C39.9071 228.896 45.5557 231.628 47.2346 227.959C49.6393 222.851 50.4298 217.135 49.5009 211.568C48.5721 206.002 45.968 200.849 42.0342 196.794C38.0397 192.795 32.9109 190.116 27.341 189.119C21.771 188.121 16.0283 188.853 10.8888 191.216C7.61763 192.73 4.67746 194.872 2.23626 197.519C-0.204938 200.166 -2.0993 203.268 -3.33866 206.645C-4.57801 210.023 -5.13809 213.611 -4.98682 217.205C-4.83556 220.799 -3.97593 224.328 -2.45709 227.59C-0.760658 231.235 1.71901 234.464 4.80612 237.046C7.89322 239.629 11.5121 241.503 15.4063 242.534C28.112 246.082 41.3868 239.469 47.2346 227.959C49.0629 224.397 43.4143 221.644 41.586 225.241Z" fill="#232626"/>
<path d="M27.6638 218.543C24.1708 225.064 14.0546 220.253 17.2915 213.576C20.5284 206.898 30.5948 211.78 27.6638 218.543C25.0103 224.695 34.4151 229.258 37.09 223.077C40.583 214.981 37.6947 205.451 29.5206 201.477C27.5868 200.586 25.4959 200.084 23.3674 199.999C21.239 199.914 19.1146 200.248 17.1156 200.982C15.1166 201.716 13.2821 202.836 11.717 204.277C10.1518 205.718 8.88652 207.453 7.99346 209.382C6.229 213.193 6.01885 217.539 7.40737 221.502C8.79589 225.465 11.6744 228.735 15.4348 230.62C23.6231 234.558 32.9282 230.819 37.09 223.077C40.27 217.152 30.8367 212.632 27.6638 218.543Z" fill="#232626"/>
<path d="M36.4214 181.598L25.0488 205.127L29.4448 207.241L40.8174 183.713L36.4214 181.598Z" fill="#232626"/>
<path d="M56.7585 201.517L32.0373 210.133L33.6471 214.729L58.3683 206.113L56.7585 201.517Z" fill="#232626"/>
<path d="M33.4286 218.622L31.3092 223.006L54.8976 234.35L57.0171 229.965L33.4286 218.622Z" fill="#232626"/>
<path d="M28.3996 225.594L23.7925 227.2L32.4304 251.858L37.0375 250.252L28.3996 225.594Z" fill="#232626"/>
<path d="M15.5031 224.876L4.13043 248.404L8.52644 250.518L19.8991 226.99L15.5031 224.876Z" fill="#232626"/>
<path d="M11.2897 217.37L-13.4315 225.986L-11.8217 230.582L12.8994 221.966L11.2897 217.37Z" fill="#232626"/>
<path d="M-9.9529 197.767L-12.0723 202.151L11.5161 213.495L13.6355 209.11L-9.9529 197.767Z" fill="#232626"/>
<path d="M12.5155 180.252L7.90833 181.858L16.5462 206.516L21.1533 204.911L12.5155 180.252Z" fill="#232626"/>
</g>
</g>
<defs>
<clipPath id="clip0_1056_5">
<rect width="319.691" height="302.317" fill="white" transform="translate(-21.2524 -23.3306)"/>
</clipPath>
</defs>
</svg>
