<svg width="23" height="20" viewBox="0 0 23 20" fill="none" xmlns="http://www.w3.org/2000/svg">
<path d="M1.52038 11.4222L1.59814 11.2999L6.28704 3.96475C6.35557 3.85736 6.51667 3.86846 6.56851 3.98512C7.35185 5.74067 8.02777 7.92401 7.71112 9.28328C7.57593 9.84254 7.20557 10.5999 6.78888 11.2999C6.7352 11.4018 6.67593 11.5018 6.61296 11.5981C6.58332 11.6425 6.53333 11.6685 6.47961 11.6685H1.65741C1.52777 11.6685 1.45185 11.5277 1.52038 11.4222Z" fill="white"/>
<path d="M22.4204 12.7833V13.9444C22.4204 14.0111 22.3797 14.0704 22.3204 14.0963C21.9575 14.2518 20.7149 14.8222 20.1982 15.5407C18.8797 17.3759 17.8723 20 15.6204 20H6.226C2.8964 20 0.198242 17.2926 0.198242 13.9518V13.8444C0.198242 13.7555 0.270448 13.6833 0.359345 13.6833H5.5964C5.70008 13.6833 5.776 13.7796 5.76677 13.8815C5.72971 14.2222 5.79269 14.5704 5.95379 14.887C6.2649 15.5185 6.90935 15.913 7.60563 15.913H10.1982V13.8889H7.63526C7.50379 13.8889 7.42604 13.737 7.50196 13.6296C7.52971 13.587 7.56122 13.5426 7.59453 13.4926C7.83714 13.1482 8.18343 12.613 8.52787 12.0037C8.76306 11.5926 8.99082 11.1537 9.17416 10.713C9.21122 10.6333 9.24082 10.5518 9.27045 10.4722C9.32045 10.3315 9.37232 10.2 9.40935 10.0685C9.4464 9.95739 9.476 9.84073 9.50563 9.73147C9.59269 9.35739 9.62971 8.9611 9.62971 8.55C9.62971 8.3889 9.62232 8.22037 9.60751 8.05926C9.60008 7.88334 9.57787 7.70739 9.55563 7.53147C9.54082 7.37592 9.51306 7.22221 9.48343 7.0611C9.4464 6.82592 9.39453 6.59261 9.33526 6.35739L9.3149 6.26853C9.27045 6.10739 9.23343 5.95371 9.18159 5.79261C9.03526 5.28702 8.86677 4.79445 8.68898 4.33334C8.62416 4.15 8.55008 3.97408 8.476 3.79816C8.36677 3.53335 8.25563 3.29261 8.15379 3.06482C8.10195 2.9611 8.05751 2.86665 8.01306 2.77037C7.96306 2.6611 7.91122 2.55184 7.85935 2.44816C7.82232 2.36853 7.77971 2.29445 7.75008 2.22037L7.43343 1.63518C7.38898 1.55555 7.46306 1.4611 7.55008 1.48518L9.53159 2.02221H9.53714C9.54082 2.02221 9.54269 2.02408 9.54453 2.02408L9.80563 2.09629L10.0927 2.17779L10.1982 2.20739V1.02963C10.1982 0.461103 10.6538 0 11.2168 0C11.4982 0 11.7538 0.114816 11.9371 0.301838C12.1204 0.488897 12.2353 0.744448 12.2353 1.02963V2.77779L12.4464 2.83702C12.4631 2.84261 12.4797 2.85 12.4945 2.8611C12.5464 2.9 12.6204 2.95739 12.7149 3.02779C12.789 3.08702 12.8686 3.15926 12.9649 3.23334C13.1556 3.38702 13.3834 3.58518 13.6334 3.81298C13.7001 3.87037 13.7649 3.92963 13.8242 3.9889C14.1464 4.2889 14.5075 4.64074 14.852 5.02963C14.9482 5.1389 15.0427 5.25 15.139 5.36665C15.2353 5.48518 15.3371 5.60184 15.426 5.71853C15.5427 5.87408 15.6686 6.03518 15.7779 6.20371C15.8297 6.28334 15.889 6.36482 15.939 6.44445C16.0797 6.65739 16.2038 6.87779 16.3223 7.09816C16.3723 7.2 16.4242 7.3111 16.4686 7.42037C16.6001 7.71481 16.7038 8.01482 16.7704 8.31482C16.7908 8.37963 16.8056 8.45 16.8131 8.51298V8.52779C16.8353 8.61665 16.8427 8.7111 16.8501 8.80739C16.8797 9.11482 16.8649 9.4222 16.7982 9.73147C16.7704 9.86298 16.7334 9.98702 16.689 10.1185C16.6445 10.2444 16.6001 10.3759 16.5427 10.5C16.4316 10.7574 16.3001 11.0148 16.1445 11.2556C16.0945 11.3444 16.0353 11.4389 15.976 11.5278C15.9112 11.6222 15.8445 11.7111 15.7853 11.7982C15.7038 11.9093 15.6168 12.0259 15.5279 12.1296C15.4482 12.2389 15.3668 12.3482 15.2779 12.4444C15.1538 12.5907 15.0353 12.7296 14.9112 12.863C14.8371 12.95 14.7575 13.0389 14.676 13.1185C14.5964 13.2074 14.5149 13.287 14.4408 13.3611C14.3168 13.4852 14.2131 13.5815 14.126 13.6611L13.9223 13.8482C13.8927 13.8741 13.8538 13.8889 13.8131 13.8889H12.2353V15.913H14.2204C14.6649 15.913 15.0871 15.7555 15.4279 15.4667C15.5445 15.3648 16.0538 14.9241 16.6556 14.2593C16.676 14.237 16.702 14.2204 16.7316 14.213L22.2149 12.6278C22.3168 12.5982 22.4204 12.6759 22.4204 12.7833Z" fill="white"/>
</svg>
