<svg width="1629" height="300" viewBox="0 0 1629 300" fill="none" xmlns="http://www.w3.org/2000/svg">
<path d="M0.100001 243.8V297H84.1C90.2333 297 94.5 295 96.9 291C99.3 287 100.5 283.133 100.5 279.4V253.4L42.9 40.6H87.3L101.3 53.4V0.599977H20.5C18.1 0.599977 15.7 1.26664 13.3 2.59998C11.1667 3.93332 9.16667 5.66666 7.3 7.79998C5.7 9.66665 4.23333 11.6667 2.9 13.8C1.83333 15.9333 1.3 17.9333 1.3 19.8V45.8L57.7 257.4H14.9L0.100001 243.8ZM109.381 20.6H146.181L181.381 109.4V36.2L170.181 20.6H232.181L221.381 36.6V299L218.181 299.8L158.981 143V260.6L169.781 275.8H109.381L120.581 260.6V36.2L109.381 20.6ZM315.544 147.4H287.944V241H313.944L327.544 229.4V275.8H238.344L249.544 260.2V147.8H236.744L249.544 112.6V37L238.344 21H327.544V67L313.944 55.4H287.944V111.8H330.344L315.544 147.4ZM462.725 275.8H401.925L413.125 260.6V148.2H389.125V260.6L399.925 275.8H339.125L350.725 260.6V148.2H337.525L350.725 112.6V41.8C350.992 38.3333 352.325 35.4 354.725 33C357.392 30.3333 360.458 28.2 363.925 26.6C367.658 24.7333 371.525 23.4 375.525 22.6C379.792 21.5333 383.658 21 387.125 21H414.325C417.792 21 421.525 21.4 425.525 22.2C429.525 23 433.258 24.3333 436.725 26.2C440.458 27.8 443.525 29.9333 445.925 32.6C448.592 35.2667 450.192 38.3333 450.725 41.8V260.6L462.725 275.8ZM389.125 55V111.8H412.725V55H389.125ZM479.631 36.6L468.031 21H528.831L518.031 36.6V102.2L541.631 35V21H591.631L579.631 37V36.6L548.831 128.2L579.631 260.2L591.631 275.8H542.031V261.4L518.031 162.6V260.6L528.831 275.8H468.031L479.631 260.6V148.2H466.431L479.631 113V36.6ZM717.738 21L706.138 36.6L672.538 176.2V260.2L684.138 275.8H624.138L635.738 259.4V176.2L606.538 38.2L594.538 21H654.938L644.138 36.2L656.138 103L667.738 36.2L657.338 21H717.738ZM928.459 45.4L943.259 59.4V0.199983H901.659C890.726 0.199983 880.993 2.73332 872.459 7.79998C864.193 12.8666 856.993 19.5333 850.859 27.8C844.726 35.8 839.526 45 835.259 55.4C831.259 65.8 828.059 76.4667 825.659 87.4C823.259 98.0667 821.526 108.6 820.459 119C819.393 129.4 818.859 138.6 818.859 146.6C818.859 153.533 819.526 162.067 820.859 172.2C822.193 182.333 824.193 193 826.859 204.2C829.793 215.4 833.393 226.6 837.659 237.8C842.193 248.733 847.526 258.6 853.659 267.4C859.793 276.2 866.859 283.4 874.859 289C883.126 294.333 892.326 297 902.459 297H945.659V169L958.859 151H902.059V248.2H898.859C894.326 248.2 890.193 246.2 886.459 242.2C882.993 237.933 879.793 232.6 876.859 226.2C874.193 219.8 871.793 212.733 869.659 205C867.793 197.267 866.193 189.667 864.859 182.2C863.526 174.467 862.593 167.4 862.059 161C861.526 154.6 861.259 149.667 861.259 146.2C861.259 138.2 861.793 129.267 862.859 119.4C864.193 109.267 866.326 99.4 869.259 89.8C872.193 80.2 876.193 71.4 881.259 63.4C886.326 55.4 892.859 49.4 900.859 45.4H928.459ZM1040.91 235L1037.31 234.2H1037.71C1031.57 231.267 1026.24 226.6 1021.71 220.2C1017.44 213.8 1013.97 206.733 1011.31 199C1008.64 191 1006.64 182.733 1005.31 174.2C1004.24 165.667 1003.71 157.8 1003.71 150.6V144.6C1003.71 137.133 1004.24 129.267 1005.31 121C1006.64 112.733 1008.51 104.733 1010.91 97C1013.57 89.2667 1017.04 82.3333 1021.31 76.2C1025.57 69.8 1030.91 64.8667 1037.31 61.4V61.8L1041.71 60.6C1049.44 64.6 1055.57 70.0667 1060.11 77C1064.91 83.9333 1068.51 91.4 1070.91 99.4C1073.31 107.4 1074.91 115.667 1075.71 124.2C1076.51 132.467 1076.91 139.933 1076.91 146.6C1076.91 158.333 1075.84 169 1073.71 178.6C1071.57 188.2 1068.91 196.733 1065.71 204.2C1062.51 211.4 1058.91 217.533 1054.91 222.6C1050.91 227.667 1047.17 231.533 1043.71 234.2L1040.91 235ZM1039.31 277H1041.31C1048.51 277 1055.44 274.867 1062.11 270.6C1068.77 266.067 1074.91 260.2 1080.51 253C1086.11 245.8 1091.17 237.667 1095.71 228.6C1100.24 219.267 1103.97 209.667 1106.91 199.8C1110.11 189.933 1112.51 180.2 1114.11 170.6C1115.97 161 1116.91 152.2 1116.91 144.2V139.4C1116.37 128.733 1114.77 116.867 1112.11 103.8C1109.44 90.4667 1105.17 77.9333 1099.31 66.2C1093.44 54.2 1085.71 43.9333 1076.11 35.4C1066.77 26.8666 1055.04 21.8 1040.91 20.2C1028.64 22.3333 1017.84 27.8 1008.51 36.6C999.44 45.1333 991.706 55.2667 985.306 67C979.173 78.4667 974.506 90.7333 971.306 103.8C968.373 116.867 966.906 128.867 966.906 139.8V147.4C966.906 161 968.373 175.4 971.306 190.6C974.506 205.8 979.04 219.8 984.906 232.6C991.04 245.4 998.64 256.067 1007.71 264.6C1016.77 272.867 1027.31 277 1039.31 277ZM1244.23 85.4C1244.23 96.6 1241.96 107.267 1237.43 117.4C1233.16 127.267 1226.63 135 1217.83 140.6C1218.36 141.667 1219.16 143 1220.23 144.6C1221.56 146.2 1223.03 147.933 1224.63 149.8C1228.09 153.8 1231.83 158.6 1235.83 164.2C1239.83 169.533 1242.09 174.467 1242.63 179C1244.49 183.8 1245.43 192.867 1245.43 206.2C1245.43 212.867 1244.89 219.667 1243.83 226.6C1242.76 233.533 1240.76 240.067 1237.83 246.2C1235.16 252.067 1231.29 257.4 1226.22 262.2C1221.16 266.733 1214.49 270.067 1206.23 272.2C1199.29 274.067 1193.16 275.133 1187.83 275.4C1182.49 275.667 1178.63 275.8 1176.23 275.8H1124.23L1135.43 260.2V36.6L1124.23 21H1189.03C1197.83 21 1205.69 22.8666 1212.63 26.6C1219.56 30.3333 1225.29 35.2666 1229.83 41.4C1234.63 47.2666 1238.23 54.0667 1240.63 61.8C1243.03 69.5333 1244.23 77.4 1244.23 85.4ZM1183.03 162.6H1174.63V239.4H1181.03C1186.09 239.4 1190.36 238.333 1193.83 236.2C1197.56 234.067 1200.36 231.267 1202.23 227.8C1204.36 224.333 1205.83 220.333 1206.63 215.8C1207.69 211.267 1208.23 206.733 1208.23 202.2C1208.23 198.2 1207.69 193.933 1206.63 189.4C1205.56 184.6 1203.96 180.2 1201.83 176.2C1199.69 172.2 1197.03 169 1193.83 166.6C1190.63 163.933 1187.03 162.6 1183.03 162.6ZM1181.03 56.6H1174.63V125H1182.23C1185.16 125 1188.09 123.933 1191.03 121.8C1193.96 119.4 1196.49 116.467 1198.63 113C1201.03 109.267 1202.89 105.267 1204.23 101C1205.83 96.7333 1206.63 92.7333 1206.63 89C1206.63 85 1206.23 81.1333 1205.43 77.4C1204.89 73.4 1203.56 69.9333 1201.43 67C1199.56 63.8 1196.89 61.2667 1193.43 59.4C1190.23 57.5333 1186.09 56.6 1181.03 56.6ZM1333.54 275.8H1252.74L1263.94 260.2V37L1252.74 21H1311.94L1301.94 36.6V241H1327.94L1342.74 228.6L1333.54 275.8ZM1407.67 275.8H1347.27L1358.07 260.6V36.6L1347.27 21H1407.27L1394.87 36.6V260.2L1407.67 275.8ZM1410.55 20.6H1447.35L1482.55 109.4V36.2L1471.35 20.6H1533.35L1522.55 36.6V299L1519.35 299.8L1460.15 143V260.6L1470.95 275.8H1410.55L1421.75 260.6V36.2L1410.55 20.6ZM1541.12 229.8V275.8H1613.52C1618.85 275.8 1622.45 274.067 1624.32 270.6C1626.45 267.133 1627.52 263.667 1627.52 260.2V238.2L1577.92 55.4H1616.32L1628.72 67.4V21H1559.12C1557.25 21 1555.25 21.5333 1553.12 22.6C1551.25 23.6666 1549.38 25.1333 1547.52 27C1545.92 28.6 1544.58 30.4667 1543.52 32.6C1542.45 34.4667 1541.92 36.2 1541.92 37.8V60.6L1590.32 241.4H1555.12L1541.12 229.8Z" fill="url(#paint0_linear_1191_2727)"/>
<defs>
<linearGradient id="paint0_linear_1191_2727" x1="1778.6" y1="170.002" x2="-148.231" y2="170.002" gradientUnits="userSpaceOnUse">
<stop stop-color="white" stop-opacity="0"/>
<stop offset="0.487792" stop-color="white" stop-opacity="0.2"/>
<stop offset="1" stop-color="white" stop-opacity="0"/>
</linearGradient>
</defs>
</svg>
