<svg width="250" height="251" viewBox="0 0 250 251" fill="none" xmlns="http://www.w3.org/2000/svg">
<circle cx="125" cy="125.011" r="123" fill="#141514" stroke="#00C555" stroke-width="4"/>
<circle cx="125" cy="125.011" r="123" fill="#141514" stroke="#00C555" stroke-width="4"/>
<mask id="mask0_1056_4" style="mask-type:alpha" maskUnits="userSpaceOnUse" x="2" y="2" width="246" height="246">
<circle cx="125" cy="125.011" r="122.222" fill="#C4C4C4"/>
</mask>
<g mask="url(#mask0_1056_4)">
<path d="M73.3055 198.579C76.665 199.659 80.2091 200.044 83.7222 199.711C82.6944 196.718 79.6875 191.773 77.7847 190.523C75.8819 189.273 73.4166 188.877 71.5347 190.127C69.6528 191.377 68.7569 194.558 70.0764 196.544C70.8904 197.569 72.0293 198.287 73.3055 198.579Z" fill="#58645A"/>
<path d="M186.736 216.363C185.48 215.897 184.122 215.779 182.804 216.024C181.487 216.268 180.261 216.866 179.257 217.752C180.042 216.299 180.426 214.663 180.369 213.012C180.313 211.362 179.818 209.756 178.936 208.359C178.054 206.963 176.815 205.827 175.349 205.067C173.882 204.308 172.24 203.952 170.59 204.037C167.118 204.141 163.771 205.961 161 208.391C165.66 202.509 146.986 193.204 143.521 186.329H126.556C126.542 186.304 126.525 186.281 126.507 186.259H107.819C104.347 193.134 87.3819 202.447 92.0417 208.322C89.2639 205.891 85.9514 204.072 82.4514 203.975C80.8021 203.888 79.1596 204.242 77.6926 205.001C76.2257 205.76 74.9873 206.895 74.1047 208.291C73.2222 209.687 72.7273 211.293 72.6711 212.944C72.6149 214.594 72.9992 216.23 73.7847 217.683C72.7796 216.798 71.5536 216.201 70.2368 215.957C68.9199 215.712 67.5614 215.829 66.3056 216.294C62.9931 217.683 60.8264 222.127 61.868 225.968C62.9097 229.808 67.2292 232.079 70.3403 230.197C63.9305 238.412 64.0139 252.197 70.5208 260.308C77.0278 268.419 89.0417 269.738 96.7708 263.183C96.0069 266.801 98.3403 270.613 101.375 271.975C104.41 273.336 107.882 272.711 110.917 271.35C118 268.169 123.271 261.301 126.514 253.294C129.75 261.28 135.028 268.169 142.118 271.35C145.16 272.738 148.625 273.336 151.667 271.975C154.708 270.613 157.035 266.801 156.264 263.183C164 269.738 176.014 268.426 182.521 260.308C189.028 252.19 189.111 238.412 182.701 230.197C185.812 232.079 190.132 229.801 191.174 225.968C192.215 222.134 190.042 217.732 186.736 216.363Z" fill="#58645A"/>
<path d="M179.736 198.621C181.009 198.326 182.143 197.606 182.951 196.579C184.285 194.6 183.389 191.419 181.493 190.169C179.597 188.919 177.125 189.315 175.243 190.565C173.361 191.815 170.333 196.76 169.312 199.753C172.828 200.087 176.374 199.702 179.736 198.621Z" fill="#58645A"/>
<path d="M138.438 190.225C134.563 181.579 125.368 181.892 125.368 181.892C125.368 181.892 116.181 181.593 112.306 190.225C105.667 205.037 125.368 224.336 125.368 224.336C125.368 224.336 145.076 205.037 138.438 190.225Z" fill="#6E8C53"/>
<path d="M133.479 190.246C131.076 184.878 125.368 185.065 125.368 185.065C125.368 185.065 119.667 184.878 117.257 190.246C113.139 199.44 125.368 211.419 125.368 211.419C125.368 211.419 137.604 199.44 133.479 190.246Z" fill="#00C555"/>
<path d="M95.5556 149.732C95.5556 149.732 68.7847 149.732 63.8056 121.405C63.8056 121.405 22.5625 155.232 54.2639 188.169C52.5209 180.53 68.7847 148.641 103.41 167.704L95.5556 149.732Z" fill="#322423"/>
<path d="M79.7292 162.857C79.7292 163.225 79.5829 163.578 79.3224 163.839C79.0619 164.099 78.7087 164.246 78.3403 164.246C78.1598 164.246 77.9812 164.21 77.8149 164.139C77.6487 164.069 77.4983 163.966 77.3726 163.836C77.247 163.707 77.1486 163.553 77.0834 163.385C77.0182 163.217 76.9875 163.037 76.9931 162.857V142.759C76.9931 142.402 77.135 142.06 77.3877 141.807C77.6403 141.554 77.983 141.412 78.3403 141.412C78.5207 141.407 78.7004 141.437 78.8687 141.503C79.037 141.568 79.1904 141.666 79.32 141.792C79.4495 141.917 79.5525 142.068 79.6228 142.234C79.6931 142.4 79.7293 142.579 79.7292 142.759V162.857Z" fill="#151719"/>
<path d="M52.7778 178.038C52.7778 178.038 36.4515 154.079 60.6876 130.725C60.6876 130.725 43.8056 151.42 56.7015 172.329L52.7778 178.038Z" fill="#151719"/>
<path d="M154.444 149.732C154.444 149.732 181.215 149.732 186.194 121.405C186.194 121.405 227.438 155.232 195.736 188.169C197.479 180.53 181.215 148.641 146.59 167.704L154.444 149.732Z" fill="#322423"/>
<path d="M170.271 162.857C170.271 163.219 170.412 163.567 170.665 163.827C170.918 164.086 171.263 164.236 171.625 164.245C171.806 164.246 171.984 164.209 172.15 164.139C172.317 164.069 172.467 163.966 172.593 163.836C172.718 163.707 172.817 163.553 172.882 163.385C172.947 163.217 172.978 163.037 172.972 162.857V142.759C172.972 142.402 172.83 142.059 172.578 141.807C172.325 141.554 171.982 141.412 171.625 141.412C171.448 141.411 171.272 141.445 171.107 141.513C170.943 141.58 170.794 141.679 170.668 141.804C170.542 141.929 170.442 142.078 170.374 142.242C170.306 142.406 170.271 142.582 170.271 142.759V162.857Z" fill="#151719"/>
<path d="M197.222 178.037C197.222 178.037 213.563 154.086 189.326 130.731C189.326 130.731 206.208 151.426 193.313 172.336L197.222 178.037Z" fill="#151719"/>
<path d="M148.347 180.85C148.347 182.289 147.776 183.669 146.759 184.687C145.742 185.706 144.363 186.279 142.924 186.28H107.82C107.107 186.28 106.401 186.14 105.742 185.867C105.084 185.594 104.486 185.194 103.982 184.689C103.478 184.185 103.079 183.586 102.807 182.928C102.535 182.269 102.395 181.563 102.396 180.85C102.396 179.411 102.967 178.032 103.984 177.015C105.002 175.998 106.381 175.426 107.82 175.426H142.924C144.362 175.426 145.742 175.998 146.759 177.015C147.776 178.032 148.347 179.411 148.347 180.85Z" fill="#726D62"/>
<path d="M125.375 44.2388L122.674 67.9679L125.375 63.2596L128.07 67.9679L125.375 44.2388Z" fill="#726D62"/>
<path d="M162.979 119.44C155.424 91.3079 125.368 65.5371 125.368 65.5371C125.368 65.5371 95.3196 91.3218 87.764 119.454C80.2085 147.586 99.4446 173.794 99.9168 175.343H150.827C151.299 173.78 170.535 147.572 162.979 119.44Z" fill="#726D62"/>
<path d="M146.354 119.44C142.139 91.3079 125.368 65.5371 125.368 65.5371C125.368 65.5371 108.604 91.3218 104.389 119.454C100.174 147.586 110.903 173.794 111.174 175.343H139.583C139.833 173.78 150.569 147.572 146.354 119.44Z" fill="#575C55"/>
<path d="M142.202 119.44C138.82 91.3079 125.368 65.5371 125.368 65.5371C125.368 65.5371 111.917 91.3218 108.542 119.454C105.167 147.586 113.764 173.794 113.979 175.343H136.764C136.979 173.78 145.583 147.572 142.202 119.44Z" fill="#726D62"/>
<path d="M159.722 175.426C159.722 176.57 159.268 177.667 158.459 178.476C157.65 179.285 156.553 179.739 155.41 179.739H95.3195C94.1757 179.739 93.0788 179.285 92.2701 178.476C91.4613 177.667 91.007 176.57 91.007 175.426C91.0061 174.859 91.1169 174.298 91.3332 173.774C91.5496 173.25 91.8671 172.774 92.2676 172.372C92.6681 171.971 93.1439 171.653 93.6675 171.436C94.1912 171.219 94.7525 171.107 95.3195 171.107H155.424C155.991 171.107 156.552 171.219 157.076 171.436C157.599 171.653 158.075 171.971 158.475 172.372C158.876 172.774 159.194 173.25 159.41 173.774C159.626 174.298 159.737 174.859 159.736 175.426H159.722Z" fill="#322423"/>
<path d="M99.6112 175.426C99.6098 175.785 99.5024 176.134 99.3024 176.431C99.1024 176.729 98.8188 176.96 98.4875 177.096C98.1562 177.232 97.792 177.267 97.4409 177.196C97.0897 177.126 96.7674 176.952 96.5146 176.699C96.2618 176.445 96.0899 176.122 96.0205 175.77C95.9512 175.419 95.9875 175.055 96.1248 174.724C96.2622 174.393 96.4945 174.111 96.7925 173.912C97.0904 173.713 97.4405 173.607 97.7987 173.607C98.0373 173.607 98.2736 173.654 98.4939 173.746C98.7143 173.837 98.9144 173.971 99.0828 174.14C99.2512 174.309 99.3845 174.51 99.4752 174.731C99.5659 174.951 99.6121 175.188 99.6112 175.426Z" fill="#726D62"/>
<path d="M108.806 175.426C108.806 175.786 108.699 176.138 108.499 176.437C108.299 176.736 108.015 176.97 107.682 177.107C107.35 177.245 106.984 177.281 106.631 177.211C106.278 177.141 105.954 176.967 105.7 176.713C105.445 176.458 105.272 176.134 105.202 175.781C105.132 175.428 105.168 175.063 105.305 174.73C105.443 174.398 105.676 174.114 105.975 173.914C106.275 173.714 106.626 173.607 106.986 173.607C107.225 173.606 107.462 173.652 107.684 173.744C107.905 173.835 108.106 173.969 108.275 174.138C108.444 174.307 108.578 174.508 108.669 174.729C108.76 174.95 108.807 175.187 108.806 175.426Z" fill="#726D62"/>
<path d="M117.993 175.426C117.992 175.785 117.884 176.134 117.684 176.431C117.484 176.729 117.201 176.96 116.869 177.096C116.538 177.232 116.174 177.267 115.823 177.196C115.472 177.126 115.149 176.952 114.897 176.699C114.644 176.445 114.472 176.122 114.402 175.77C114.333 175.419 114.369 175.055 114.507 174.724C114.644 174.393 114.876 174.111 115.174 173.912C115.472 173.713 115.822 173.607 116.181 173.607C116.419 173.607 116.656 173.654 116.876 173.746C117.096 173.837 117.296 173.971 117.465 174.14C117.633 174.309 117.767 174.51 117.857 174.731C117.948 174.951 117.994 175.188 117.993 175.426Z" fill="#726D62"/>
<path d="M127.188 175.426C127.188 175.786 127.081 176.138 126.881 176.437C126.681 176.736 126.397 176.97 126.064 177.107C125.732 177.245 125.366 177.281 125.013 177.211C124.66 177.141 124.336 176.967 124.082 176.713C123.827 176.458 123.654 176.134 123.584 175.781C123.513 175.428 123.549 175.063 123.687 174.73C123.825 174.398 124.058 174.114 124.357 173.914C124.657 173.714 125.008 173.607 125.368 173.607C125.607 173.606 125.844 173.652 126.066 173.744C126.287 173.835 126.488 173.969 126.657 174.138C126.826 174.307 126.96 174.508 127.051 174.729C127.142 174.95 127.189 175.187 127.188 175.426Z" fill="#726D62"/>
<path d="M136.375 175.426C136.374 175.785 136.266 176.134 136.066 176.431C135.866 176.729 135.583 176.96 135.251 177.096C134.92 177.232 134.556 177.267 134.205 177.196C133.854 177.126 133.531 176.952 133.278 176.699C133.026 176.445 132.854 176.122 132.784 175.77C132.715 175.419 132.751 175.055 132.889 174.724C133.026 174.393 133.258 174.111 133.556 173.912C133.854 173.713 134.204 173.607 134.563 173.607C134.801 173.607 135.037 173.654 135.258 173.746C135.478 173.837 135.678 173.971 135.847 174.14C136.015 174.309 136.148 174.51 136.239 174.731C136.33 174.951 136.376 175.188 136.375 175.426Z" fill="#726D62"/>
<path d="M145.569 175.426C145.569 175.786 145.463 176.138 145.263 176.437C145.063 176.736 144.779 176.97 144.446 177.107C144.114 177.245 143.748 177.281 143.395 177.211C143.042 177.141 142.718 176.967 142.464 176.713C142.209 176.458 142.036 176.134 141.966 175.781C141.895 175.428 141.931 175.063 142.069 174.73C142.207 174.398 142.44 174.114 142.739 173.914C143.038 173.714 143.39 173.607 143.75 173.607C143.989 173.606 144.226 173.652 144.447 173.744C144.669 173.835 144.869 173.969 145.039 174.138C145.208 174.307 145.342 174.508 145.433 174.729C145.524 174.95 145.57 175.187 145.569 175.426Z" fill="#726D62"/>
<path d="M154.757 175.426C154.756 175.785 154.648 176.134 154.448 176.431C154.248 176.729 153.965 176.96 153.633 177.096C153.302 177.232 152.938 177.267 152.587 177.196C152.236 177.126 151.913 176.952 151.66 176.699C151.408 176.445 151.236 176.122 151.166 175.77C151.097 175.419 151.133 175.055 151.271 174.724C151.408 174.393 151.64 174.111 151.938 173.912C152.236 173.713 152.586 173.607 152.945 173.607C153.183 173.607 153.419 173.654 153.64 173.746C153.86 173.837 154.06 173.971 154.229 174.14C154.397 174.309 154.53 174.51 154.621 174.731C154.712 174.951 154.758 175.188 154.757 175.426Z" fill="#726D62"/>
<path d="M142.167 80.6555C137.005 74.4603 131.39 68.6573 125.368 63.2944C119.35 68.6586 113.737 74.4615 108.576 80.6555H142.167Z" fill="#322423"/>
<path opacity="0.2" d="M125.368 63.2596V44.2388L122.965 65.4402C117.864 70.215 113.059 75.2962 108.576 80.6554H110.5C101.771 90.7318 91.7084 104.76 87.7639 119.44C86.6541 123.606 86.0663 127.893 86.0139 132.204H85.6667C84.8821 132.204 84.1296 132.516 83.5749 133.071C83.0201 133.625 82.7084 134.378 82.7084 135.162C82.7084 135.947 83.0201 136.699 83.5749 137.254C84.1296 137.809 84.8821 138.121 85.6667 138.121H86.25C87.5278 152.607 93.8889 164.898 97.4445 171.086H95.3195C94.2048 171.131 93.1506 171.605 92.3777 172.41C91.6048 173.214 91.1732 174.286 91.1732 175.402C91.1732 176.518 91.6048 177.59 92.3777 178.394C93.1506 179.199 94.2048 179.673 95.3195 179.718H102.507C102.431 180.083 102.394 180.456 102.396 180.829C102.395 181.542 102.535 182.248 102.807 182.907C103.079 183.566 103.478 184.164 103.982 184.669C104.486 185.173 105.084 185.573 105.742 185.846C106.401 186.119 107.107 186.26 107.819 186.26H125.368V63.2596Z" fill="white"/>
<path d="M144.686 106.622C145.739 95.9576 137.948 86.459 127.284 85.4059C116.62 84.3527 107.122 92.1439 106.068 102.808C105.015 113.472 112.806 122.97 123.47 124.024C134.134 125.077 143.633 117.286 144.686 106.622Z" fill="#322423"/>
<path d="M137.16 104.711C137.16 107.046 136.468 109.328 135.17 111.27C133.873 113.211 132.029 114.724 129.872 115.618C127.715 116.511 125.341 116.745 123.051 116.29C120.761 115.834 118.658 114.71 117.007 113.059C115.355 111.408 114.231 109.304 113.776 107.014C113.32 104.724 113.554 102.35 114.447 100.193C115.341 98.0359 116.854 96.1921 118.796 94.8949C120.737 93.5977 123.019 92.9053 125.354 92.9053C128.485 92.9053 131.488 94.1491 133.702 96.363C135.916 98.577 137.16 101.58 137.16 104.711Z" fill="#9DA09C"/>
<path d="M128.07 116.6C128.068 117.315 127.782 118.001 127.276 118.506C126.769 119.011 126.083 119.295 125.368 119.295C124.654 119.295 123.968 119.011 123.463 118.505C122.958 118 122.674 117.315 122.674 116.6V92.8224C122.674 92.1078 122.958 91.4224 123.463 90.9171C123.968 90.4118 124.654 90.1279 125.368 90.1279C126.083 90.1279 126.769 90.4116 127.276 90.9167C127.782 91.4218 128.068 92.1071 128.07 92.8224V116.6Z" fill="#9DA09C"/>
<path d="M137.257 102.017C137.972 102.017 138.657 102.3 139.162 102.806C139.668 103.311 139.951 103.996 139.951 104.711C139.951 105.426 139.668 106.111 139.162 106.616C138.657 107.122 137.972 107.405 137.257 107.405H113.486C112.771 107.405 112.085 107.122 111.578 106.617C111.072 106.112 110.787 105.426 110.785 104.711C110.787 103.996 111.072 103.31 111.578 102.805C112.085 102.3 112.771 102.017 113.486 102.017H137.257Z" fill="#9DA09C"/>
<path d="M135.681 111.211C135.932 111.461 136.131 111.758 136.267 112.085C136.404 112.412 136.474 112.763 136.474 113.117C136.474 113.472 136.404 113.822 136.267 114.15C136.131 114.477 135.932 114.774 135.681 115.023C135.174 115.528 134.489 115.811 133.774 115.811C133.06 115.811 132.374 115.528 131.868 115.023L115.063 98.2109C114.811 97.9612 114.612 97.6642 114.476 97.337C114.34 97.0099 114.269 96.659 114.269 96.3047C114.269 95.9504 114.34 95.5995 114.476 95.2724C114.612 94.9452 114.811 94.6482 115.063 94.3984C115.312 94.1473 115.608 93.948 115.935 93.812C116.261 93.676 116.612 93.606 116.965 93.606C117.319 93.606 117.669 93.676 117.996 93.812C118.323 93.948 118.619 94.1473 118.868 94.3984L135.681 111.211Z" fill="#9DA09C"/>
<path d="M131.868 94.3985C132.118 94.1472 132.415 93.9478 132.742 93.8116C133.069 93.6755 133.42 93.6055 133.774 93.6055C134.129 93.6055 134.48 93.6755 134.807 93.8116C135.134 93.9478 135.431 94.1472 135.681 94.3985C135.932 94.6483 136.131 94.9453 136.267 95.2725C136.404 95.5996 136.474 95.9505 136.474 96.3048C136.474 96.6591 136.404 97.01 136.267 97.3371C136.131 97.6643 135.932 97.9613 135.681 98.211L118.868 115.024C118.363 115.527 117.679 115.81 116.965 115.81C116.252 115.81 115.568 115.527 115.063 115.024C114.811 114.774 114.612 114.477 114.476 114.15C114.34 113.822 114.269 113.472 114.269 113.117C114.269 112.763 114.34 112.412 114.476 112.085C114.612 111.758 114.811 111.461 115.063 111.211L131.868 94.3985Z" fill="#9DA09C"/>
<path d="M134.66 104.711C134.656 106.548 134.107 108.342 133.084 109.867C132.06 111.393 130.608 112.58 128.909 113.28C127.211 113.981 125.344 114.162 123.543 113.801C121.742 113.44 120.088 112.553 118.791 111.253C117.493 109.953 116.61 108.297 116.253 106.495C115.897 104.693 116.082 102.826 116.786 101.13C117.49 99.4329 118.681 97.983 120.208 96.9629C121.736 95.9429 123.531 95.3984 125.368 95.3984C126.59 95.3984 127.8 95.6395 128.929 96.1077C130.057 96.576 131.083 97.2622 131.946 98.1273C132.809 98.9923 133.493 100.019 133.958 101.149C134.424 102.278 134.663 103.489 134.66 104.711Z" fill="#46513C"/>
<path d="M133.333 104.711C133.339 106.284 132.878 107.823 132.008 109.134C131.138 110.445 129.899 111.469 128.447 112.075C126.996 112.682 125.397 112.844 123.853 112.541C122.309 112.239 120.89 111.485 119.774 110.376C118.659 109.266 117.898 107.851 117.587 106.308C117.277 104.766 117.43 103.167 118.029 101.712C118.628 100.257 119.645 99.0125 120.951 98.1359C122.258 97.2593 123.795 96.7899 125.368 96.7871C127.474 96.7834 129.496 97.6157 130.99 99.1013C132.483 100.587 133.326 102.604 133.333 104.711Z" fill="white"/>
<path d="M132.25 104.711C132.251 106.072 131.849 107.404 131.094 108.536C130.338 109.669 129.264 110.552 128.007 111.074C126.749 111.596 125.365 111.733 124.03 111.468C122.694 111.204 121.467 110.549 120.504 109.587C119.541 108.624 118.885 107.398 118.619 106.063C118.353 104.728 118.489 103.344 119.009 102.086C119.53 100.828 120.412 99.7527 121.544 98.9962C122.676 98.2397 124.007 97.8359 125.368 97.8359C127.192 97.8359 128.941 98.56 130.232 99.8492C131.522 101.138 132.248 102.887 132.25 104.711Z" fill="#A0A39F"/>
<path opacity="0.2" d="M125.368 97.8359C123.545 97.8359 121.796 98.5603 120.507 99.8496C119.217 101.139 118.493 102.888 118.493 104.711H132.25C132.248 102.887 131.522 101.138 130.232 99.8492C128.941 98.56 127.192 97.8359 125.368 97.8359Z" fill="white"/>
<path d="M124.764 101.746C124.764 102.11 124.656 102.466 124.454 102.768C124.252 103.071 123.964 103.307 123.628 103.446C123.292 103.586 122.922 103.622 122.565 103.551C122.208 103.48 121.88 103.305 121.622 103.047C121.365 102.79 121.19 102.462 121.119 102.105C121.048 101.748 121.084 101.378 121.223 101.042C121.363 100.706 121.599 100.418 121.901 100.216C122.204 100.014 122.56 99.9058 122.924 99.9058C123.412 99.9058 123.88 100.1 124.225 100.445C124.57 100.79 124.764 101.258 124.764 101.746Z" fill="white"/>
</g>
</svg>
