<svg width="25" height="20" viewBox="0 0 25 20" fill="none" xmlns="http://www.w3.org/2000/svg">
<path d="M24.8004 2.37236C23.8957 2.77326 22.9238 3.04414 21.902 3.16658C22.9563 2.53575 23.745 1.5429 24.1211 0.373289C23.1306 0.961624 22.0465 1.37575 20.916 1.59766C20.1558 0.78596 19.1489 0.247955 18.0516 0.0671694C16.9543 -0.113617 15.828 0.0729309 14.8476 0.59785C13.8671 1.12277 13.0874 1.95669 12.6295 2.97014C12.1716 3.98359 12.0611 5.11988 12.3151 6.20257C10.3081 6.1018 8.34475 5.58015 6.55241 4.67147C4.76006 3.76279 3.17881 2.48739 1.91127 0.928046C1.47787 1.67567 1.22866 2.54248 1.22866 3.46563C1.22818 4.29667 1.43283 5.11499 1.82446 5.84798C2.21609 6.58096 2.78259 7.20594 3.47369 7.66748C2.6722 7.64198 1.88838 7.42541 1.18749 7.03579V7.1008C1.18741 8.26638 1.59059 9.39609 2.32862 10.2982C3.06665 11.2004 4.09408 11.8194 5.23656 12.0503C4.49304 12.2515 3.71351 12.2811 2.95686 12.137C3.2792 13.1399 3.90709 14.0169 4.75263 14.6452C5.59817 15.2735 6.61903 15.6217 7.6723 15.641C5.88432 17.0446 3.67619 17.806 1.40311 17.8026C1.00045 17.8027 0.59814 17.7792 0.198242 17.7322C2.50555 19.2157 5.19143 20.003 7.9345 20C17.2202 20 22.2964 12.3092 22.2964 5.63915C22.2964 5.42245 22.291 5.20358 22.2813 4.98687C23.2687 4.27281 24.121 3.38858 24.7983 2.37562L24.8004 2.37236Z" fill="white"/>
</svg>
